<?xml version="1.0" encoding="UTF-8"?>
<svg xmlns="http://www.w3.org/2000/svg" version="1.1" xmlns:xlink="http://www.w3.org/1999/xlink" viewBox="0 0 1024 1024">
  <!-- Generator: Adobe Illustrator 29.6.1, SVG Export Plug-In . SVG Version: 2.1.1 Build 9)  -->
  <defs>
    <linearGradient id="_76" data-name="  76" x1="526.32" y1="550.002" x2="526.32" y2="597.969" gradientUnits="userSpaceOnUse">
      <stop offset="0" stop-color="#ffc2c4"/>
      <stop offset="1" stop-color="#e5658e"/>
    </linearGradient>
    <linearGradient id="_300" data-name="  300" x1="567.443" y1="585.065" x2="551.469" y2="581.175" gradientUnits="userSpaceOnUse">
      <stop offset="0" stop-color="#b04c8e"/>
      <stop offset="1" stop-color="#ffbdac"/>
    </linearGradient>
    <linearGradient id="_3001" data-name="  300" x1="502.716" y1="585.273" x2="487.488" y2="581.565" xlink:href="#_300"/>
    <linearGradient id="_462" data-name="  462" x1="336.051" y1="1141.592" x2="336.051" y2="1141.592" gradientUnits="userSpaceOnUse">
      <stop offset="0" stop-color="#fff"/>
      <stop offset="1" stop-color="#ac526a"/>
    </linearGradient>
  </defs>
  <g style="isolation: isolate;">
    <g id="layer10-Emma-Hoofd" style="display: none;">
      <g>
        <g>
          <path d="M667.337,203.608l-184.744-74.335s24.006-30.39,49.193-44.601c9.358-5.291,18.846-8.352,27.329-6.778,18.541,3.411,34.764,13.599,48.625,26.848l.087.044c39.222,37.386,59.511,98.821,59.511,98.821Z" style="fill: #e5b08c;"/>
          <path d="M667.337,203.608l-184.744-74.335s24.006-30.39,49.193-44.601l.743,2.317c23.307,35.724,75.211,17.753,75.211,17.753l.087.044c39.222,37.386,59.511,98.821,59.511,98.821Z" style="fill: #bc845b;"/>
          <path d="M200.392,428.276l4.669,46.52s62.18-204.14,232.713-310.54c0,0,296.61,171.106,424.146,446.008l7.287-34.981s-4.372-240.927-151.584-371.674c-123.588-109.765-298.797-107.858-307.542-107.858s-94.639,41.479-160.331,172.367c-52.929,105.461-49.358,160.159-49.358,160.159Z" style="fill: #e5b08c;"/>
          <path d="M204.567,465.339c2.867,157.522,212.89,262.569,355.641,284.173,156.16,23.633,276.298-60.837,301.712-139.248,0,0,7.287-494.523-454.754-494.523,0,0-206.824,117.493-202.599,349.599Z" style="fill: #bc845b;"/>
          <path d="M437.774,203.608c-40.237,20.859-117.077,101.982-136.601,201.513-19.524,99.53,93.546,199.677,218.924,213.342,125.378,13.664,232.381-61.786,241.189-102.768,8.809-40.982-9.882-187.332-103.423-258.463-93.54-71.13-206.269-60.787-220.089-53.623Z" style="fill: #99440a;"/>
        </g>
        <path d="M366.354,803.151c49.557-10.482,208.612-29.864,308.26-10.482,0,0,109.289-19.322,132.972-44.413,19.452-20.609,29.938-56.346-21.095-164.229-31.514-66.619-33.796-114.069-49.192-180.371-15.396-66.302-89.308-167.068-178.947-170.348-89.639-3.28-225.512,100.32-238.369,157.066-28.693,126.634-97.246,215.857-102.68,260.7-14.289,117.93,149.05,152.077,149.05,152.077Z" style="fill: #935b18;"/>
        <path d="M632.356,872.578s-28.204,89.683-83.079,105.162c-75.823,21.426-133.366-120.597-133.366-120.597,0,0,46.612-10.976,57.543-29.603,5.422-9.226,5.466-41.409,4.154-71.536-1.354-30.696-4.154-59.293-4.154-59.293h101.533s-.743,25.273-1.268,53.652c-.611,35.506-.873,75.909,1.268,78.052,3.804,3.848,57.369,44.163,57.369,44.163Z" style="fill: #ffa476;"/>
        <path d="M574.987,696.711s-.743,25.273-1.268,53.652c-37.648,22.519-71.404,23-96.111,5.641-1.354-30.696-4.154-59.293-4.154-59.293h101.533Z" style="fill: #ea8c63;"/>
        <g>
          <path d="M711.792,518.147s32.066-20.377,43.726-19.759c11.661.618,21.429,22.847,23.468,39.518,2.039,16.672-43.145,95.092-83.227,90.769l16.033-110.528Z" style="fill: #ffa476;"/>
          <path d="M341.805,518.147s-32.066-20.377-43.727-19.759c-11.66.618-21.428,22.847-23.467,39.518-2.039,16.672,43.145,95.092,83.227,90.769l-16.033-110.528Z" style="fill: #ffa476;"/>
          <path d="M706.691,612.45c-11.369,26.104-36.73,51.204-66.158,71.318l-.045.044c-38.479,26.323-83.866,44.032-114.169,44.032-29.297,0-72.762-16.572-110.409-41.496-31.046-20.508-58.112-46.7-69.962-73.897-26.236-60.124,8.833-303.811,12.025-308.271,47.924-66.945,165.811-61.304,165.811-61.304,0,0,122.959-5.641,170.883,61.304,3.192,4.46,38.26,248.147,12.025,308.271Z" style="fill: #ffa476;"/>
          <path d="M339.802,475.44s12.443,136.373,48.648,190.257c0,0-24.472-20.452-33.487-36.849,0,0-6.869.593-18.053-4.622,0,0-1.933-39.65,0-85.563,1.933-45.912,2.892-63.222,2.892-63.222Z" style="fill: #ea8c63;"/>
          <path d="M707.803,519.335s-6.912,92.478-43.117,146.361c0,0,14.676-10.613,33.487-36.849,0,0,8.792,1.367,20.666-5.706,0,0,.102-15.063-2.472-38.426-5.032-45.678-8.564-65.379-8.564-65.379Z" style="fill: #ea8c63;"/>
          <path d="M640.489,683.811c-38.479,26.323-83.866,44.032-114.169,44.032-29.297,0-72.762-16.572-110.409-41.496v-.044c30.215,17.666,82.25,31.09,110.409,34.369,27.721,3.235,111.635-35.724,114.169-36.861Z" style="fill: #f89867;"/>
          <g>
            <path d="M571.873,552.762s2.04,5.466,3.739,12.025c1.699,6.559,2.039,10.084-5.099,11.738-5.791,1.341-16.77.066-21.671,1.899-4.902,1.833,3.037,6.534.765,9.195-6.119,7.168-17.26,11.056-23.286,11.056s-17.166-3.888-23.285-11.056c-2.273-2.661,5.666-7.362.765-9.195-4.902-1.833-15.694,1.004-22.521-1.899-5.593-2.378-5.95-5.179-4.249-11.738,1.699-6.559,3.739-12.025,3.739-12.025-13.598,16.398-7.693,22.736-6.067,23.602,1.625.867,22.85,16.027,31.222,19.749,4.795,2.132,15.28,4.175,20.397,4.175s15.601-2.043,20.396-4.175c8.371-3.722,29.596-18.883,31.222-19.749,1.625-.866,7.531-7.204-6.065-23.602Z" style="fill: url(#_76); mix-blend-mode: multiply; opacity: .5;"/>
            <path d="M568.727,579.791c-10.702-2.469-18.611,1.006-17.592,3.783,1.02,2.776,3.22,4.684,5.873,4.051,6.466-1.542,11.719-7.834,11.719-7.834Z" style="fill: url(#_300); mix-blend-mode: multiply; opacity: .5;"/>
            <path d="M487.913,583.383c-4.057-4.667,15.547-3.866,15.547-1.406s-5.099,6.763-7.648,5.841c-2.55-.922-4.584-.622-7.898-4.435Z" style="fill: url(#_3001); mix-blend-mode: multiply; opacity: .5;"/>
          </g>
        </g>
        <g>
          <path d="M807.567,765.842c-18.889,37.299-83.385,44.47-83.385,44.47l14.343-33.801s-40.579,26.629-77.746,23.219c0,0,75.516-36.949,54.616-224.36-6.559-58.681-24.488-157.634-24.488-157.634,0,0-56.451-71.711-82.337-119.067-2.056-3.717-3.847-7.259-5.466-10.582,0,0-18.454.7-46.613,5.903-55.751,10.232-149.5,38.129-212.728,112.945,0,0-.83,12.55-1.968,31.964-2.58,44.163-6.603,123.789-5.509,171.363,2.098,91.782,43.201,172.545,60.692,205.427,0,0-83.823-2.405-105.687-23,0,0-21.863-39.223-26.236-57.806,0,0,4.373,30.608,15.304,51.379,0,0-77.264-30.259-36.424-149.326,17.315-50.503,44.689-150.812,49.761-192.746.394-3.192.831-6.384,1.312-9.488,0,0,0-.044.043-.088,11.588-75.253,51.073-133.628,86.973-163.231,55.751-45.913,121.821-69.481,204.421-47.137,68.519,18.54,124.62,79.888,148.365,153.261,8.7,27.066,11.104,46.131,12.767,66.42,2.929,35.243,3.717,74.204,32.182,165.067,21.471,68.607,31.002,150.55,27.81,156.846Z" style="fill: #c6974e;"/>
          <path d="M291.29,792.67c-20.405-145.238,9.474-244.352,9.474-244.352,0,0-58.302,62.674-35.71,186.565l26.236,57.786Z" style="fill: #9e6c2a;"/>
          <path d="M738.508,776.508c25.027-65.673,20.885-169.866,0-227.085-20.886-57.22-22.141-121.147-22.141-121.147,0,0,49.812,179.277,62.701,248.408,12.889,69.131-54.887,133.628-54.887,133.628l14.327-33.804Z" style="fill: #9e6c2a;"/>
          <path d="M608.583,298.673c67.5,49.232,128.256,85.448,128.256,85.448l3.807,14.053s-39.421-25.96-73.309-42.617c-33.887-16.657-58.754-56.885-58.754-56.885Z" style="fill: #9e6c2a;"/>
          <path d="M690.885,417.757c27.706,40.974,57.647,47.582,57.647,47.582l-2.926-22.296-54.721-25.287Z" style="fill: #9e6c2a;"/>
          <path d="M745.607,443.054s-70.909-147.629-189.117-149.063c-181.391-2.201-232.11,51.119-232.11,51.119,16.741-32.065,37.743-57.316,57.643-73.725,55.751-45.913,121.821-69.481,204.421-47.137,68.519,18.54,124.62,79.888,148.365,153.261,8.7,27.066,10.799,65.546,10.799,65.546Z" style="fill: #935b18;"/>
          <path d="M396.977,815.69s-42.283-23.962-80.807-96.198c-38.479-72.236,1.356-168.26,25.011-284.834l.613,4.241c-2.58,44.163-6.603,123.789-5.509,171.363,2.098,91.782,43.201,172.545,60.692,205.427Z" style="fill: #9e6c2a;"/>
          <path d="M603.118,288.095s-108.5-53.124-169.716-19.978c-61.217,33.147-89.639,138.819-89.639,138.819,0,0,80.894-104.214,259.355-118.841Z" style="fill: #9e6c2a;"/>
        </g>
      </g>
    </g>
    <g id="layer9-Emma-Ogen-Normaal" style="display: none;">
      <g>
        <g>
          <path d="M353.461,406.936s36.21-18.158,106.901-21.832c0,0,14.575-13.565,17.855-32.67,0,0-80.801-10.358-124.756,54.502Z" style="fill: #935b18;"/>
          <path d="M462.17,514.415s-1.444,5.072-8.002,0c-1.924-1.487-4.985-2.711-9.095-3.716-3.804-1.006-8.439-1.749-13.861-2.317h-.044c-8.658-1.006-19.152-1.53-30.959-1.662-1.354,0-2.666-.088-3.979-.174-5.729-.35-11.15-1.356-16.047-2.712-16.573-4.547-27.898-13.205-29.515-16.397-2.186-4.373,0-16.747,13.861-34.106,13.817-17.316,53.171-23.481,73.592-10.32,20.419,13.118,24.049,62.66,24.049,71.405Z" style="fill: #fff;"/>
          <path d="M345.988,440.86s-6.171,20.537,6.179,32.826c0,0,26.325-44.726,69.775-32.15,25.474,7.373,36.148,40.137,36.148,40.137,0,0-1.93-25.075-19.968-38.681-38.411-28.976-92.134-2.132-92.134-2.132Z" style="fill: #281716;"/>
          <path d="M414.769,449.175c-21.12,0-38.26,17.141-38.26,38.261,0,5.859,1.312,11.413,3.673,16.397,4.897,1.356,10.318,2.362,16.047,2.712,1.312.087,2.624.174,3.979.174,11.806.131,22.301.656,30.959,1.662h.044c5.422.568,10.057,1.311,13.861,2.317,4.985-6.471,7.915-14.517,7.915-23.262,0-21.12-17.097-38.261-38.217-38.261Z" style="fill: #908d66;"/>
          <path d="M394.954,475.888s-5.061-16.706-21.761-11.28c0,0,7.232,14.289,21.761,11.28Z" style="fill: #d1c9c9;"/>
        </g>
        <g>
          <path d="M699.179,406.936s-36.21-18.158-106.901-21.832c0,0-14.575-13.565-17.854-32.67,0,0,80.801-10.358,124.755,54.502Z" style="fill: #935b18;"/>
          <path d="M590.471,514.415s1.444,5.072,8.002,0c1.923-1.487,4.985-2.711,9.095-3.716,3.803-1.006,8.439-1.749,13.86-2.317h.044c8.658-1.006,19.153-1.53,30.959-1.662,1.355,0,2.666-.088,3.979-.174,5.729-.35,11.151-1.356,16.048-2.712,16.572-4.547,27.897-13.205,29.515-16.397,2.187-4.373,0-16.747-13.86-34.106-13.817-17.316-53.171-23.481-73.592-10.32-20.42,13.118-24.049,62.66-24.049,71.405Z" style="fill: #fff;"/>
          <path d="M706.651,440.86s6.172,20.537-6.178,32.826c0,0-26.325-44.726-69.776-32.15-25.474,7.373-36.148,40.137-36.148,40.137,0,0,1.93-25.075,19.968-38.681,38.411-28.976,92.134-2.132,92.134-2.132Z" style="fill: #281716;"/>
          <path d="M599.654,487.436c0,8.745,2.929,16.791,7.915,23.262,3.803-1.006,8.439-1.749,13.86-2.317h.044c8.658-1.006,19.153-1.53,30.959-1.662,1.355,0,2.666-.088,3.979-.174,5.729-.35,11.151-1.356,16.048-2.712,2.361-4.984,3.673-10.537,3.673-16.397,0-21.12-17.141-38.261-38.261-38.261s-38.216,17.141-38.216,38.261Z" style="fill: #726e48;"/>
          <path d="M657.686,475.888s5.062-16.706,21.761-11.28c0,0-7.232,14.289-21.761,11.28Z" style="fill: #d1c9c9;"/>
        </g>
      </g>
      <ellipse cx="635.287" cy="481.673" rx="20.461" ry="19.306" style="fill: #3e031e;"/>
      <ellipse cx="415.839" cy="481.673" rx="20.461" ry="19.306" style="fill: #3e031e;"/>
    </g>
    <g id="layer8-Emma-Ogen-Wijd" style="display: none;">
      <g>
        <g>
          <path d="M369.277,399.366s39.542-14.297,87.449-14.912c0,0,12.246-14.758,14.706-32.588,0,0-44.611-1.558-72.552,14.757-27.941,16.315-29.602,32.743-29.602,32.743Z" style="fill: #935b18;"/>
          <path d="M465.513,504.492c-2.767-31.934-10.298-62.856-25.977-70.711-15.678-7.856-69.379-10.787-74.171,20.072-4.793,30.858,10.074,51.254,17.452,56.788,7.378,5.534,46.114,10.145,60.87,8.301,14.756-1.845,16.948,2.719,19.983.413,3.035-2.306,1.844-14.862,1.844-14.862Z" style="fill: #fff;"/>
          <path d="M456.671,459.122s-2.554-25.34-32.397-37.162c-24.814-9.828-65.129,6.009-65.129,6.009,0,0-2.459,15.655,6.221,27.644,0,0,11.554-26.434,49.723-23.979,27.036,1.739,41.583,27.488,41.583,27.488Z" style="fill: #281716;"/>
          <path d="M452.532,480.722c0,16.353-13.257,29.611-29.611,29.611s-29.611-13.257-29.611-29.611,13.257-29.611,29.611-29.611,29.611,13.257,29.611,29.611Z" style="fill: #726e48;"/>
          <path d="M442.041,480.722c0,10.56-8.56,19.12-19.12,19.12s-19.12-8.56-19.12-19.12,8.56-19.12,19.12-19.12,19.12,8.56,19.12,19.12Z" style="fill: #3e031e;"/>
          <path d="M395.615,456.992s14.488,1.647,16.141,15.805c0,0-11.203-1.976-16.141-15.805Z" style="fill: #fff;"/>
        </g>
        <g>
          <path d="M683.362,399.366s-39.542-14.297-87.449-14.912c0,0-12.246-14.758-14.706-32.588,0,0,44.611-1.558,72.552,14.757,27.941,16.315,29.602,32.743,29.602,32.743Z" style="fill: #935b18;"/>
          <path d="M587.126,504.492c2.767-31.934,10.299-62.856,25.977-70.711,15.679-7.856,69.379-10.787,74.171,20.072,4.793,30.858-10.074,51.254-17.452,56.788-7.378,5.534-46.114,10.145-60.87,8.301-14.756-1.845-16.948,2.719-19.983.413-3.035-2.306-1.844-14.862-1.844-14.862Z" style="fill: #fff;"/>
          <path d="M595.969,459.122s2.554-25.34,32.397-37.162c24.814-9.828,65.129,6.009,65.129,6.009,0,0,2.459,15.655-6.221,27.644,0,0-11.554-26.434-49.723-23.979-27.036,1.739-41.583,27.488-41.583,27.488Z" style="fill: #281716;"/>
          <path d="M600.107,480.722c0,16.353,13.257,29.611,29.611,29.611s29.612-13.257,29.612-29.611-13.258-29.611-29.612-29.611-29.611,13.257-29.611,29.611Z" style="fill: #726e48;"/>
          <path d="M610.598,480.722c0,10.56,8.56,19.12,19.12,19.12s19.12-8.56,19.12-19.12-8.56-19.12-19.12-19.12-19.12,8.56-19.12,19.12Z" style="fill: #3e031e;"/>
          <path d="M657.025,456.992s-14.487,1.647-16.141,15.805c0,0,11.203-1.976,16.141-15.805Z" style="fill: #fff;"/>
        </g>
      </g>
    </g>
    <g id="layer7-Emma-Ogen-Dicht" style="display: none;">
      <path d="M460.741,481.244s-16.824-16.686-48.924-16.686c-12.132,0-22.776,1.235-42.382,13.176,0,0,12.283-4.28,40.72-4.28,30.167,0,50.586,7.79,50.586,7.79Z" style="fill: #281716;"/>
      <path d="M591.899,482.625s16.824-16.686,48.924-16.686c12.132,0,22.776,1.235,42.382,13.176,0,0-12.283-4.28-40.72-4.28-30.167,0-50.586,7.79-50.586,7.79Z" style="fill: #281716;"/>
      <path d="M353.461,406.936s36.21-18.158,106.901-21.832c0,0,14.575-13.565,17.855-32.67,0,0-80.801-10.358-124.756,54.502Z" style="fill: #935b18;"/>
      <path d="M699.179,406.936s-36.21-18.158-106.901-21.832c0,0-14.575-13.565-17.854-32.67,0,0,80.801-10.358,124.755,54.502Z" style="fill: #935b18;"/>
    </g>
    <g id="layer6-Emma-Mond-SmalOpen" style="display: none;">
      <g>
        <path d="M469.67,637.715c2.609-.567,29.057-17.559,57.278-17.559s58.323,17.559,58.323,17.559c0,0-26.592,35.164-56.586,35.164s-59.014-35.164-59.014-35.164Z" style="fill: #95344d;"/>
        <path d="M560.477,619.565c-12.668-8.508-25.9-12.478-33.008-12.478s-20.34,3.97-33.008,12.478c-12.668,8.507-27.447,18.149-27.447,18.149,0,0,11.084,0,26.919-6.806s33.536-6.239,33.536-6.239c0,0,17.701-.567,33.535,6.239,15.835,6.806,26.919,6.806,26.919,6.806,0,0-14.78-9.642-27.447-18.149Z" style="fill: #e0223b;"/>
        <path d="M585.27,637.715s-1.355,2.719-21.641,16.684c-20.288,13.965-35.991,14.26-35.991,14.26,0,0-16.039-.295-36.328-14.26-20.288-13.966-21.641-16.684-21.641-16.684,0,0,28.624,60.2,57.632,60.665l-.002.022c.058,0,.113-.01.169-.011.058,0,.113.011.169.011v-.022c29.007-.465,57.632-60.665,57.632-60.665Z" style="fill: #ff524c;"/>
        <path d="M493.934,630.909s17.668,3.025,67.071,0c0,0-17.787-8.507-33.535-8.507s-33.536,8.507-33.536,8.507Z" style="fill: #fff;"/>
        <path d="M531.487,666.657c15.68-1.8,42.183-16.365,35.679-20.139-15.167-8.802-46.863-6.97-63.672,7.882-3.77,3.331,12.313,14.058,27.993,12.257Z" style="fill: #ffc7ac; mix-blend-mode: overlay; opacity: .3;"/>
      </g>
      <path d="M540.732,670.543c-3.781.292,1.559,9.166,7.922,8.379s13.312-8.869,10.65-11.439c-2.662-2.57-14.791,2.768-18.572,3.06Z" style="fill: #ffccb8; mix-blend-mode: soft-light;"/>
    </g>
    <g id="layer5-Emma-Mond-BreedOpen" style="display: none;">
      <g>
        <path d="M528.515,681.979c44.512,0,86.465-58.281,86.465-58.281,0,0-77.703-26.269-172.929,0,0,0,36.136,58.281,86.465,58.281Z" style="fill: #95344d;"/>
        <path d="M468.985,639.557c-5.641,10.53,30.372,39.931,55.575,40.733,25.203.801,61.391-22.265,50.405-32.79-10.986-10.525-100.96-17.315-105.981-7.943Z" style="fill: #ffc7ac; mix-blend-mode: overlay; opacity: .5;"/>
        <path d="M452.022,621.897s5.58,1.8,9.249,3.08c0,0,79.119,5.843,137.942.202l7.521-3.724c-.159-.006-83.948-20.071-154.711.442Z" style="fill: #fff;"/>
        <path d="M573.409,667.083c-3.231,1.342-23.426,11.816-45.317,11.816s-42.085-10.474-45.316-11.816c-3.231-1.342,32.388,22.145,45.316,22.145s48.548-23.487,45.317-22.145Z" style="fill: #fff;"/>
        <path d="M622.657,620.636s-20.404-1.836-30.235-4.25c-9.537-2.342-34.799-10.818-63.907-10.818-25.617,0-54.455,8.06-63.9,10.34-10.959,2.646-30.242,4.728-30.242,4.728l7.677,3.061c80.641-14.926,102.242-10.68,172.929,0l7.677-3.061Z" style="fill: #e0223b;"/>
        <path d="M603.404,636.784c-26.985,29.102-49.211,45.194-74.889,45.194s-48.75-14.676-75.735-43.778c-1.292-1.394,30.58,61.628,75.739,61.628s76.178-64.439,74.885-63.045Z" style="fill: #ff524c;"/>
      </g>
      <path d="M550.158,680.688c-2.988.231,1.232,7.244,6.261,6.622s10.52-7.009,8.417-9.04c-2.104-2.031-11.689,2.187-14.677,2.418Z" style="fill: #ffccb8; mix-blend-mode: soft-light;"/>
    </g>
    <g id="layer4-Emma-Mond-Sip" style="display: none;">
      <g>
        <path d="M527.531,620.569s-38.037,2.39-63.466,36.778c0,0,31.187-18.375,63.8-18.988,32.613-.613,64.468,16.578,64.468,16.578-26.703-33.409-64.803-34.368-64.803-34.368Z" style="fill: #e0223b;"/>
        <path d="M528.594,666.914c25.12-.629,53.313-16.673,53.313-16.673-25.255-13.865-52.065-12.049-54.042-11.894-1.981-.081-28.84-.889-53.557,13.916,0,0,28.776,14.974,53.902,14.658v.014c.064-.001.129-.009.193-.011.064,0,.128.004.192.003v-.014Z" style="fill: #ff524c;"/>
      </g>
      <path d="M540.066,650.226c-3.781.292,1.559,9.166,7.922,8.379s13.312-8.869,10.65-11.439c-2.662-2.57-14.791,2.768-18.572,3.06Z" style="fill: #ffccb8; mix-blend-mode: soft-light;"/>
    </g>
    <g id="layer3-Emma-Mond-Neutraal">
      <g>
        <path d="M560.477,627.657c-12.668-8.508-25.9-5.956-33.008-5.956s-20.34-2.552-33.008,5.956c-12.668,8.507-27.447,14.149-27.447,14.149,0,0,11.084,4,26.919-2.806s33.536.283,33.536.283c0,0,17.701-7.09,33.535-.283,15.835,6.806,26.919,2.806,26.919,2.806,0,0-14.78-5.642-27.447-14.149Z" style="fill: #e0223b;"/>
        <path d="M587.924,641.806s-5.13,2.926-24.296-2.806c-23.597-7.058-35.991.283-35.991.283,0,0-10.286-7.917-33.704-.283-21.641,7.055-26.919,2.806-26.919,2.806,0,0,30.664,27.651,59.672,28.117h0c.058,0-.055,0,0,0,.058,0-.056,0,0,0,29.007-.465,61.238-28.117,61.238-28.117Z" style="fill: #ff524c;"/>
      </g>
      <path d="M540.732,646.731c-3.781.292,1.559,9.166,7.922,8.379s13.312-8.869,10.65-11.439c-2.662-2.57-14.791,2.768-18.572,3.06Z" style="fill: #ffccb8; mix-blend-mode: soft-light;"/>
    </g>
    <g id="layer2-Emma-Mond-Lach" style="display: none;">
      <g>
        <path d="M442.202,604.666s39.892,65.625,86.312,65.625,86.312-65.625,86.312-65.625c0,0-39.332,25.331-86.312,25.331s-86.312-25.331-86.312-25.331Z" style="fill: #95344d;"/>
        <path d="M482.604,640.895c-4.58,5.198,32.129,21.378,44.041,21.741,11.911.362,41.34-13.406,44.041-18.842,2.7-5.435-83.932-7.609-88.082-2.899Z" style="fill: #ffc7ac; mix-blend-mode: overlay; opacity: .3;"/>
        <path d="M588.254,612.68c-26.715,8.117-59.74,5.529-59.74,5.529,0,0-33.025,2.588-59.74-5.529-26.717-8.117-30.994-11.354-30.994-11.354,0,0,40.971,33.765,90.735,33.765s90.734-33.765,90.734-33.765c0,0-4.278,3.237-30.994,11.354Z" style="fill: #e0223b;"/>
        <path d="M528.514,665.172s-45.205-4.16-86.312-60.506c0,0,27.309,81.16,86.312,81.16s86.312-81.16,86.312-81.16c-41.107,56.346-86.312,60.506-86.312,60.506Z" style="fill: #ff524c;"/>
        <path d="M592.562,618.213s-10.044,11.261-26.133,20.088c-10.435,5.826-23.437,10.565-37.915,10.565-15.131,0-28.653-5.218-39.35-11.348v-.044c-15.218-8.696-24.696-19.262-24.696-19.262,9.696,5.043,19.088,8.565,27.523,11.087h.044c21.174,6.217,36.48,5.783,36.48,5.783,0,0,13.652.391,33.002-4.826,9.305-2.478,19.957-6.305,31.045-12.044Z" style="fill: #fff;"/>
        <path d="M464.468,618.213c9.696,5.043,19.088,8.565,27.523,11.087h-.305s-3.609,1.13-2.522,8.174c-15.218-8.696-24.696-19.262-24.696-19.262Z" style="fill: #fff;"/>
        <path d="M592.562,618.213s-10.044,11.261-26.133,20.088c0,0,.303-4.435-4.913-8.044,9.305-2.478,19.957-6.305,31.045-12.044Z" style="fill: #fff;"/>
      </g>
      <path d="M554.57,660.307c-3.781.292,1.559,9.166,7.922,8.379s13.312-8.869,10.65-11.439c-2.662-2.57-14.791,2.768-18.572,3.06Z" style="fill: #ffccb8; mix-blend-mode: soft-light;"/>
    </g>
    <g id="layer1-Emma-Shirt" style="display: none;">
      <path d="M799.219,1024c-30.224-47.601-53.935-83.409-58.553-86.182-10.801-6.471-42.065-32.357-90.644-64.365l-17.666-23.437c-10.931-.744-22.606,4.372-22.606,4.372,0,0-18.321,91.257-83.605,91.257-76.697,0-84.741-96.635-84.741-96.635,0,0-10.057-10.8-13.818-10.67-8.22.219-21.513,19.721-21.513,19.721,0,0-97.947,54.133-105.949,61.566-2.806,2.618-28.54,52.592-56.108,104.372h555.204Z" style="fill: #d1ae8f;"/>
      <path d="M406.053,858.052c2.206,75.786,89.357,141.376,89.357,141.376,0,0-36.501,10.385-67.839-12.571-31.337-22.956-28.341-125.02-28.341-125.02l6.822-3.785Z" style="fill: #aa8366;"/>
      <g>
        <path d="M550.998,940.744c26.5-2.568,80.629-64.114,81.357-90.714.054-1.96-22.592,4.373-22.592,4.373-13.944,65.059-58.766,86.341-58.766,86.341Z" style="fill: #d1d1d1; mix-blend-mode: multiply;"/>
        <path d="M336.051,1141.592" style="fill: url(#_462); mix-blend-mode: multiply; opacity: .5;"/>
        <path d="M427.571,838.326s24.66,95.7,67.839,100.954c0,0-42.974-12.023-54.01-90.28h0s-6.705-8.237-13.828-10.674Z" style="fill: #d1d1d1; mix-blend-mode: multiply;"/>
      </g>
      <path d="M561.169,1024c22.561-10.922,56.385-41.307,95.279-146.244l-6.413-4.305s-43.186,66.218-90.707,106.49c-23.993,20.334-44.576,34.755-59.085,44.059h60.925Z" style="fill: #aa8366;"/>
    </g>
  </g>
</svg>