<?xml version="1.0" encoding="UTF-8"?>
<svg xmlns="http://www.w3.org/2000/svg" version="1.1" xmlns:xlink="http://www.w3.org/1999/xlink" viewBox="0 0 1024 1024">
  <!-- Generator: Adobe Illustrator 29.6.1, SVG Export Plug-In . SVG Version: 2.1.1 Build 9)  -->
  <defs>
    <radialGradient id="GradientFill_11" data-name="GradientFill 11" cx="624.95" cy="5558.907" fx="624.95" fy="5558.907" r="49.83" gradientTransform="translate(0 -2874.25) scale(1 .626)" gradientUnits="userSpaceOnUse">
      <stop offset="0" stop-color="#f6917d"/>
      <stop offset=".624" stop-color="#f58e7a"/>
      <stop offset=".953" stop-color="#f58772"/>
      <stop offset="1" stop-color="#f58671"/>
    </radialGradient>
    <linearGradient id="GradientFill_15" data-name="GradientFill 15" x1="448.462" y1="584.526" x2="448.436" y2="568.512" gradientUnits="userSpaceOnUse">
      <stop offset="0" stop-color="#230037"/>
      <stop offset="1" stop-color="#000"/>
    </linearGradient>
    <linearGradient id="GradientFill_151" data-name="GradientFill 15" x1="610.4" y1="584.526" x2="610.426" y2="568.512" xlink:href="#GradientFill_15"/>
    <linearGradient id="GradientFill_152" data-name="GradientFill 15" x1="448.462" y1="578.607" x2="448.436" y2="562.594" xlink:href="#GradientFill_15"/>
    <linearGradient id="GradientFill_153" data-name="GradientFill 15" x1="571.305" y1="578.607" x2="571.28" y2="562.594" gradientTransform="translate(1181.705) rotate(-180) scale(1 -1)" xlink:href="#GradientFill_15"/>
  </defs>
  <g style="isolation: isolate;">
    <g id="layer10-Clara-Hoofd" style="display: none;">
      <path d="M392.135,820.161s1.258-17.308.908-33.937c-.35-16.629-1.926-34.832-1.926-34.832,0,0,11.903,41.134,1.018,68.769h0ZM454.275,874.424c2.975,1.4,9.102-4.025,10.852-9.626,1.751-5.602,127.607,9.799,127.607,9.799,0,0,1.424,1.575,3.667,3.289h0s33.168-131.742,84.281-133.842c51.112-2.1,23.106-70.017,23.106-70.017l-157.189-15.054-188.412,41.511s114.39,122.976,96.088,173.939h0ZM363.462,842.588c2.976,6.301,4.04,30.897,10.503,25.556,6.463-5.341,3.15-45.861,2.235-67.653-.916-21.792-17.289-82.009-17.289-82.009,0,0,9.627,22.93,12.253,35.359,2.626,12.428,8.577,37.284,10.503,76.143,1.925,38.86-5.777,53.739-9.452,53.564-3.676-.175-4.551-6.477-5.076-14.529-.524-8.053-3.676-26.431-3.676-26.431Z" style="fill: #442927; fill-rule: evenodd;"/>
      <path d="M314.241,624.288s-8.402,41.659,7.702,135.833c16.104,94.173,15.58,81.571,17.504,103.976,1.926,22.406.526,27.483,2.801,27.657,2.275.175,12.253-16.454,15.579-31.508,3.326-15.054,4.376-32.908,4.376-32.908,0,0-.175,26.957-2.625,42.711-2.451,15.753,0,17.504,5.777,12.953,5.776-4.55,13.653-19.429,19.08-33.082,5.426-13.654,7.702-29.758,7.702-29.758,0,0-1.226,25.907-2.977,43.236-1.75,17.329-1.4,22.58,1.576,22.055,2.975-.524,10.152-6.301,16.453-18.379,6.302-12.079,7.702-16.454,7.702-16.454,0,0-2.276,24.157-.35,28.532,1.925,4.376,11.553-1.225,14.703-7.527,3.151-6.302,5.251-13.653,5.251-13.653,0,0,.176,14.529,5.427,15.754,5.251,1.225,6.826-7.702,9.627-8.403,2.801-.7,1.752,7.702,4.727,9.102,2.975,1.4,9.102-4.025,10.852-9.626,1.751-5.602,127.607,9.799,127.607,9.799,0,0,8.228,9.103,16.279,7.352,8.052-1.751,9.803-11.027,11.378-12.603,1.575-1.576.613,10.852,3.151,11.728,2.538.876,5.601-5.339,6.739-5.777,1.137-.437,1.224,2.015,4.288,1.926,3.064-.088,6.389-8.228,7.002-14.091.613-5.864.613-13.391.613-13.391,0,0-.087,18.467,5.339,26.694,5.426,8.228,9.364.176,9.364-4.463s.087-16.279.087-16.279c0,0,1.576,11.815,8.752,16.542,7.177,4.726,8.927,1.838,12.429,5.689,3.501,3.85,4.813,9.278,10.152,9.452,5.339.175,3.326-10.678,2.538-16.367-.787-5.689-.524-12.341-.524-12.341,0,0-.35,12.428,10.065,23.105,10.415,10.678,18.729,10.765,19.43,6.74.7-4.026-4.895-24.944-5.245-30.02-.35-5.076-.871-65.118-1.571-93.475-.701-28.357,13.654-171.19-12.252-227.904-25.906-56.714-361.287-59.514-386.508,87.174Z" style="fill: #422321; fill-rule: evenodd;"/>
      <g>
        <path d="M464.622,769.256s5.182,89.481-6.91,103.992c-2.402,2.883-5.721,5.793-9.775,8.704,18.186,59.476,78.286,99.698,82.327,95.98,0,0,27.293-9.328,52.342-39.04,18.66-22.135,22.087-45.442,26.234-52.896-14.044-11.718-17.466-26.376-18.806-55.588-1.727-37.659-.345-55.969-.345-55.969,0,0-116.429-18.311-125.066-5.183h0Z" style="fill: #f8a794; fill-rule: evenodd;"/>
        <path d="M464.622,769.256s1.636,28.254.925,55.583c5.823,2.375,12.954,5.974,17.731,10.751,9.327,9.329,25.912,49.06,32.13,61.497,6.218,12.437,13.129,17.274,28.33,1.382,14.365-15.019,27.806-28.504,45.567-89.709-.468-23.046.383-34.322.383-34.322,0,0-116.429-18.311-125.066-5.183Z" style="fill: #ed7464; fill-rule: evenodd;"/>
      </g>
      <g>
        <path d="M529.109,806.039c-52.266-2.208-146.403-61.913-176.675-151.646-30.272-89.734-13.249-178.883,11.779-210.538,25.029-31.654,89.81-77.294,174.466-77.294s170.787,66.253,178.148,150.174c7.36,83.92-60.364,270.164-187.718,289.305Z" style="fill: #f8a794; fill-rule: evenodd;"/>
        <path d="M529.109,806.039c91.422-13.74,152.113-113.592,176.361-199.887-14.494-2.208-27.487,7.649-34.677,40.919-23.148,107.101-124.03,152.36-137.503,152.014-13.474-.346-38.813-.716-93.973-52.169-55.16-51.454-80.153-126.448-70.86-173.822-11.102,6.527-20.882,14.491-29.485,23.275,2.511,18.921,6.862,38.459,13.462,58.025,30.272,89.733,124.408,149.437,176.675,151.646Z" style="fill: url(#GradientFill_11); fill-rule: evenodd;"/>
      </g>
      <g>
        <path d="M485.411,655.789c1.95,5.141,4.309,7.593,9.211,8.346,4.902.755,14.993,3.017,24.327,7.355,9.335,4.338,18.009,3.867,26.496-.66,8.486-4.526,8.581-4.149,16.03-4.997,7.449-.848,10.266-6.701,10.266-6.701,0,0-16.207,1.138-17.903.949-1.697-.189-17.632,5.093-22.442,5.375-4.809.282-11.975-1.697-14.615-3.111-2.64-1.415-26.33-1.521-31.37-6.556Z" style="fill: #de6c73; fill-rule: evenodd;"/>
        <path d="M485.274,648.289s-1.695,7.92,2.452,11.22c4.148,3.301,11.976.661,19.424,3.678,7.449,3.016,13.673,5.939,23.762,5.28,10.089-.66,16.501-4.998,21.875-5.375,5.375-.377,13.766,2.451,18.953-3.96,5.186-6.412-.472-14.239-.472-14.239,0,0,3.206,8.865-3.018,12.164-6.223,3.3-14.803-1.509-21.498,0-6.695,1.509-10.75,6.035-19.425,6.411-8.674.377-11.503-6.033-18.386-6.128-6.884-.095-11.975.187-16.973-.472-4.997-.659-5.94-5.563-6.695-8.58Z" style="fill: #c73957; fill-rule: evenodd;"/>
      </g>
      <g>
        <path d="M709.676,852.014s9.278,17.154,16.105,17.154-1.226-31.683-1.751-50.412c-.525-18.729.7-89.447.7-101.35s-25.728,38.859-15.054,134.608Z" style="fill: #442927; fill-rule: evenodd;"/>
        <path d="M531.061,374.114s-4.483,28.069-35.291,53.275c-30.807,25.206-57.764,40.259-71.067,64.415-13.304,24.157-10.937,18.387-16.384,26.727-4.977,7.621-12.198,12.007-12.891-2.843-.726-15.54,4.403-24.716,5.793-27.966,5.97-13.958,19.105-28.301,19.105-28.301,0,0-26.684,26.859-37.283,59.515-10.6,32.656-25.032,78.244-21.53,126.556,3.501,48.312,17.767,93.474,20.48,102.751,2.714,9.278-2.624,8.053-8.314,3.677-5.689-4.377-24.331-35.881-24.331-35.881,0,0,8.752,40.086,19.255,67.217,10.503,27.132,21.004,50.061,15.579,54.788-5.426,4.727-33.782-28.883-46.036-57.415-12.253-28.531-26.782-86.474-28.357-134.436-1.575-47.962,5.426-71.768,5.426-71.768,0,0,.35-17.153.35-28.707s1.225-18.205,1.225-18.205c0,0,3.151-35.184,10.152-60.39,7.002-25.206,20.832-62.667,48.838-94.875,28.007-32.209,60.565-54.088,90.672-66.691,30.107-12.603,46.736-7.002,56.363-.525,9.628,6.477,12.603,13.303,12.603,13.303,0,0,18.38-18.204,41.485-17.854,23.106.35,69.491,22.58,92.422,48.661,22.931,26.081,43.061,51.462,52.338,99.424,9.276,47.962,9.452,61.965,9.452,61.965,0,0,2.976,18.905,3.676,39.385.701,20.48-2.975,47.962-2.975,47.962,0,0-.525,30.457-1.05,54.438-.526,23.981-.349,75.442-14.352,132.857-14.003,57.415-37.284,91.548-46.386,97.85-9.102,6.302-9.278-4.552-5.076-14.354,4.201-9.802,13.306-37.113,11.38-45.865-1.926-8.752-10.348-42.402-8.053-80.87,2.297-38.468,19.43-89.621,19.43-89.621,0,0-10.852,20.304-19.08,28.531-8.227,8.228-8.402,4.377-7.001-7.001,1.4-11.378,13.656-58.99-2.448-115.354-16.104-56.364-47.262-63.715-74.219-94.173-26.956-30.458-47.502-41.373-53.902-90.207Z" style="fill: #754d49; fill-rule: evenodd;"/>
        <path d="M421.127,459.423s24.955-28.36,40.884-40.088c15.929-11.728,25.907-16.279,37.81-25.381,11.903-9.102,19.78-19.78,19.78-19.78,0,0-9.978,18.554-23.806,29.582-13.828,11.028-38.86,23.106-74.667,55.667h0ZM731.918,510.534s-8.906-40.266-24.66-71.074c-15.754-30.807-22.405-40.959-22.405-40.959,0,0,35.465,40.136,47.065,112.033h0ZM728.963,530.834c-9.737-96.53-81.569-157.889-81.569-157.889,0,0,15.053,12.603,46.911,67.566,31.858,54.963,34.658,90.322,34.658,90.322h0ZM732.619,597.882c2.646-95.755-41.516-147.879-63.166-172.466-21.649-24.587-72.122-64.023-72.122-64.023,0,0,6.652,8.053,21.706,23.106,15.054,15.053,56.012,54.963,85.07,99.424,29.057,44.461,28.512,113.96,28.512,113.96h0ZM677.135,822.808s8.941,17.156,15.767,20.306c6.827,3.151,10.678.175,5.252-17.504-5.426-17.679-8.227-42.01-2.276-70.717,5.952-28.707,16.105-68.792,23.107-98.899,7.001-30.107,8.052-85.423-4.55-130.234-12.603-44.811-45.861-84.02-70.017-97.674-24.156-13.653-44.111-26.607-54.613-35.359-10.503-8.752-27.656-29.756-27.656-29.756,0,0,22.404,32.207,41.659,45.16,19.255,12.953,70.131,33.323,93.122,87.872,22.991,54.548,28.357,111.676,13.653,170.14-14.703,58.465-25.906,99.774-23.105,126.731,2.8,26.956,11.568,41.641,7.527,45.336-4.042,3.695-17.87-15.402-17.87-15.402h0ZM688.512,652.317c22.299-46.941,24.869-97.15-6.289-150.364-31.158-53.214-59.865-63.365-84.02-80.519-24.156-17.155-56.014-55.314-56.014-55.314,0,0,21.705,36.759,59.165,65.117,37.459,28.356,72.467,52.863,90.672,115.178,18.204,62.314-3.514,105.903-3.514,105.903h0ZM326.534,494.077s17.855-57.064,40.085-87.522c22.231-30.458,42.011-43.41,42.011-43.41,0,0-70.892,39.733-82.095,130.932h0ZM316.016,574.429s6.492-65.824,33.449-115.535c26.956-49.712,54.263-68.966,54.263-68.966,0,0-82.62,47.962-87.712,184.502,0,0,18.045-82.978,58.655-126.738,40.61-43.761,85.07-66.866,85.07-66.866,0,0-119.028,33.958-143.724,193.604h0ZM350.149,716.041s-17.666-36.769-19.417-93.134c-1.75-56.363,16.454-122.179,55.314-160.338,38.859-38.159,79.615-62.888,95.572-74.918,15.957-12.029,25.207-19.605,25.207-19.605,0,0-32.382,22.58-51.287,34.484-18.905,11.902-60.216,39.909-79.82,64.415-19.605,24.505-37.459,59.34-44.986,97.324-7.527,37.984-9.623,99.074,19.418,151.772Z" style="fill: #6d3e3c; fill-rule: evenodd;"/>
        <path d="M445.295,467.834c-3.895,3.544-7.476,7.154-10.69,10.93-4.999,1.777-12.713,6.659-15.726,4.721-3.676-2.363,6.127-26.08,4.065-25.707-2.062.374-8.529,10.304-10.104,7.591-1.575-2.713,2.538-7.352-.7-7.527-3.239-.175-20.393,16.454-25.294,14.179-4.901-2.276,3.387-13.506,3.387-13.506,0,0-5.925,2.916-16.34,9.305-10.415,6.389-12.69,4.901-10.59-3.239,2.101-8.139,1.225-15.666-3.326-14.703-4.551.963-16.366,19.08-18.204,16.629-1.837-2.451,3.32-20.959,3.32-20.959,0,0-12.597,17.546-13.385,14.569-.253-.953-.117-3.556.181-6.655,4.879-14.801,11.884-32.055,22.007-49.395-1.783,7.605-2.069,13.089.654,10.714,3.413-2.976,14.792-15.141,16.98-14.003,2.188,1.138-3.179,21.714-2.014,22.668,1.166.954,6.564-6.302,8.753-5.252,2.188,1.05-9.19,20.656-5.689,22.669,3.501,2.014,23.893-19.168,25.118-18.117,1.226,1.05-2.188,8.051.438,8.84,2.625.788,18.116-10.328,20.393-8.753,2.276,1.576-4.202,9.715.437,11.378,4.639,1.663,18.03-8.752,20.217-6.302,2.189,2.45-9.977,17.243-8.664,19.956,1.312,2.712,13.217-12.34,13.392-10.853.174,1.487-5.339,14.878-5.077,19.693.261,4.814,3.501,3.939,5.601,4.989,1.222.611,1.141,3.68.859,6.141h0ZM699.556,387.526c4.265,7.002,8.183,14.543,11.659,22.897-1.64-1.937-3.608-4.876-4.651-5.968-1.926-2.013,1.576,9.453,2.1,18.205.525,8.752-2.875,10.469-5.726,8.429-2.851-2.04-9.591-9.567-11.428-8.254-1.838,1.313,4.027,18.554,5.689,28.97,1.663,10.415,1.839,10.939-.437,12.952-2.277,2.014-7.148-6.372-9.366-6.826-2.218-.454,4.551,16.279,5.602,22.493,1.05,6.214-5.164,5.778-8.228,1.751-3.062-4.027-10.853-14.792-15.317-14.091-4.463.7-6.301,7.001-6.564,18.992-.262,11.991,1.839,15.492-2.625,16.63-4.465,1.138-18.381-16.104-23.544-17.067-4.381-.817-4.729,11.971-3.719,21.267-7.45-8.173-15.497-14.744-23.655-21.539-3.419-8.405-7.794-21.052-4.833-24.583,4.55-5.426,20.129,8.753,25.73,9.452,5.602.7,1.05-4.552,4.202-6.478,3.151-1.925,12.077,4.727,14.003,1.751,1.926-2.976-9.452-16.979-5.951-20.13,3.5-3.152,7.001,2.101,9.802.526,2.801-1.576-4.796-10.817-1.926-11.904,2.871-1.087,8.227,1.402,7.002-4.2-1.225-5.602-7.002-17.33-7.002-17.33,0,0,13.654,8.752,19.78,8.928,6.126.176,2.625-7.351.175-13.128-2.451-5.776-3.328-12.111-3.328-12.111,0,0,5.925,5.455,9.542,8.959,3.617,3.503,6.126,4.287,6.563,0,.439-4.288-10.239-25.118-8.139-26.781s8.839,9.278,11.553,9.978c2.714.7,1.662-1.313,2.975-2.1,1.313-.788,4.465,5.601,8.14,4.726,1.381-.33,1.859-2.203,1.919-4.414Z" style="fill: #754d49; fill-rule: evenodd;"/>
      </g>
    </g>
    <g id="layer9-Clara-Ogen-Normaal">
      <g>
        <path d="M400.31,577.21c12.15,25.519,63.603,29.223,83.93,15.184-11.14-44.364-68.377-46.221-83.93-15.184Z" style="fill: #fff; fill-rule: evenodd;"/>
        <path d="M469.374,567.595c-8.803-7.608-20.02-11.319-31.009-11.423-7.52,3.72-12.693,11.468-12.693,20.427,0,12.578,10.198,22.775,22.775,22.775s22.776-10.198,22.776-22.775c0-3.199-.66-6.242-1.85-9.004Z" style="fill: #405e7f; fill-rule: evenodd;"/>
        <path d="M400.31,577.21s10.346-20.523,42.716-19.022c32.37,1.502,41.214,34.206,41.214,34.206,0,0-.083-24.945-26.197-36.375-26.113-11.43-46.302.918-54.312,6.09-8.009,5.173-15.35,5.423-15.35,5.423,0,0,7.675,8.676,11.93,9.677Z" style="fill: #281716; fill-rule: evenodd;"/>
        <path d="M400.31,577.21s10.428,16.435,39.378,20.606c28.95,4.172,44.552-5.422,44.552-5.422,0,0-16.603,13.348-43.55,10.511-26.948-2.836-47.388-17.77-47.388-17.77,0,0,5.089-4.839,7.008-7.925Z" style="fill: #281716; fill-rule: evenodd;"/>
        <path d="M448.449,584.747c4.489,0,8.149-3.66,8.149-8.149s-3.66-8.15-8.149-8.15-8.15,3.661-8.15,8.15,3.661,8.149,8.15,8.149Z" style="fill: url(#GradientFill_15); fill-rule: evenodd;"/>
        <path d="M435.518,578.53c4.303,0,7.812-3.817,7.812-8.496s-3.51-8.497-7.812-8.497-7.812,3.817-7.812,8.497,3.51,8.496,7.812,8.496Z" style="fill: #fff; fill-rule: evenodd;"/>
      </g>
      <g>
        <path d="M658.55,577.21c-12.15,25.519-63.603,29.223-83.93,15.184,11.14-44.364,68.376-46.221,83.93-15.184Z" style="fill: #fff; fill-rule: evenodd;"/>
        <path d="M589.487,567.595c8.802-7.608,20.02-11.319,31.008-11.423,7.52,3.72,12.693,11.468,12.693,20.427,0,12.578-10.198,22.775-22.775,22.775s-22.776-10.198-22.776-22.775c0-3.199.66-6.242,1.85-9.004Z" style="fill: #405e7f; fill-rule: evenodd;"/>
        <path d="M658.55,577.21s-10.345-20.523-42.716-19.022c-32.37,1.502-41.214,34.206-41.214,34.206,0,0,.083-24.945,26.197-36.375,26.113-11.43,46.302.918,54.311,6.09,8.01,5.173,15.352,5.423,15.352,5.423,0,0-7.675,8.676-11.93,9.677Z" style="fill: #281716; fill-rule: evenodd;"/>
        <path d="M658.55,577.21s-10.429,16.435-39.379,20.606c-28.95,4.172-44.551-5.422-44.551-5.422,0,0,16.603,13.348,43.55,10.511,26.948-2.836,47.388-17.77,47.388-17.77,0,0-5.089-4.839-7.008-7.925Z" style="fill: #281716; fill-rule: evenodd;"/>
        <path d="M610.413,584.747c4.489,0,8.149-3.66,8.149-8.149s-3.66-8.15-8.149-8.15-8.15,3.661-8.15,8.15,3.661,8.149,8.15,8.149Z" style="fill: url(#GradientFill_151); fill-rule: evenodd;"/>
        <path d="M597.481,578.53c4.303,0,7.812-3.817,7.812-8.496s-3.509-8.497-7.812-8.497-7.812,3.817-7.812,8.497,3.51,8.496,7.812,8.496Z" style="fill: #fff; fill-rule: evenodd;"/>
      </g>
      <g>
        <path d="M382.483,545.689c-.156-2.965,6.24-10.297,16.381-16.069,10.14-5.773,28.705-13.417,51.795-14.821,23.091-1.403,40.874,3.588,43.527,6.709,2.652,3.121,0,8.425-8.892,8.892-8.893.468-37.287-1.872-49.144-1.092-11.856.781-32.294,6.398-41.03,12.637-8.737,6.24-11.233,5.928-12.637,3.744Z" style="fill: #281716; fill-rule: evenodd;"/>
        <path d="M663.559,545.689c.157-2.965-6.241-10.297-16.381-16.069-10.14-5.773-28.704-13.417-51.795-14.821-23.09-1.403-40.874,3.588-43.526,6.709-2.653,3.121,0,8.425,8.892,8.892,8.893.468,37.287-1.872,49.144-1.092,11.856.781,32.294,6.398,41.03,12.637,8.736,6.24,11.232,5.928,12.636,3.744Z" style="fill: #281716; fill-rule: evenodd;"/>
      </g>
      <path d="M687.491,539.811c-1.872,0-23.515-3.07-31.303-5.017-22.851-5.713-82.346-3.584-104.619,6.665-12.885,5.93-35.942,5.93-48.828,0-22.273-10.249-81.768-12.378-104.619-6.665-7.788,1.947-29.431,5.017-31.303,5.017s-.524,25.762-.524,25.762c0,0,6.291,2.846,8.687,7.189,2.396,4.343,10.934,40.589,13.929,48.228,14.271,36.392,95.763,28.418,108.888,4.044,10.484-19.471,20.444-53.845,20.444-53.845,1.461-4.693,8.912-4.76,8.912-4.76,0,0,7.451.067,8.912,4.76,0,0,9.96,34.374,20.444,53.845,13.125,24.374,94.616,32.348,108.887-4.044,2.996-7.639,11.533-43.885,13.929-48.228,2.396-4.344,8.687-7.189,8.687-7.189,0,0,1.348-25.762-.524-25.762ZM508.782,570.848c-3.226,10.818-7.019,21.803-11.146,32.224-2.369,5.984-4.958,12.066-8.011,17.735-2.527,4.693-10.667,8.481-15.391,10.239-9.55,3.552-20.501,5.256-30.663,5.473-13.648.291-35.005-2.37-43.75-14.38-.974-1.338-1.772-2.781-2.376-4.322-1.042-2.657-1.851-5.838-2.621-8.595-1.332-4.773-2.597-9.567-3.87-14.355-1.32-4.966-2.631-9.939-4.023-14.886-5.01-32.205,16.505-36.924,17.365-37.1,23.735-4.036,73.843-1.68,93.73,6.483,14.105,7.083,10.769,21.421,10.754,21.485ZM666.256,580.141c-1.366,4.855-2.654,9.737-3.949,14.611-1.249,4.7-2.491,9.405-3.799,14.09-.755,2.706-1.549,5.828-2.572,8.437-.593,1.512-1.376,2.929-2.332,4.242-8.583,11.789-29.545,14.4-42.941,14.114-9.974-.213-20.723-1.885-30.096-5.371-4.636-1.725-12.625-5.443-15.106-10.049-2.996-5.564-5.537-11.534-7.863-17.407-4.05-10.229-7.774-21.011-10.94-31.629-.015-.064-3.289-14.137,10.555-21.089,19.52-8.012,68.702-10.325,91.998-6.363.844.172,21.961,4.805,17.044,36.414Z" style="fill-rule: evenodd;"/>
    </g>
    <g id="layer8-Clara-Ogen-Wijd" style="display: none;">
      <g>
        <path d="M400.31,577.21c12.15,25.519,63.603,29.223,83.93,15.184-3.431-52.011-63.503-79.273-83.93-15.184Z" style="fill: #fff; fill-rule: evenodd;"/>
        <path d="M462.404,555.619c-3.92-2.49-4.734-3.211-9.106-4.449-13.315-3.769-28.573,7.425-27.563,21.226.03.408.07.818.122,1.229,1.293,10.312,9.666,18.545,19.996,19.687,13.741,1.518,25.371-9.199,25.371-22.632,0-.032,0-.064,0-.096-.021-5.207-4.424-12.173-8.819-14.966Z" style="fill: #405e7f; fill-rule: evenodd;"/>
        <path d="M400.31,577.21s10.346-37.66,42.716-36.159c32.37,1.502,41.214,51.343,41.214,51.343,0,0-.083-42.082-26.197-53.512-26.113-11.43-46.302.918-54.312,6.09-8.009,5.173-15.35,5.423-15.35,5.423,0,0,7.675,25.813,11.93,26.814Z" style="fill: #55163a; fill-rule: evenodd;"/>
        <path d="M400.31,577.21s10.428,16.435,39.378,20.606c28.95,4.172,44.552-5.422,44.552-5.422,0,0-16.603,13.348-43.55,10.511-26.948-2.836-47.388-17.77-47.388-17.77,0,0,5.089-4.839,7.008-7.925Z" style="fill: #55163a; fill-rule: evenodd;"/>
        <path d="M448.449,578.829c4.489,0,8.149-3.66,8.149-8.149s-3.66-8.15-8.149-8.15-8.15,3.661-8.15,8.15,3.661,8.149,8.15,8.149Z" style="fill: url(#GradientFill_152); fill-rule: evenodd;"/>
        <path d="M435.518,572.612c4.303,0,7.812-3.817,7.812-8.496s-3.51-8.497-7.812-8.497-7.812,3.817-7.812,8.497,3.51,8.496,7.812,8.496Z" style="fill: #fff; fill-rule: evenodd;"/>
      </g>
      <g>
        <path d="M658.551,577.21c-12.15,25.519-63.603,29.223-83.93,15.184,3.431-52.011,63.503-79.273,83.93-15.184Z" style="fill: #fff; fill-rule: evenodd;"/>
        <path d="M596.457,555.619c3.92-2.49,4.734-3.211,9.106-4.449,13.315-3.769,28.573,7.425,27.563,21.226-.03.408-.07.818-.122,1.229-1.293,10.312-9.666,18.545-19.996,19.687-13.741,1.518-25.371-9.199-25.371-22.632,0-.032,0-.064,0-.096.021-5.207,4.424-12.173,8.819-14.966Z" style="fill: #405e7f; fill-rule: evenodd;"/>
        <path d="M658.551,577.21s-10.346-37.66-42.716-36.159c-32.37,1.502-41.214,51.343-41.214,51.343,0,0,.083-42.082,26.197-53.512,26.113-11.43,46.302.918,54.312,6.09,8.009,5.173,15.35,5.423,15.35,5.423,0,0-7.675,25.813-11.93,26.814Z" style="fill: #55163a; fill-rule: evenodd;"/>
        <path d="M658.551,577.21s-10.428,16.435-39.378,20.606c-28.95,4.172-44.552-5.422-44.552-5.422,0,0,16.603,13.348,43.55,10.511,26.948-2.836,47.388-17.77,47.388-17.77,0,0-5.089-4.839-7.008-7.925Z" style="fill: #55163a; fill-rule: evenodd;"/>
        <path d="M610.412,578.829c-4.489,0-8.149-3.66-8.149-8.149s3.66-8.15,8.149-8.15,8.15,3.661,8.15,8.15-3.661,8.149-8.15,8.149Z" style="fill: url(#GradientFill_153); fill-rule: evenodd;"/>
        <path d="M623.343,572.612c-4.303,0-7.812-3.817-7.812-8.496,0-4.679,3.51-8.497,7.812-8.497s7.812,3.817,7.812,8.497c0,4.679-3.51,8.496-7.812,8.496Z" style="fill: #fff; fill-rule: evenodd;"/>
      </g>
      <g>
        <path d="M382.483,526.922c-.156-2.965,6.24-10.297,16.381-16.069,10.14-5.773,28.705-13.417,51.795-14.821,23.091-1.403,40.874,3.588,43.527,6.709,2.652,3.121,0,8.425-8.892,8.892-8.893.468-37.287-1.872-49.144-1.092-11.856.781-32.294,6.398-41.03,12.637-8.737,6.24-11.233,5.928-12.637,3.744Z" style="fill: #281716; fill-rule: evenodd;"/>
        <path d="M663.559,526.922c.157-2.965-6.241-10.297-16.381-16.069-10.14-5.773-28.704-13.417-51.795-14.821-23.09-1.403-40.874,3.588-43.526,6.709-2.653,3.121,0,8.425,8.892,8.892,8.893.468,37.287-1.872,49.144-1.092,11.856.781,32.294,6.398,41.03,12.637,8.736,6.24,11.232,5.928,12.636,3.744Z" style="fill: #281716; fill-rule: evenodd;"/>
      </g>
      <path d="M687.491,539.811c-1.872,0-23.515-3.07-31.303-5.017-22.851-5.713-82.346-3.584-104.619,6.665-12.885,5.93-35.942,5.93-48.828,0-22.273-10.249-81.768-12.378-104.619-6.665-7.788,1.947-29.431,5.017-31.303,5.017s-.524,25.762-.524,25.762c0,0,6.291,2.846,8.687,7.189,2.396,4.343,10.934,40.589,13.929,48.228,14.271,36.392,95.763,28.418,108.888,4.044,10.484-19.471,20.444-53.845,20.444-53.845,1.461-4.693,8.912-4.76,8.912-4.76,0,0,7.451.067,8.912,4.76,0,0,9.96,34.374,20.444,53.845,13.125,24.374,94.616,32.348,108.887-4.044,2.996-7.639,11.533-43.885,13.929-48.228,2.396-4.344,8.687-7.189,8.687-7.189,0,0,1.348-25.762-.524-25.762ZM508.782,570.848c-3.226,10.818-7.019,21.803-11.146,32.224-2.369,5.984-4.958,12.066-8.011,17.735-2.527,4.693-10.667,8.481-15.391,10.239-9.55,3.552-20.501,5.256-30.663,5.473-13.648.291-35.005-2.37-43.75-14.38-.974-1.338-1.772-2.781-2.376-4.322-1.042-2.657-1.851-5.838-2.621-8.595-1.332-4.773-2.597-9.567-3.87-14.355-1.32-4.966-2.631-9.939-4.023-14.886-5.01-32.205,16.505-36.924,17.365-37.1,23.735-4.036,73.843-1.68,93.73,6.483,14.105,7.083,10.769,21.421,10.754,21.485ZM666.256,580.141c-1.366,4.855-2.654,9.737-3.949,14.611-1.249,4.7-2.491,9.405-3.799,14.09-.755,2.706-1.549,5.828-2.572,8.437-.593,1.512-1.376,2.929-2.332,4.242-8.583,11.789-29.545,14.4-42.941,14.114-9.974-.213-20.723-1.885-30.096-5.371-4.636-1.725-12.625-5.443-15.106-10.049-2.996-5.564-5.537-11.534-7.863-17.407-4.05-10.229-7.774-21.011-10.94-31.629-.015-.064-3.289-14.137,10.555-21.089,19.52-8.012,68.702-10.325,91.998-6.363.844.172,21.961,4.805,17.044,36.414Z" style="fill-rule: evenodd;"/>
    </g>
    <g id="layer7-Clara-Ogen-Dicht" style="display: none;">
      <path d="M485.545,591.731s-16.545-24.876-48.112-24.876c-11.931,0-22.398,1.842-41.678,19.644,0,0,12.079-6.382,40.044-6.382,29.666,0,49.747,11.614,49.747,11.614Z" style="fill: #55163a;"/>
      <path d="M573.667,594.013s16.545-24.876,48.112-24.876c11.931,0,22.398,1.842,41.678,19.644,0,0-12.079-6.382-40.044-6.382-29.666,0-49.747,11.614-49.747,11.614Z" style="fill: #55163a;"/>
      <g>
        <path d="M382.483,545.689c-.156-2.965,6.24-10.297,16.381-16.069,10.14-5.773,28.705-13.417,51.795-14.821,23.091-1.403,40.874,3.588,43.527,6.709,2.652,3.121,0,8.425-8.892,8.892-8.893.468-37.287-1.872-49.144-1.092-11.856.781-32.294,6.398-41.03,12.637-8.737,6.24-11.233,5.928-12.637,3.744Z" style="fill: #281716; fill-rule: evenodd;"/>
        <path d="M663.559,545.689c.157-2.965-6.241-10.297-16.381-16.069-10.14-5.773-28.704-13.417-51.795-14.821-23.09-1.403-40.874,3.588-43.526,6.709-2.653,3.121,0,8.425,8.892,8.892,8.893.468,37.287-1.872,49.144-1.092,11.856.781,32.294,6.398,41.03,12.637,8.736,6.24,11.232,5.928,12.636,3.744Z" style="fill: #281716; fill-rule: evenodd;"/>
      </g>
      <path d="M687.491,539.811c-1.872,0-23.515-3.07-31.303-5.017-22.851-5.713-82.346-3.584-104.619,6.665-12.885,5.93-35.942,5.93-48.828,0-22.273-10.249-81.768-12.378-104.619-6.665-7.788,1.947-29.431,5.017-31.303,5.017s-.524,25.762-.524,25.762c0,0,6.291,2.846,8.687,7.189,2.396,4.343,10.934,40.589,13.929,48.228,14.271,36.392,95.763,28.418,108.888,4.044,10.484-19.471,20.444-53.845,20.444-53.845,1.461-4.693,8.912-4.76,8.912-4.76,0,0,7.451.067,8.912,4.76,0,0,9.96,34.374,20.444,53.845,13.125,24.374,94.616,32.348,108.887-4.044,2.996-7.639,11.533-43.885,13.929-48.228,2.396-4.344,8.687-7.189,8.687-7.189,0,0,1.348-25.762-.524-25.762ZM508.782,570.848c-3.226,10.818-7.019,21.803-11.146,32.224-2.369,5.984-4.958,12.066-8.011,17.735-2.527,4.693-10.667,8.481-15.391,10.239-9.55,3.552-20.501,5.256-30.663,5.473-13.648.291-35.005-2.37-43.75-14.38-.974-1.338-1.772-2.781-2.376-4.322-1.042-2.657-1.851-5.838-2.621-8.595-1.332-4.773-2.597-9.567-3.87-14.355-1.32-4.966-2.631-9.939-4.023-14.886-5.01-32.205,16.505-36.924,17.365-37.1,23.735-4.036,73.843-1.68,93.73,6.483,14.105,7.083,10.769,21.421,10.754,21.485ZM666.256,580.141c-1.366,4.855-2.654,9.737-3.949,14.611-1.249,4.7-2.491,9.405-3.799,14.09-.755,2.706-1.549,5.828-2.572,8.437-.593,1.512-1.376,2.929-2.332,4.242-8.583,11.789-29.545,14.4-42.941,14.114-9.974-.213-20.723-1.885-30.096-5.371-4.636-1.725-12.625-5.443-15.106-10.049-2.996-5.564-5.537-11.534-7.863-17.407-4.05-10.229-7.774-21.011-10.94-31.629-.015-.064-3.289-14.137,10.555-21.089,19.52-8.012,68.702-10.325,91.998-6.363.844.172,21.961,4.805,17.044,36.414Z" style="fill-rule: evenodd;"/>
    </g>
    <g id="layer6-Clara-Mond-SmalOpen" style="display: none;">
      <g>
        <path d="M569.752,721.553c.028.385-.283,1.723-.99,3.673-3.338,9.16-25.563,23.995-54.275,20.844-28.174-3.106-28.25-18.894-30.089-24.041-.056-.159-.113-.317-.17-.431,7.119-19.853,15.031-27.045,41.678-28.565,26.647-1.519,43.704,26.275,43.846,28.519Z" style="fill: #6d2549;"/>
        <path d="M503.067,738.131s3.219-13.474,22.727-13.501c19.508-.027,27.039,13.841,27.039,13.841,0,0-10.875,8.728-26.986,8.932-16.111.204-22.78-9.272-22.78-9.272Z" style="fill: #ff3d73; opacity: .2;"/>
        <path d="M569.752,721.553c.028.385-9.833,9.743-10.54,11.693-.644-8.504-8.234-17.226-33.365-16.476-25.132.75-31.252,12.566-31.781,17.468-.056-.158-9.782-12.526-9.838-12.64,6.761-19.782,14.459-26.688,41.106-28.207,26.647-1.519,44.277,25.917,44.418,28.161Z" style="fill: #6d2549; mix-blend-mode: multiply; opacity: .5;"/>
        <path d="M502.16,709.435c15.906,1.006,30.545,1.127,47.053-.508,0,0-8.791-12.563-26.125-11.695-17.334.868-20.928,12.202-20.928,12.202Z" style="fill: #fff;"/>
        <path d="M483.403,721.631s5.539,30.033,43.255,30.033,43.568-30.117,43.568-30.117c-.776-.182-12.539-2.467-13.724.885-1.184,3.352-17.647,10.472-30.817,10.472s-30.296-8.97-30.261-11.194c.027-1.7-6.972-2.062-10.29-1.566-1.023.153-1.732,1.487-1.732,1.487Z" style="fill: #ff3d73;"/>
        <path d="M570.214,721.547c-.305.162-11.613-2.339-13.711.884-1.193-.616-9.456-23.156-31.447-23.156s-27.842,21.325-29.631,22.434c-6.93-2.973-11.516-.43-12.027-.071,0,0,6.307-22.715,26.411-31.316,4.006-1.714,15.301.02,15.301.02,0,0,11.045-1.621,15.292-.165,23.681,8.12,29.812,31.369,29.812,31.369Z" style="fill: #cc275a;"/>
        <path d="M546.014,731.86c-14.062,4.158-4.751,17.4,4.419,9.389,9.17-8.011,9.643-13.547-4.419-9.389Z" style="fill: #ff6997;"/>
        <path d="M526.341,751.567c14.506.097,23.953-5.065,23.953-5.065,0,0-8.543,12.686-23.992,13.136-15.448.45-23.827-13.44-23.827-13.44,0,0,9.36,5.272,23.866,5.368Z" style="fill: #d077b7; mix-blend-mode: multiply; opacity: .6;"/>
      </g>
    </g>
    <g id="layer5-Clara-Mond-BreedOpen" style="display: none;">
      <g>
        <path d="M587.537,701.816l-60.836,7.706-60.838-7.706s25.627,39.903,58.913,39.903,62.76-39.903,62.76-39.903Z" style="fill: #6d2549;"/>
        <path d="M494.751,732.427c-.777-5.159,2.696-14.083,29.217-14.083s34.718,8.13,35.147,11.993c.715,6.438-12.736,10.405-12.736,10.405-24.149,13.025-50.451-.499-51.628-8.315Z" style="fill: #bf273f;"/>
        <path d="M493.081,725.632s17.98.629,32.372.53c14.391-.099,31.958-.414,32.365,1.186.407,1.6-17.728,10.558-32.569,11.956-14.841,1.397-32.167-13.672-32.167-13.672Z" style="fill: #fff;"/>
        <path d="M587.537,701.816c-2.938,2.716-16.747,48.69-61.725,48.69s-57.591-46.521-59.948-48.69c0,0,1.301.579,1.382.687,4.488,6.421,24.798,28.477,57.929,28.477,32.464,0,54.895-21.048,60.49-28.14l1.873-1.024Z" style="fill: #ff3d73;"/>
        <path d="M587.537,701.816l-.017.017c-.393.171-6.763,3.057-18.138,4.253-10.009,1.059-37.694,3.109-42.083,3.433l-.598.034-.222-.017c-2.869-.205-32.109-2.357-42.442-3.45-11.392-1.195-17.763-4.082-18.155-4.253l-.017-.017s26.454-5.283,36.53-5.334c8.574-.051,20.054,3.221,23.504,4.433,3.45-1.212,15.388-4.573,23.962-4.522,10.094.051,37.677,5.423,37.677,5.423Z" style="fill: #cc275a;"/>
        <path d="M580.072,704.438c-.974,1-29.066,12.205-53.371,12.205s-48.698-10.089-50.356-11.807c12.256,1.405,31.146,4.742,50.356,4.685,19.437-.058,39.207-3.526,53.371-5.083Z" style="fill: #fff;"/>
        <path d="M591.4,698.213c-2.248,2.289-6.253,5.412-22.962,7.489-15.341,1.908-38.111,2.824-41.737,2.961-3.626-.137-26.396-1.054-41.737-2.961-16.708-2.077-20.713-5.2-22.962-7.489-1.918-1.953-3.189,1.921-.675,2.817,1.665.593,10.761,3.736,23.056,5.441,11.346,1.573,42.155,3.895,42.318,3.883.164.012,30.973-2.31,42.318-3.883,12.294-1.705,21.391-4.847,23.056-5.441,2.513-.896,1.243-4.77-.675-2.817Z" style="fill: #6d2549;"/>
        <path d="M541.147,731.491c-3.948.305,1.627,9.571,8.271,8.749,6.644-.822,13.899-9.26,11.12-11.943-2.779-2.684-15.443,2.89-19.391,3.195Z" style="fill: #ffccb8; mix-blend-mode: soft-light;"/>
        <path d="M475.91,721.305s14.98,22.453,49.648,22.453,50.502-21.474,50.502-21.474c0,0-21.392,35.679-50.607,35.679s-49.543-36.658-49.543-36.658Z" style="fill: #d077b7; mix-blend-mode: multiply; opacity: .6;"/>
      </g>
    </g>
    <g id="layer4-Clara-Mond-Sip" style="display: none;">
      <g>
        <path d="M473.043,717.531s17.863,12.833,52.642,12.833,52.642-11.678,52.642-11.678c0,0-31.568,24.511-52.642,24.511s-52.642-25.666-52.642-25.666Z" style="fill: #d077b7; mix-blend-mode: multiply; opacity: .6;"/>
        <path d="M465.457,719.934c2.613-2.416,7.613-18.212,41.368-21.944,4.31-.477,14.578,4.117,19.664,4.117,5.927,0,17.72-5.363,22.597-4.713,32.077,4.275,36.382,20.652,38.435,22.541l-61.031-5.62-61.031,5.62Z" style="fill: #ff3d73;"/>
        <path d="M465.457,719.934l.017-.017c.394-.171,6.785-3.067,18.196-4.266,5.032-.533,23.92-2.056,42.817-2.059,18.811-.003,37.631,1.512,42.802,2.059,11.428,1.199,17.819,4.095,18.213,4.266l.017.017s-26.426,6.267-36.392,7.96c-4.45.756-10.564,1.874-16.766,2.809-5.768.869-11.989.93-17.803.455-5.206-.425-11.55-1.042-15.955-1.796-9.981-1.709-35.146-9.427-35.146-9.427Z" style="fill: #cc275a;"/>
        <path d="M461.581,723.548c2.256-2.297,6.273-5.43,23.035-7.513,15.39-1.913,38.233-1.438,41.871-1.575,3.638.138,26.48-.338,41.871,1.575,16.762,2.084,20.779,5.217,23.035,7.513,1.924,1.959,3.199-1.928.677-2.826-1.67-.595-10.796-3.748-23.13-5.458-11.382-1.578-42.29-2.513-42.454-2.501-.164-.012-31.072.923-42.454,2.501-12.334,1.71-21.459,4.863-23.129,5.458-2.521.898-1.247,4.785.677,2.826Z" style="fill: #6d2549;"/>
        <path d="M535.898,716.113c-3.961.306,3.739,11.028,10.404,10.203,6.665-.825,14.628-4.015,18.623-6.969,3.995-2.953-25.066-3.54-29.027-3.235Z" style="fill: #ffccb8; mix-blend-mode: soft-light;"/>
      </g>
    </g>
    <g id="layer3-Clara-Mond-Neutraal" style="display: none;">
      <g>
        <path d="M583.921,710.58c-2.758,2.55-5.243,5.195-7.697,7.809-10.872,11.577-21.367,24.682-49.732,24.682-29.488,0-39.02-14.003-50.389-26.061l-.176-.176c-1.988-2.1-4.025-4.217-6.237-6.254l57.116,5.26,57.116-5.26Z" style="fill: #ff3d73;"/>
        <path d="M568.908,714.543l-42.101,3.272-42.101-3.272s16.817,8.522,41.791,8.522,42.412-8.522,42.412-8.522Z" style="fill: #6d2549;"/>
        <path d="M583.921,710.58l-.016.016c-.369.161-6.35,2.87-17.029,3.993-9.396.994-35.389,2.918-39.51,3.223l-.561.032-.208-.016c-2.694-.192-30.146-2.213-39.847-3.239-10.695-1.122-16.676-3.832-17.045-3.993l-.016-.016s25.03-9.552,34.491-9.6c8.05-.048,19.386,3.752,22.625,4.89,3.239-1.138,14.576-4.939,22.625-4.89,9.477.048,34.491,9.6,34.491,9.6Z" style="fill: #cc275a;"/>
        <path d="M564.355,714.859c-.915.939-13.986,6.476-36.805,6.476s-33.638-4.522-35.195-6.135c23.15,2.653,45.56,2.566,71.999-.341Z" style="fill: #fff;"/>
        <path d="M587.548,707.198c-2.111,2.149-5.871,5.081-21.557,7.031-14.403,1.791-35.781,2.651-39.185,2.78-3.404-.129-24.782-.989-39.185-2.78-15.686-1.95-19.446-4.882-21.557-7.031-1.801-1.833-2.994,1.804-.634,2.645,1.563.557,10.103,3.508,21.646,5.108,10.652,1.477,39.577,3.657,39.73,3.646.154.011,29.078-2.169,39.73-3.646,11.542-1.6,20.083-4.551,21.646-5.108,2.36-.841,1.167-4.478-.634-2.645Z" style="fill: #6d2549;"/>
        <path d="M536.28,724.78c-3.707.286,3.499,10.32,9.736,9.549,6.238-.772,2.39-.729,10.44-3.758,8.05-3.029-16.47-6.077-20.176-5.791Z" style="fill: #ffccb8; mix-blend-mode: soft-light;"/>
        <path d="M479.295,720.406s13.762,17.736,46.31,17.736,48.713-17.736,48.713-17.736c0,0-11.992,27.876-48.401,27.876s-46.621-27.876-46.621-27.876Z" style="fill: #d077b7; mix-blend-mode: multiply; opacity: .6;"/>
      </g>
    </g>
    <g id="layer2-Clara-Mond-Lach" style="display: none;">
      <g>
        <path d="M585.072,708.937l-58.266,7.38-58.268-7.38s24.71,43.758,56.591,43.758,59.944-43.758,59.944-43.758Z" style="fill: #6d2549;"/>
        <path d="M574.557,711.449c-2.09,1.606-7.211,17.053-6.446,20.996l-42.265,19.887-41.05-20.441c.03-3.172-3.421-19.45-6.22-20.06,11.739,1.345,29.83,4.541,48.229,4.487,18.616-.055,34.186-3.377,47.751-4.869Z" style="fill: #fff;"/>
        <path d="M571.297,718.012c-.32.919-.653,1.878-.972,2.863-5.234,2.424-17.807,6.58-44.698,6.58-23.268,0-38.732-4.981-42.861-6.473-.213-.839-.453-1.665-.693-2.451,8.871,4.195,22.975,8.178,44.499,8.178,21.257,0,37.333-5.634,44.725-8.697Z" style="fill: #adadad; mix-blend-mode: multiply; opacity: .6;"/>
        <path d="M585.072,708.937c-2.814,2.601-15.874,52.174-58.953,52.174s-55.324-50.097-57.582-52.174c0,0,1.246.554,1.323.658,4.299,6.15,23.916,32.814,55.648,32.814,31.093,0,52.411-25.699,57.77-32.491l1.794-.981Z" style="fill: #ff3d73;"/>
        <path d="M585.072,708.937l-.016.016c-.376.164-6.478,2.928-17.372,4.073-9.586,1.014-36.102,2.977-40.306,3.288l-.572.033-.213-.016c-2.748-.196-30.753-2.257-40.65-3.304-10.911-1.145-17.012-3.909-17.389-4.073l-.016-.016s26.105-9.002,35.756-9.051c8.212-.049,19.207,3.084,22.511,4.246,3.304-1.161,14.738-4.38,22.95-4.331,9.668.049,35.318,9.136,35.318,9.136Z" style="fill: #cc275a;"/>
        <path d="M588.772,705.487c-2.154,2.193-5.989,5.184-21.992,7.173-14.693,1.827-36.502,2.705-39.974,2.836-3.473-.132-25.281-1.009-39.974-2.836-16.003-1.989-19.838-4.98-21.992-7.173-1.837-1.87-3.054,1.84-.647,2.698,1.595.568,10.307,3.578,22.082,5.211,10.866,1.507,40.374,3.731,40.531,3.719.157.012,29.665-2.213,40.531-3.719,11.775-1.633,20.487-4.643,22.082-5.211,2.407-.858,1.19-4.568-.647-2.698Z" style="fill: #6d2549;"/>
        <path d="M540.807,742.899c-3.781.292,1.559,9.166,7.922,8.379s13.312-8.869,10.65-11.439c-2.662-2.57-14.791,2.768-18.572,3.06Z" style="fill: #ffccb8; mix-blend-mode: soft-light;"/>
        <path d="M480.117,732.033s12.555,22.614,45.758,22.614,47.336-23.23,47.336-23.23c0,0-14.493,31.156-47.314,31.156s-45.78-30.541-45.78-30.541Z" style="fill: #d077b7; mix-blend-mode: multiply; opacity: .6;"/>
      </g>
    </g>
    <g id="layer1-Clara-Shirt" style="display: none;">
      <g>
        <path d="M786.617,927.381s-12.763,44.962-26.68,96.619h61.713c-8.624-87.036-35.033-96.619-35.033-96.619Z" style="fill: #2e4ca2;"/>
        <path d="M262.379,927.38s-26.408,9.586-35.031,96.62h61.712c-13.917-51.658-26.682-96.62-26.682-96.62Z" style="fill: #2e4ca2;"/>
        <path d="M784.732,927.38s-140.078-75.029-265.988-75.029-256.365,75.029-256.365,75.029c0,0,9.34,40.22,22.014,96.62h482.289c10.455-49.746,18.05-96.62,18.05-96.62Z" style="fill: #f9c138;"/>
        <path d="M441.016,860.695s-.031,0-.084.01c-.251-3.287.084-.01.084-.01Z" style="fill: none; stroke: #fffbf3; stroke-miterlimit: 10; stroke-width: 3.152px;"/>
        <path d="M452.177,987.081c-8.628-95.467-10.806-120.711-11.245-126.376-1.277.095-16.909,1.477-43.252,8.544-2.063.555-4.188,1.141-6.387,1.77-31.505,9.004-76.192,25.683-128.91,56.361,0,0,8.696,40.339,20.566,96.619h173.859c-1.935-12.192-3.508-24.505-4.631-36.919Z" style="fill: #254383;"/>
        <path d="M440.016,865.36l1.003-47.762s35.22,9.624,86.011,9.624,81.267-9.624,81.267-9.624v47.762l-84.141,39.119-84.141-39.119Z" style="fill: #eab737;"/>
        <path d="M452.177,987.081c-8.628-95.467-10.806-120.711-11.245-126.376.084-3.475,1.445-14.595.084-43.106-10.156,18.533-26.416,36.353-43.336,51.65-24.763,22.375-50.938,39.327-61.523,45.116l41.703,25.663s-39.023,5.35-60.413-2.671c0,0,4.222,34.542,20.422,86.642h118.94c-1.935-12.192-3.508-24.505-4.631-36.919Z" style="fill: #2e4ca2;"/>
        <g>
          <path d="M786.833,927.381c-52.718-30.679-97.404-47.357-128.91-56.361-30.196-8.617-48.257-10.208-49.639-10.314-.44,5.665-2.618,30.909-11.245,126.376-1.122,12.414-2.694,24.727-4.627,36.919h176.539c11.87-56.28,17.883-96.619,17.883-96.619Z" style="fill: #254383;"/>
          <path d="M731.771,937.358c-21.391,8.02-60.413,2.671-60.413,2.671l41.703-25.663c-17.831-9.747-79.845-51.144-104.863-96.767-1.359,28.515.087,40.032.087,43.108-.44,5.665-2.618,30.909-11.245,126.376-1.122,12.414-2.694,24.727-4.627,36.919h118.937c16.2-52.099,20.422-86.642,20.422-86.642Z" style="fill: #2e4ca2;"/>
        </g>
      </g>
    </g>
  </g>
</svg>