<?xml version="1.0" encoding="UTF-8"?>
<svg xmlns="http://www.w3.org/2000/svg" version="1.1" viewBox="0 0 1024 1024">
  <!-- Generator: Adobe Illustrator 29.6.1, SVG Export Plug-In . SVG Version: 2.1.1 Build 9)  -->
  <g style="isolation: isolate;">
    <g id="layer10-Sofia-Hoofd" style="display: none;">
      <g>
        <path d="M395.409,865.677h291.141s128.047-570.669-160.606-570.669-165.836,570.669-165.836,570.669h35.301Z"/>
        <path d="M457.648,718.433c9.674.528,2.942,109.226,2.942,109.226,2.816,8.021,13.951,36.722,41.76,50.38,7.738,3.801,27.335,13.426,48.723,2.8,29.449-14.63,34.929-53.833,35.43-57.818-2.908-17.457-5.195-37.927-5.281-59.997-.075-19.083,1.523-35.039,3.55-47.714l-127.124,3.122Z" style="fill: #a56d44;"/>
        <path d="M462.959,753.485c9.202,24.159,22.484,38.453,30.7,45.855,9.132,8.226,17.125,15.224,28.716,15.762,16.559.768,28.379-12.185,36.283-20.836,15.308-16.757,20.786-36.166,22.909-47.428.419-4.19.835-8.333,1.25-12.428.656-6.482,1.308-12.848,1.955-19.099,0,0-91.437,6.628-127.124,3.122,0,0,5.395,18.677,5.311,35.052Z" style="fill: #965e38;"/>
      </g>
      <g>
        <path d="M718.987,408.593c-16.969-53.056-65.177-88.195-74.984-95.323-2.531-1.84-6.356-4.609-11.813-7.967-7.481-4.609-14.944-8.45-22.276-11.647-5.156-2.233-10.238-4.18-15.207-5.824-2.1-.714-4.163-1.376-6.207-1.983-19.801-5.913-37.276-7.753-49.07-8.914-2.606-.25-9.057-.804-18.263-1.018v-.268c-.59.034-1.154.063-1.724.094-.57-.03-1.134-.06-1.724-.094v.268c-9.207.214-15.657.768-18.263,1.018-11.794,1.161-29.27,3.001-49.07,8.914-2.044.607-4.106,1.268-6.206,1.983-4.969,1.644-10.05,3.591-15.207,5.824-7.332,3.198-14.794,7.039-22.276,11.647-5.457,3.359-9.282,6.128-11.813,7.967-9.807,7.128-58.014,42.266-74.984,95.323-18.282,57.147,2.494,112.419,11.363,134.981,9.094,23.206,17.569,33.388,23.738,61.47,1.856,8.45,2.756,15.095,3.188,20.704.375,5.073.619,9.504.788,13.345.319,7.431.356,15.042.356,15.345,0,.161,0,.411.019.715.487,7.628,7.706,30.565,26.513,51.484,0,0,22.426,24.956,56.758,36.032.694.232,1.369.429,1.369.429,1.556.464,2.475.679,6.525,1.929,2.306.714,4.875,1.554,7.782,2.537,8.4,2.912,19.557,7.217,35.195,14.113,6.796,2.994,15.049,6.704,25.573,8.127v.116c.129-.016.248-.042.376-.058.129.017.248.042.377.058v-.116c10.524-1.423,18.778-5.133,25.573-8.127,15.638-6.895,26.794-11.201,35.195-14.113,2.906-.982,5.475-1.822,7.781-2.537,4.05-1.251,4.969-1.465,6.525-1.929,0,0,.675-.197,1.369-.429,34.332-11.076,56.758-36.032,56.758-36.032,18.807-20.919,26.026-43.856,26.513-51.484.019-.304.019-.554.019-.715,0-.303.038-7.914.356-15.345.169-3.841.412-8.271.788-13.345.431-5.609,1.331-12.255,3.188-20.704,6.169-28.082,14.644-38.265,23.738-61.47,8.869-22.562,29.645-77.834,11.363-134.981Z" style="fill: #a56d44;"/>
        <g>
          <path d="M466.504,644.231c6.204-1.031,15.992-2.667,28.33-4.769,15.368-2.619,18.033-3.122,23.237-3.311,9.439-.343,14.274.812,31.731,3.256,6.975.977,17.036,2.309,29.337,3.658-18.059,19.947-43.897,29.073-67.069,25.759-25.359-3.626-42.696-21.546-45.566-24.592Z" style="fill: #a56d44;"/>
          <path d="M476.653,650.27c-6.204-1.362-12.498-7.765-13.823-13.878-.99-4.569.359-10.998,5.596-11.869.322-.054,1.875-.287,4.231.303,7.571,1.896,9.084,8.775,19.428,19.542,3.389,3.528,6.017,5.684,5.228,6.574-.749.844-3.702-.458-9.18-.908-6.945-.57-7.741,1.058-11.48.237Z" style="fill: #bcbcbc; mix-blend-mode: multiply; opacity: .3;"/>
          <path d="M567.291,650.358c6.992-1.303,13.457-7.671,14.22-13.801.571-4.583-1.791-11.06-7.948-11.99-.379-.057-2.201-.309-4.848.26-8.504,1.827-9.388,8.726-19.978,19.438-3.469,3.509-6.232,5.648-5.209,6.55.97.856,4.216-.421,10.482-.815,7.945-.499,9.068,1.145,13.281.359Z" style="fill: #bcbcbc; mix-blend-mode: multiply; opacity: .3;"/>
          <path d="M581.468,636.076c0-1.072-.235-2.115-.793-3.084-1.061,3.171-3.783,5.641-6.34,7.9-1.624,1.435-3.25,2.868-5.172,3.883-2.977,1.573-5.375,1.507-11.659,1.973-9.019.668-13.54,1.036-15.219,2.731-2.349,2.371.798,4.641-1.115,7.578-2.779,4.269-13.041,4.688-16.723,4.838-2.065.084-18.604.629-23.715-5.75-2.694-3.363.075-5.555-2.811-7.775-4.671-3.594-12.568,1.215-22.308-3.029-3.842-1.674-6.393-4.018-7.335-4.946-3.714-3.655-4.869-7.389-5.27-9.122-.272,1.336-1.254,7.133,3.671,13.157,1.214,1.485,4.402,5.384,9.605,6.982,6.482,1.99,9.654-1.644,15.321.572,3.267,1.278,3.047,2.277,7.437,5.97,2.866,2.411,6.758,4.023,10.685,4.942,4.629,1.083,9.46,1.309,14.218,1.413,3.83.083,8.123-.075,11.68-1.225.531-.172,1.062-.344,1.595-.516.587-.19,1.176-.381,1.754-.591,4.545-1.656,7.277-5.074,10.385-8.174,3.225-3.217,8.751-2.234,13.381-2.223,2.894.007,5.917-.01,8.569-1.128,2.988-1.259,5.113-3.753,6.91-6.303,1.695-2.406,3.248-5.332,3.251-8.074Z" style="fill: #7f451d;"/>
        </g>
      </g>
      <g>
        <path d="M520.3,275.351c-10.032,0-61.862-24.244-83.597-17.556-21.736,6.688-32.604,47.201-40.963,46.591-8.36-.612-68.55-12.764-76.91,0-8.359,12.764,5.434,34.917,0,38.68-5.434,3.762-57.473,14.518-63.116,36.1-5.643,21.582-2.195,23.776-5.33,27.225-3.135,3.448-30.618,11.913-36.051,30.722-5.434,18.809,5.434,34.693,5.434,38.873s-10.868,9.195-13.375,15.048c-2.508,5.852,6.688,8.778,7.105,12.957.418,4.18-21.735,31.767-20.899,66.879.837,35.111,41.799,55.936,42.635,69.558.837,13.622-29.259,25.326-27.587,48.734,1.672,23.407,40.861,32.786,43.471,48.303,2.717,16.151-22.571,38.877-13.375,66.345s45.426,21.616,49.046,28.304c3.621,6.688-11.427,5.852-10.591,11.704.836,5.852,50.961,33.317,114.93,18.33,0,0-24.308-.775-24.685-6.627s43.511-12.121,54.797-27.169c11.286-15.048-11.535-32.24-4.948-39.649,16.861-18.969-31.593-37.419-32.132-51.238-.539-13.819,17.627-12.348,12.628-34.774-4.999-22.426-37.68-84.81-38.438-141.771-.757-56.961,25.094-103.742,25.81-116.282.715-12.539-3.85-15.048,0-26.333,3.85-11.286,29.557-18.183,37.707-30.095,8.151-11.913,10.032-37.452,24.453-49.448,14.42-11.996,55.802-21.168,65.834-24.419,10.031-3.252,8.15-18.531,8.15-18.531v-20.459Z" style="fill: #261717;"/>
        <path d="M519.131,275.351c10.032,0,61.863-24.244,83.598-17.556,21.735,6.688,32.603,47.201,40.962,46.591,8.36-.612,68.55-12.764,76.91,0,8.359,12.764-5.434,34.917,0,38.68,5.434,3.762,57.473,14.518,63.116,36.1,5.643,21.582,2.194,23.776,5.33,27.225,3.135,3.448,30.618,11.913,36.052,30.722,5.434,18.809-5.434,34.693-5.434,38.873s8.274,33.23,7.95,51.006c-.116,6.365-5.109,20.888-5.527,25.068-.418,4.18,20.654,18.809,20.62,36.986-.064,35.121-37.672,37.759-38.508,51.381-.836,13.622,29.259,25.326,27.587,48.734-1.672,23.407-40.861,32.786-43.471,48.303-2.717,16.151,22.571,38.877,13.375,66.345-9.196,27.468-45.425,21.616-49.046,28.304-3.621,6.688,11.427,5.852,10.591,11.704-.836,5.852-50.961,33.317-114.93,18.33,0,0,24.309-.775,24.686-6.627.377-5.852-43.512-12.121-54.798-27.169-11.286-15.048,11.535-32.24,4.949-39.649-16.862-18.969,31.592-37.419,32.131-51.238.539-13.819-17.627-12.348-12.628-34.774,4.999-22.426,37.681-84.81,38.438-141.771.757-56.961-25.094-103.742-25.81-116.282-.715-12.539,3.85-15.048,0-26.333-3.85-11.286-29.557-18.183-37.707-30.095-8.151-11.913-10.032-37.452-24.453-49.448-14.42-11.996-55.801-21.168-65.833-24.419-10.032-3.252-8.151-18.531-8.151-18.531v-20.459Z" style="fill: #261717;"/>
        <path d="M355.983,565.501s-18.666-20.502-19.384-30.924c-.719-10.422,1.797-7.907,0-15.094-1.797-7.188-12.961-10.682-12.242-26.495.719-15.813,5.789-13.576,5.769-19.327-.02-5.75-21.073-24.526-12.002-37.196,8.233-11.501,26.575-4.039,27.294-11.227.719-7.187-12.82-14.136,1.244-24.622,10.242-7.637.792-25.719,5.571-31.716,9.164-11.5,35.399-1.437,38.274-4.672,2.875-3.235-4.313-28.751,16.532-39.892,20.844-11.141,40.97,8.985,44.563,7.547,3.594-1.437,8.625-12.578,13.657-14.375,5.032-1.797,3.235,6.469,8.625,6.469s17.251-31.267,42.408-33.423c25.157-2.157,34.559,16.532,40.61,17.969,6.052,1.437,23.886-10.782,35.393-7.547,11.507,3.234,11.086,25.289,13.723,26.954,2.636,1.664,21.324-10.781,28.871-5.391,7.547,5.391,2.795,30.504,6.569,32.121,3.773,1.617,29.964-7.811,40.151,6.09,10.187,13.9,4.351,28.455,8.984,32.229,4.634,3.773,14.915,5.211,18.688,16.532,3.773,11.32-5.751,22.821-3.055,29.829,2.695,7.008,17.898,17.61,13.836,30.548-4.062,12.938-18.149,20.665-16.532,26.595,1.617,5.93,5.391,12.937,1.617,18.328-3.773,5.391-21.126,12.938-17.031,18.329,4.094,5.39,2.588,18.339-2.319,21.838-4.907,3.498-6.923,10.545-6.923,10.545,0,0,8.086-51.434.594-57.544-7.491-6.11-2.284-10.778-4.744-22.279-2.46-11.5-13.777-15.454-14.767-25.875-.99-10.422-6.021-25.876-9.256-29.11-3.234-3.235-24.438-25.876-33.423-23.001-8.984,2.875-20.595-23.253-27.548-22.587-6.953.665-30.313,7.6-39.657,0-9.344-7.601-28.751-12.632-37.376-10.117s-3.234,10.889-27.313,10.117c-24.079-.773-43.126-.773-39.532,6.415,3.594,7.187-7.547,14.016-14.735,16.891-7.187,2.875-25.516,14.013-23.001,19.765,2.516,5.752.271,10.934-10.032,16.174-10.303,5.239-22.527,23.36-18.826,26.954,3.701,3.594,5.857,3.594-5.643,14.375-11.501,10.782-22.937,29.086-17.547,33.039,5.391,3.953,4.5,8.926-.086,13.239-4.586,4.312-2.63,19.085.086,20.125,2.717,1.04-.086,13.398-.086,13.398Z" style="fill: #261717;"/>
        <path d="M519.131,275.351c16.868-8.144,34.289-15.262,52.324-20.701,9.008-2.737,18.157-5.156,27.569-6.629,9.396-1.424,19.044-2.412,28.98-.522,2.463.776,5.073.981,7.383,2.465l3.545,1.893c1.066.822,2.063,1.77,3.085,2.672l1.514,1.383,1.175,1.651c.755,1.116,1.6,2.21,2.251,3.371,1.016,2.407,2.294,4.822,2.783,7.306,2.67,9.935,2.229,19.667,2.565,28.828.338,8.927.946,18.757,6.845,21.119,3.009,1.704,7.563,2.644,11.82,3.487,4.443.677,8.931,1.256,13.52,1.625,18.345,1.52,37.062,1.604,55.994,2.991,4.758.398,9.526.817,14.388,1.535,4.899.811,9.731,1.496,15.408,4.211,3.267,1.736,5.253,3.547,7.187,5.862,2.002,2.182,3.706,5.368,4.485,8.766.813,3.472.407,6.987-.329,9.751-.723,2.82-1.688,5.242-2.547,7.413-.844,2.157-1.631,4.169-2.15,6.021-.224.919-.493,1.833-.588,2.688l-.185,1.268c.04.225.048.441.025.662.176.664-.067.388.736,1.044.822.562,2.531,1.244,4.558,1.768,4.112,1.334,9.042,1.374,15.379,5.651.78.606,1.541,1.183,2.25,2.11.687.899,1.368,1.458,2.132,3.497,1.113,3.52.306,5.886-.194,7.644-1.227,3.349-2.694,5.508-4.106,7.676-2.849,4.205-5.759,7.849-8.348,11.508-2.532,3.552-5.02,7.422-5.761,10.189-.332,1.414-.131,1.658-.206,1.39-.047-.045.082.119.501.351.465.269.787.401,2.16.957,4.69,1.788,9.054,3.919,13.416,6.117,8.616,4.541,16.854,9.743,24.606,15.788,7.697,6.087,15.057,12.937,20.867,21.565,2.763,4.406,5.439,9.038,6.851,14.402,1.647,5.21,2.016,11.119,1.499,16.284-1.143,10.523-4.626,19.919-8.59,28.734-3.974,8.817-8.565,17.156-12.747,25.34-2.054,4.059-4.099,8.203-5.277,11.895-.631,1.723-.694,3.682-.68,3.403l2.829,5.082c9.077,16.593,18.022,33.61,22.187,53.185.774,5.031,1.782,9.804.448,16.157-.758,3.056-2.595,6.392-5.221,8.385-2.532,2.141-5.248,3.226-7.694,4.089-4.888,1.625-9.282,2.506-12.576,4.262-3.273,1.706-5.225,4.026-6.036,7.797-.682,3.49-.733,8.618-1.02,13.238-.236,4.674-.615,9.365-.406,13.579.189,4.136,1.495,8.137,3.171,12.449l2.604,6.422,1.353,3.226c.436,1.256.823,2.627,1.201,3.937.59,2.718.595,5.777-.346,8.557-.904,2.762-2.549,5.07-4.304,6.991-3.596,3.78-7.657,6.359-11.461,9.048-3.801,2.66-7.55,5.272-10.382,8.52-2.823,3.224-4.302,7.257-3.669,11.495.993,8.733,7.138,16.381,14.226,22.082,7.199,5.771,15.53,10.255,24.289,13.523-8.979-2.645-17.667-6.524-25.498-11.929-7.6-5.484-14.721-13.106-16.492-23.196-1.087-5.036.639-10.707,3.834-14.646,3.148-4.011,7.039-6.974,10.731-9.878,3.688-2.884,7.425-5.639,10.118-8.824,2.756-3.202,3.696-6.655,2.642-10.242l-.975-2.735-1.486-3.194-2.922-6.484c-1.878-4.312-3.762-9.266-4.21-14.512-.439-5.131-.195-9.808-.151-14.483.161-4.719-.164-9.004.668-14.756l1.186-4.162c.676-1.342,1.39-2.699,2.178-3.993,1.88-2.444,4.215-4.51,6.713-5.848,4.962-2.744,9.876-3.745,13.792-5.236,4.165-1.517,5.868-3.145,6.495-5.883.596-2.841-.048-7.551-.915-11.661-1.969-8.496-5.359-16.962-9.259-25.193-3.862-8.267-8.259-16.347-12.902-24.365l-1.754-3.023-.89-1.537-.471-.828c-.291-.594-.555-1.214-.781-1.839-1.264-4.839-.131-7.671.505-10.382,1.608-5.254,3.733-9.54,5.806-13.868,4.198-8.551,8.501-16.704,12.081-25.023,3.541-8.276,6.541-16.721,7.335-24.875.792-8.038-1.668-15.193-6.356-22.262-9.682-13.814-25.123-24.483-40.853-32.843-3.979-2.032-8.031-4.035-12.087-5.599-1.984-.825-6.221-2.35-8.821-6.328-2.848-4.187-2.32-9.123-1.454-12.125,1.94-6.26,4.993-10.175,7.79-14.253,2.846-3.96,5.792-7.632,8.207-11.169,1.181-1.714,2.243-3.545,2.622-4.604.191-.444-.097-.498.255.78.428.89.271.601.232.584.05-.06-.156-.159-.298-.273-1.387-1.216-6.162-2.289-10.956-3.535-2.47-.709-5.275-1.531-8.349-3.57-3.149-1.864-6.095-6.472-6.196-10.51-.034-.948-.035-1.903-.006-2.847l.315-2.205c.212-1.465.615-2.807.979-4.148.797-2.642,1.776-4.972,2.669-7.158,1.814-4.298,3.068-7.868,2.465-9.937-.294-1.118-.685-2.298-1.852-3.574-.408-.649-1.197-1.26-1.805-1.905-.662-.719-1.188-.649-1.723-1.103-2.719-1.405-7.246-2.449-11.541-3.148-4.39-.725-8.94-1.205-13.502-1.662-18.391-1.585-37.152-2.167-56.078-4.282-4.733-.512-9.51-1.254-14.301-2.126-4.841-1.152-9.649-2.047-14.795-4.999-2.638-1.282-4.946-3.768-6.653-6.335l-1.913-4.015c-.4-1.323-.705-2.641-1.042-3.964-1.04-5.209-1.125-10.171-1.076-14.911.062-9.489.69-18.731-1.253-27.038-1.512-8.55-7.527-14.348-15.872-16.367-8.409-2.097-17.767-1.76-26.857-.837-9.159.938-18.28,2.835-27.307,5.068-18.053,4.54-35.826,10.498-53.252,17.338Z" style="fill: #160606;"/>
        <path d="M542.035,285.989c21.109-3.34,42.359-5.825,63.684-7.518,21.324-1.592,42.766-2.513,64.223-1.085,10.719.719,21.464,2.113,31.941,5.189,5.219,1.653,10.332,3.6,15.105,6.561,4.616,2.852,9.545,7.214,10.428,13.629.756,6.369-2.434,11.809-5.608,16.22-3.315,4.476-7.176,8.339-10.937,12.125-1.868,1.89-3.762,3.769-5.328,5.674-.744.895-1.468,2.037-1.524,2.46-.096-.264.005.159.919.683,3.86,1.932,9.578,2.596,14.695,3.5,5.269.864,10.616,1.693,15.968,3.103,5.208,1.552,11.078,3.095,15.26,8.592,2.021,3.012,2.3,6.236,2.377,9.116.039,2.929-.295,5.718-.719,8.441-.863,5.439-2.152,10.641-3.15,15.798-.966,5.111-1.809,10.338-1.121,14.919.391,2.242,1.145,4.24,2.553,5.551.646.717,1.539,1.204,2.449,1.683l3.659,1.679c9.766,4.598,19.374,9.571,28.416,15.832,4.469,3.212,8.938,6.56,12.477,11.592,1.661,2.433,3.335,6.014,2.269,9.993-1.23,3.854-3.785,5.913-6.1,7.702-9.545,6.589-19.88,9.561-28.1,15.437-4.065,2.829-7.221,6.448-7.471,10.475-.311,4.15,1.969,8.327,5.37,11.866,6.856,7.269,16.584,12.293,24.44,20.816,3.886,4.124,7.166,10.676,5.941,17.235-1.163,6.31-4.53,11.459-8.873,15.544-8.8,8.051-20.31,10.457-27.958,16.056-3.745,2.797-5.471,6.466-5.048,11.125.44,4.494,2.185,9.814,3.964,14.453,1.875,4.781,4.392,9.169,7.055,13.98,2.708,4.713,4.904,10.601,5.092,16.471.161,5.943-.618,11.192-2.367,16.917-1.889,5.621-5.551,10.59-9.915,14.276-8.802,7.471-19.217,11.269-28.817,15.647-4.818,2.169-9.567,4.39-13.743,7.203-4.12,2.643-7.912,6.515-9.452,10.199-1.028,2.738,2.639,7.487,6.024,11.076,3.518,3.823,7.418,7.536,11.076,11.62,3.59,4.107,7.275,8.548,9.093,14.402,1.982,5.837.084,13.123-4.519,17.149-4.427,4.137-9.695,6.238-14.713,8.22-5.058,1.938-10.121,3.565-14.79,5.749-4.611,2.156-8.981,5.039-10.706,9.325-1.718,4.216-.556,9.58,1.085,14.335,3.449,9.643,11.311,17.211,20.262,22.456,4.502,2.646,9.329,4.778,14.311,6.453,2.485.859,5.027,1.559,7.588,2.155,2.412.544,6.057,1.346,7.381,4.672,1.123,3.213-.068,6.072-1.018,8.582-1.055,2.549-2.364,4.903-3.637,7.258-2.382,4.642-5.629,9.411-5.542,14.33.062,2.506,2.334,3.888,4.793,4.764,2.438.909,5.037,1.48,7.641,1.955,5.226.927,10.551,1.369,15.87,1.698,10.653.588,21.348.589,32.025.222-10.666.62-21.362.874-32.06.537-5.346-.205-10.7-.52-16.022-1.334-2.657-.42-5.315-.933-7.909-1.83-1.293-.487-2.567-.981-3.778-1.91-1.177-.959-1.931-2.461-2.069-3.937-.271-2.985.794-5.641,1.822-8.132,1.073-2.504,2.334-4.88,3.553-7.252,1.212-2.371,2.444-4.729,3.375-7.144.898-2.357,1.661-5.024.846-6.95-.794-1.954-3.187-2.621-5.799-3.12-2.654-.552-5.289-1.21-7.873-2.035-5.181-1.607-10.231-3.692-15.005-6.347-9.496-5.211-18.142-13.228-22.116-23.851-.992-2.634-1.624-5.361-2.095-8.13-.414-2.85-.296-5.956.786-8.837,2.297-5.891,7.647-9.275,12.481-11.682,9.755-4.86,20.897-7.036,27.951-13.639,3.387-3.238,4.455-7.892,3.021-12.248-1.41-4.424-4.707-8.497-8.186-12.295-3.53-3.827-7.447-7.417-11.219-11.407-1.869-2.023-3.736-4.112-5.347-6.66-1.519-2.449-3.162-5.952-2.001-9.899,2.573-6.265,6.975-10.029,11.66-13.278,4.689-3.176,9.669-5.502,14.569-7.739,9.746-4.44,19.746-8.301,27.299-14.829,3.764-3.218,6.618-7.209,8.132-11.734,1.385-4.459,2.181-9.962,1.956-14.688-.071-9.638-7.869-17.766-11.905-28.369-2.012-5.305-3.825-10.205-4.508-16.353-.221-3.021.054-6.361,1.467-9.398,1.371-3.042,3.645-5.51,6.03-7.349,4.854-3.618,9.981-5.597,14.704-7.891,4.737-2.235,9.198-4.649,12.729-7.879,3.462-3.14,6.12-7.494,6.893-11.718.77-4.193-1.073-8.28-4.332-11.917-6.587-7.365-16.314-12.499-24.218-20.78-3.884-4.068-7.503-9.945-6.983-16.678.563-6.933,5.592-11.898,10.13-15.027,9.322-6.487,20.021-9.622,28.086-15.254,1.915-1.348,3.547-3.12,3.902-4.449.404-1.285-.148-3.186-1.447-5.066-2.59-3.78-6.734-7.105-10.909-10.083-8.509-5.956-17.927-10.907-27.46-15.44l-3.617-1.679c-1.453-.735-2.921-1.598-4.099-2.854-2.502-2.418-3.639-5.733-4.123-8.706-.835-6.056.234-11.556,1.226-16.893,1.05-5.329,2.359-10.502,3.253-15.607.816-4.913,1.418-10.583-.617-13.715-2.265-3.302-7.375-5.298-12.219-6.657-4.969-1.384-10.187-2.275-15.445-3.206-5.309-1.107-10.508-1.42-16.256-4.298-.718-.437-1.504-.945-2.195-1.909-.363-.391-.608-1.073-.819-1.659-.189-.725-.155-1.511-.019-2.05.601-2.191,1.614-3.205,2.508-4.387,1.862-2.197,3.803-4.05,5.711-5.936,3.814-3.735,7.573-7.421,10.678-11.504,3.034-4.027,5.563-8.694,5.018-13.2-.493-4.504-4.23-8.25-8.482-10.931-4.284-2.749-9.208-4.719-14.139-6.347-10.013-3.087-20.567-4.588-31.127-5.589-21.174-1.914-42.577-1.509-63.88-.421-21.314,1.187-42.603,3.167-63.783,6.009Z" style="fill: #160606;"/>
        <path d="M490.106,277.899c-16.859-2.867-33.816-5.174-50.818-6.677-8.501-.709-17.026-1.181-25.516-1.075-8.34.289-17.299.521-24.304,4.24-3.51,2.085-6.815,4.643-8.449,8.028-1.751,3.368-1.359,7.3-1.233,11.772.006,2.226-.171,4.813-1.432,7.164-1.208,2.354-3.288,4.06-5.199,5.249-3.969,2.567-8.736,3.707-13.275,3.792-9.151.114-17.482-2.572-25.733-3.88-8.192-1.438-16.565-1.596-23.648,1.937-1.786.809-3.43,1.913-5.032,3.068-1.263.879-2.197,2.407-3.068,4.132-1.692,3.482-2.791,7.543-3.751,11.588-1.894,8.156-3.175,16.582-4.554,25.031-.689,4.228-1.392,8.474-2.253,12.741-.427,2.133-.913,4.275-1.494,6.43-.525,1.999-1.324,4.674-2.935,6.812-3.177,4.263-7.612,6.459-11.721,8.165-4.184,1.689-8.377,2.884-12.505,4.064-8.216,2.349-16.415,4.497-23.385,8.432-3.398,1.924-6.677,4.464-8.68,7.291-1.942,2.711-2.614,6.614-2.79,10.515-.188,7.962,1.556,16.285,3.545,24.442,2.028,8.194,4.497,16.346,6.815,24.621,2.159,8.355,4.749,16.544,5.007,25.993-.011,2.357-.322,5.083-1.437,7.539-1.075,2.449-2.717,4.503-4.491,6.18-3.61,3.302-7.636,5.46-11.582,7.386-7.901,3.812-15.942,6.663-22.82,10.939-3.414,2.117-6.47,4.631-8.527,7.663-2.001,2.947-3.157,6.821-2.58,9.913.494,3.081,3.123,5.747,6.4,8.144,3.259,2.415,6.997,4.65,10.537,7.412,3.545,2.719,6.947,6.072,9.344,10.183,2.428,4.086,3.704,8.808,3.983,13.404.375,9.126-1.56,18.245-6.236,26.11-4.504,7.919-11.684,13.581-16.303,19.993-2.271,3.224-3.528,6.778-3.188,10.592.269,3.728,1.7,7.814,3.563,11.162,3.924,6.872,11.471,11.144,19.087,14.518,7.668,3.484,16.015,5.912,23.485,10.868,3.649,2.464,7.101,6.145,8.026,10.825.454,2.246.422,4.727-.365,6.941-.766,2.226-2.101,4.117-3.53,5.795-5.963,6.432-12.775,11.527-17.238,18.766-4.598,7.054-6.958,15.41-7.553,23.851-1.109,17.009,3.139,33.951,8.361,50.148-5.585-16.074-10.363-32.906-9.556-50.227.446-8.59,2.704-17.257,7.34-24.66,4.462-7.545,11.512-13.07,17.017-19.254,2.716-3.126,4.246-6.952,3.181-10.833-.922-3.833-3.845-6.787-7.279-8.942-7.03-4.259-15.376-6.536-23.332-9.922-7.864-3.304-16.33-7.588-21.298-15.696-2.353-4.051-3.879-8.23-4.369-13.013-.544-4.77,1.163-9.798,3.787-13.539,5.333-7.486,11.915-12.739,15.79-19.909,4.002-6.915,5.664-15.266,5.129-23.172-.528-7.946-4.737-14.666-11.36-19.429-3.22-2.484-6.861-4.62-10.5-7.259-3.499-2.543-7.707-6.177-8.772-11.733-.934-5.4.752-10.269,3.402-14.397,2.742-4.085,6.484-7.084,10.287-9.49,7.67-4.805,15.866-7.723,23.32-11.408,7.415-3.625,14.475-8.192,13.815-15.459-.21-7.71-2.713-16.089-4.913-24.208-2.279-8.197-4.7-16.44-6.742-24.858-1.979-8.427-3.823-17.029-3.578-26.213.263-4.539.941-9.506,3.981-13.856,3.016-4.127,6.789-6.812,10.781-9.104,8.027-4.437,16.602-6.541,24.786-8.854,4.097-1.142,8.147-2.286,11.904-3.782,3.733-1.478,7.226-3.42,9.192-6.099,1.772-2.338,2.58-7.025,3.504-10.956.856-4.111,1.578-8.299,2.291-12.505,1.441-8.414,2.739-16.915,4.819-25.399,1.103-4.237,2.289-8.484,4.406-12.676,1.079-2.035,2.44-4.301,4.711-5.901,1.876-1.322,3.827-2.578,5.95-3.513,8.511-4.077,18.171-3.609,26.633-1.993,8.57,1.522,16.78,4.197,24.837,4.17,3.994-.032,7.846-.925,11.128-2.972,3.544-1.976,5.043-4.726,4.972-8.881.018-3.961-.44-9.014,1.95-13.369,2.294-4.321,6.201-7.115,10.062-9.186,8.43-4.063,17.302-3.788,25.861-3.911,8.615.138,17.171.857,25.688,1.811,17.031,1.935,33.915,4.839,50.648,8.389Z" style="fill: #160606;"/>
        <path d="M519.131,295.81c-18.487-3.095-37.304-4.686-55.943-3.574-9.281.655-18.602,2.079-27.171,5.429-8.405,3.447-16.263,9.065-20.647,16.893-4.596,7.716-5.056,17.624-10.848,26.078-2.873,4.141-6.934,7.369-11.277,9.621-4.327,2.295-8.997,3.916-13.833,4.798-9.731,1.859-19.539-.085-28.528-.749-4.504-.281-8.866.058-12.53,1.94-3.645,1.921-6.884,5.021-8.185,8.694-2.604,7.849-.314,17.328,2.03,26.075,2.505,8.897,5.62,17.739,8.232,26.893,1.296,4.58,2.461,9.257,3.083,14.168.273,2.465.483,4.97.272,7.584-.194,2.699-1.016,5.578-2.555,7.97-3.14,4.877-7.993,7.449-12.439,9.396-4.543,1.955-9.105,3.315-13.586,4.727-8.901,2.78-17.786,5.523-24.894,10.593-7.045,4.809-11.904,12.934-12.051,21.091-.137,8.282,5.272,15.882,9.917,24.29,2.277,4.25,4.507,9.109,4.727,14.668.257,5.579-1.854,10.958-4.961,15.157-6.451,8.569-15.743,12.716-23.822,17.136-8.013,4.265-16.551,9.093-17.465,16.739-1.011,7.703,4.408,15.963,9.424,23.43,5.263,7.561,11.144,14.861,16.88,22.321,5.731,7.475,11.439,15.058,16.409,23.269,4.878,8.201,9.359,17.099,10.585,27.213.312,2.511.298,5.088.068,7.655-.3,2.461-.65,4.833-1.182,7.238-1.022,4.782-2.572,9.524-4.847,13.972-2.295,4.427-5.342,8.529-8.926,11.943-3.562,3.453-7.575,6.22-11.254,8.968-3.663,2.741-6.948,5.602-8.304,9.309-1.387,3.685-1.014,8.165.062,12.424,2.192,8.314,9.32,14.747,16.481,20.438,3.639,2.884,7.432,5.661,11.115,8.713,3.615,3.095,7.373,6.396,9.725,11.124,1.146,2.349,1.714,5.142,1.381,7.819-.306,2.668-1.387,5.163-2.659,7.25-2.558,4.302-6.295,7.85-10.506,10.339-4.205,2.531-8.764,4.178-13.261,5.608-4.438,1.48-9.152,2.543-12.771,4.852-1.769,1.166-2.905,2.806-2.755,4.814.038,1.969,1.172,4.007,2.421,5.821,2.639,3.647,6.189,6.725,9.911,9.459,15.152,10.71,33.36,17.366,52.021,19.039-18.738-.978-37.301-7.042-53.031-17.62-3.888-2.711-7.627-5.747-10.608-9.636-1.408-1.974-2.825-4.169-3.007-6.947-.343-2.797,1.501-5.59,3.623-6.96,4.289-2.852,8.925-3.907,13.296-5.526,4.391-1.522,8.681-3.22,12.468-5.643,3.783-2.404,7.014-5.539,9.195-9.357,2.309-3.795,2.921-7.984.953-11.697-4.157-7.447-12.761-12.388-20.056-18.188-7.334-5.724-15.402-12.356-18.358-22.51-1.277-4.726-2.031-10.036-.248-15.287,1.841-5.289,6.044-8.869,9.724-11.779,7.629-5.676,14.398-11.365,18.312-19.359,1.969-3.927,3.336-8.185,4.239-12.576.893-4.498,1.531-8.816.946-13.038-1.054-8.623-5.156-16.965-9.872-24.766-4.783-7.833-10.404-15.255-16.119-22.64-5.729-7.392-11.666-14.686-17.162-22.507-2.729-3.926-5.36-7.985-7.523-12.487-2.14-4.419-3.845-9.776-3.079-15.355.664-5.693,4.336-10.569,8.269-13.736,3.974-3.293,8.263-5.586,12.412-7.864,8.24-4.437,16.609-8.642,21.579-15.31,2.454-3.302,3.931-7.173,3.764-11.027-.108-3.891-1.772-7.887-3.892-11.854-4.124-7.833-10.603-16.373-10.534-27.389.258-10.736,6.444-20.302,14.785-26.048,8.322-5.819,17.762-8.545,26.69-11.314,4.471-1.378,8.924-2.697,13.013-4.437,4.072-1.713,7.86-3.949,9.836-7.083,2.048-2.976,1.98-7.272,1.49-11.735-.531-4.407-1.602-8.873-2.839-13.321-2.459-8.915-5.629-17.778-8.04-26.996-1.216-4.605-2.243-9.32-2.789-14.195-.485-4.856-.52-10.034,1.341-15.087.944-2.488,2.562-4.876,4.441-6.698,1.821-1.799,3.949-3.392,6.328-4.539,4.804-2.361,10.173-2.579,14.962-2.203,9.623.897,18.604,2.813,27.526,1.248,8.693-1.547,17.669-5.419,22.799-12.476,5.224-7.074,5.929-17.092,11.095-25.553,5.126-8.535,13.614-14.185,22.528-17.582,9.042-3.26,18.549-4.431,27.958-4.855,18.871-.69,37.669,1.519,56.039,5.303Z" style="fill: #160606;"/>
      </g>
      <g>
        <g>
          <path d="M668.405,628.824c1.828,1.305,3.585,2.287,5.241,3.02,4.688,2.083,8.641,2.239,10.691,2.191,14.817-.36,30.217-14.994,36.905-27.917.369-.71.875-1.705,1.434-2.95v-.009c2.013-4.492,4.672-12.359,3.159-21.451-3.445-20.538-27.035-39.202-39.141-32.696-2.763,1.48-8.694,6.497-7.195,26.659-4.21,20.174-7.876,37.727-11.095,53.152Z" style="fill: #965e38;"/>
          <path d="M674.325,627.446c-1.899-16.34,2.046-30.888,5.925-40.943,4.491-11.641,9.329-24.181,17.893-25.318,11.027-1.463,21.95,16.283,21.627,28.251-.062,2.316-.699,11.203-.699,11.203.292-3.779.93-18.432-10.114-24.942-1.874-1.105-7.092-4.181-11.295-1.867-4.004,2.205-5.766,8.589-3.822,15.337,1.614.366,3.81.992,6.102,2.099,2.053.992,3.899,2.233,4.768,3.086,5.212,5.124-3.675,18.857-4.641,20.359-2.687,4.18-4.603,7.16-8.865,9.595-7.015,4.007-14.943,3.342-16.878,3.139Z" style="fill: #7f451d;"/>
          <path d="M678.175,594.26c8.187-3.019,16.238-3.311,19.576.125,3.443,3.545.608,9.827-3.204,18.274-2.08,4.609-3.336,7.292-6.685,9.857-4.99,3.823-11.164,4.689-13.536,4.93-1.054-3.95-1.969-9.948-.817-17.668.897-6.013,2.778-11.32,4.667-15.518Z" style="fill: #332115;"/>
          <path d="M673.646,631.843c4.688,2.083,8.641,2.239,10.691,2.191,14.817-.36,30.217-14.994,36.905-27.917.369-.71.875-1.705,1.434-2.95-3.717,6.17-12.937,20.363-27.797,26.053-3.219,1.23-10.538,3.561-21.233,2.623Z" style="fill: #7f451d;"/>
        </g>
        <g>
          <path d="M692.823,643.316c-.927-3.885-2.228-8.052-4.841-11.169-2.079,1.41-4.398,2.42-6.766,3.297,1.503,5.173,2.481,10.487,2.737,15.877.066,1.39.079,2.791-.054,4.178-.122,1.277-.332,2.851-1.258,3.824-1.058,1.113-2.509.606-3.355-.478-.539-.691-.924-1.506-1.274-2.304-.505-1.154-.981-2.3-1.315-3.518-.736-2.683-.976-5.457-1.209-8.22-.156-1.85-.175-3.72.033-5.567.356-3.167,1.47-6.338,3.903-8.379-.4-1.59-1.734-3.078-3.273-3.345-.925-.16-1.836-.014-2.73.26-1.344.923-2.416,2.316-3.258,3.716-1.563,2.599-2.579,5.594-3.247,8.542-1.534,6.777-1.329,13.836.815,20.466,1.139,3.522,2.867,6.927,5.285,9.748,2.398,2.798,5.695,5.33,9.562,5.151,3.658-.169,6.697-2.845,8.587-5.793,2.321-3.62,3.479-7.769,3.629-12.05.168-4.809-.864-9.586-1.974-14.237Z" style="fill: #e8c842;"/>
          <path d="M676.816,628.531c-.273,1.159-1.072,2.164-1.653,3.182-.642,1.124-1.241,2.273-1.767,3.455-1.655,3.716-2.302,7.64-2.222,11.688.068,3.416.526,6.963,1.963,10.094.671,1.462,1.6,2.838,2.873,3.84,1.147.902,2.796,1.737,4.266,1.166,1.071-.416,1.749-1.425,2.196-2.473-1.039.896-2.384.39-3.185-.637-.539-.691-.924-1.506-1.274-2.304-.505-1.154-.981-2.3-1.315-3.518-.736-2.683-.976-5.457-1.209-8.22-.156-1.85-.175-3.72.033-5.567.356-3.167,1.47-6.338,3.903-8.379-.337-1.343-1.344-2.604-2.574-3.127.039.242.035.506-.034.801Z" style="fill: #bfa122;"/>
          <path d="M692.823,643.316c-.927-3.885-2.228-8.052-4.841-11.169-.527.358-1.07.689-1.625.999,1.024,1.831,2.312,3.517,3.2,5.427,1.221,2.626,2.168,5.427,2.867,8.235,1.248,5.012,1.369,10.075.314,15.13-.746,3.575-1.932,7.127-4.694,9.653-1.623,1.484-3.506,2.798-5.503,3.805.013,0,.026,0,.039,0,3.658-.169,6.697-2.845,8.587-5.793,2.321-3.62,3.479-7.769,3.629-12.05.168-4.809-.864-9.586-1.974-14.237Z" style="fill: #3953a4; mix-blend-mode: multiply; opacity: .57;"/>
        </g>
      </g>
      <g>
        <g>
          <path d="M370.923,625.009c-1.878,1.232-3.672,2.144-5.356,2.811-4.767,1.896-8.722,1.897-10.769,1.767-14.791-.944-29.602-16.174-35.776-29.35-.341-.724-.807-1.738-1.317-3.004v-.009c-1.834-4.568-4.18-12.534-2.31-21.559,4.252-20.387,28.56-38.106,40.399-31.127,2.702,1.588,8.431,6.835,6.138,26.922,3.411,20.325,6.383,38.008,8.99,53.549Z" style="fill: #965e38;"/>
          <path d="M365.062,623.399c2.542-16.253-.826-30.945-4.306-41.145-4.028-11.809-8.369-24.53-16.881-26.004-10.96-1.897-22.575,15.405-22.724,27.376-.029,2.316.257,11.222.257,11.222-.142-3.787-.202-18.455,11.089-24.524,1.916-1.03,7.252-3.898,11.36-1.42,3.914,2.361,5.423,8.809,3.215,15.475-1.628.302-3.846.841-6.181,1.857-2.09.91-3.984,2.077-4.886,2.896-5.41,4.914,2.929,18.987,3.835,20.527,2.52,4.282,4.316,7.336,8.48,9.937,6.852,4.28,14.8,3.928,16.741,3.802Z" style="fill: #7f451d;"/>
          <path d="M362.524,590.087c-8.061-3.339-16.095-3.949-19.565-.647-3.58,3.406-.995,9.795,2.481,18.386,1.897,4.688,3.046,7.418,6.291,10.113,4.835,4.016,10.97,5.126,13.331,5.46,1.209-3.905,2.36-9.863,1.513-17.622-.659-6.043-2.329-11.421-4.051-15.69Z" style="fill: #332115;"/>
          <path d="M365.567,627.82c-4.767,1.896-8.722,1.897-10.769,1.767-14.791-.944-29.602-16.174-35.776-29.35-.341-.724-.807-1.738-1.317-3.004,3.471,6.312,12.124,20.857,26.748,27.128,3.168,1.356,10.389,3.974,21.113,3.458Z" style="fill: #7f451d;"/>
        </g>
        <g>
          <path d="M346.017,638.617c.927-3.885,2.228-8.052,4.841-11.169,2.079,1.41,4.398,2.42,6.766,3.297-1.503,5.173-2.481,10.487-2.737,15.877-.066,1.39-.079,2.791.054,4.178.122,1.277.332,2.851,1.258,3.824,1.058,1.113,2.509.606,3.355-.478.539-.691.924-1.506,1.274-2.304.505-1.154.981-2.3,1.315-3.518.736-2.683.976-5.457,1.209-8.22.156-1.85.175-3.72-.033-5.567-.356-3.167-1.47-6.338-3.903-8.379.4-1.59,1.734-3.078,3.273-3.345.925-.16,1.836-.014,2.73.26,1.344.923,2.416,2.316,3.258,3.716,1.563,2.599,2.579,5.594,3.247,8.542,1.534,6.777,1.329,13.836-.815,20.466-1.139,3.522-2.867,6.927-5.285,9.748-2.398,2.798-5.695,5.33-9.562,5.151-3.658-.169-6.697-2.845-8.587-5.793-2.321-3.62-3.479-7.769-3.629-12.05-.168-4.809.864-9.586,1.974-14.237Z" style="fill: #e8c842;"/>
          <path d="M362.024,623.832c.273,1.159,1.072,2.164,1.653,3.182.642,1.124,1.241,2.273,1.767,3.455,1.655,3.716,2.302,7.64,2.222,11.688-.068,3.416-.526,6.963-1.963,10.094-.671,1.462-1.6,2.838-2.873,3.84-1.147.902-2.796,1.737-4.266,1.166-1.071-.416-1.749-1.425-2.196-2.473,1.039.896,2.384.39,3.185-.637.539-.691.924-1.506,1.274-2.304.505-1.154.981-2.3,1.315-3.518.736-2.683.976-5.457,1.209-8.22.156-1.85.175-3.72-.033-5.567-.356-3.167-1.47-6.338-3.903-8.379.337-1.343,1.344-2.604,2.574-3.127-.039.242-.035.506.034.801Z" style="fill: #bfa122;"/>
          <path d="M346.017,638.617c.927-3.885,2.228-8.052,4.841-11.169.527.358,1.07.689,1.625.999-1.024,1.831-2.312,3.517-3.2,5.427-1.221,2.626-2.168,5.427-2.867,8.235-1.248,5.012-1.369,10.075-.314,15.13.746,3.575,1.932,7.127,4.694,9.653,1.623,1.484,3.506,2.798,5.503,3.805-.013,0-.026,0-.039,0-3.658-.169-6.697-2.845-8.587-5.793-2.321-3.62-3.479-7.769-3.629-12.05-.168-4.809.864-9.586,1.974-14.237Z" style="fill: #3953a4; mix-blend-mode: multiply; opacity: .57;"/>
        </g>
      </g>
      <path d="M537.211,337.435c-16.84,2.977-33.584,6.514-50.098,10.824-8.244,2.194-16.429,4.621-24.388,7.58-7.755,3.08-16.114,6.315-21.458,12.176-2.603,3.145-4.854,6.667-5.252,10.404-.515,3.761,1.179,7.331,2.803,11.5.755,2.094,1.46,4.59,1.064,7.227-.345,2.623-1.729,4.93-3.128,6.693-2.873,3.754-6.978,6.432-11.223,8.04-8.578,3.188-17.327,3.464-25.537,5.012-8.198,1.404-16.135,4.075-21.615,9.787-1.409,1.363-2.586,2.956-3.705,4.583-.894,1.253-1.258,3.006-1.498,4.924-.421,3.848-.088,8.042.37,12.175.963,8.318,2.593,16.683,4.14,25.103.775,4.213,1.542,8.448,2.168,12.755.316,2.152.579,4.333.758,6.558.178,2.059.327,4.847-.47,7.403-1.556,5.083-4.992,8.644-8.288,11.635-3.371,2.999-6.917,5.536-10.406,8.037-6.946,4.979-13.942,9.762-19.18,15.813-2.552,2.956-4.784,6.452-5.718,9.788-.915,3.207-.234,7.107.913,10.84,2.504,7.56,6.948,14.81,11.568,21.821,4.669,7.032,9.738,13.878,14.707,20.888,4.846,7.141,10.042,13.979,13.466,22.789.783,2.223,1.408,4.894,1.185,7.583-.188,2.668-1.043,5.155-2.148,7.331-2.287,4.325-5.352,7.712-8.419,10.855-6.156,6.25-12.767,11.642-17.805,17.984-2.502,3.143-4.533,6.539-5.449,10.087-.892,3.449-.676,7.486.909,10.203,1.502,2.735,4.876,4.36,8.768,5.514,3.882,1.177,8.154,2.022,12.418,3.431,4.253,1.366,8.586,3.378,12.227,6.442,3.662,3.03,6.454,7.047,8.264,11.28,3.425,8.467,4.674,17.705,2.92,26.685-1.574,8.973-6.429,16.722-8.619,24.315-1.053,3.8-1.04,7.57.564,11.047,1.508,3.42,4.232,6.785,7.113,9.311,6.009,5.149,14.554,6.631,22.861,7.243,8.393.699,17.07.175,25.773,2.325,4.266,1.091,8.755,3.395,11.202,7.491,1.184,1.962,1.988,4.309,1.993,6.659.029,2.354-.592,4.584-1.373,6.645-3.449,8.064-8.148,15.155-9.912,23.475-1.955,8.191-1.363,16.853.919,25.001,4.683,16.389,14.387,30.912,24.758,44.404-10.671-13.254-20.838-27.495-25.91-44.077-2.472-8.238-3.264-17.16-1.392-25.692,1.661-8.607,6.439-16.183,9.541-23.859,1.505-3.858,1.658-7.976-.653-11.272-2.158-3.298-5.906-5.096-9.865-5.969-8.054-1.644-16.679-.977-25.31-1.487-8.517-.464-17.931-1.646-25.339-7.609-3.579-3.022-6.424-6.444-8.495-10.782-2.118-4.309-2.203-9.617-.993-14.023,2.501-8.844,6.93-16.007,8.165-24.063,1.44-7.859.193-16.282-2.973-23.546-3.173-7.304-9.399-12.214-17.239-14.469-3.868-1.255-8.016-2.04-12.331-3.299-4.151-1.217-9.337-3.221-12.21-8.094-2.698-4.771-2.75-9.923-1.645-14.702,1.206-4.77,3.721-8.854,6.491-12.399,5.604-7.107,12.339-12.615,18.118-18.594,5.762-5.91,10.872-12.588,7.803-19.208-2.794-7.189-7.972-14.236-12.777-21.14-4.905-6.951-9.961-13.897-14.718-21.137-4.701-7.269-9.334-14.747-12.195-23.477-1.28-4.362-2.314-9.267-.916-14.387,1.45-4.902,4.099-8.7,7.086-12.202,6.064-6.881,13.43-11.749,20.357-16.682,3.473-2.455,6.902-4.896,9.936-7.569,3.017-2.649,5.653-5.654,6.602-8.838.882-2.798.064-7.484-.39-11.496-.578-4.159-1.308-8.345-2.054-12.546-1.476-8.408-3.117-16.849-4.014-25.539-.388-4.361-.702-8.76-.119-13.419.331-2.28.849-4.872,2.449-7.142,1.322-1.876,2.735-3.716,4.419-5.311,6.641-6.705,15.895-9.517,24.407-10.844,8.582-1.452,17.213-1.698,24.791-4.436,3.75-1.375,7.076-3.513,9.477-6.545,2.672-3.053,3.157-6.148,1.691-10.036-1.317-3.736-3.449-8.339-2.665-13.245.705-4.841,3.443-8.788,6.381-12.037,6.569-6.664,15.016-9.393,23.034-12.391,8.158-2.771,16.457-4.975,24.798-6.944,16.688-3.912,33.564-6.863,50.515-9.154Z" style="fill: #160606;"/>
      <path d="M528.798,328.602c16.84,2.977,33.584,6.514,50.098,10.824,8.244,2.194,16.429,4.621,24.388,7.58,7.755,3.08,16.114,6.315,21.458,12.176,2.603,3.145,4.854,6.667,5.252,10.404.515,3.761-1.179,7.331-2.803,11.5-.755,2.094-1.46,4.59-1.064,7.227.345,2.623,1.729,4.93,3.128,6.693,2.873,3.754,6.978,6.432,11.223,8.04,8.578,3.188,17.327,3.464,25.537,5.012,8.198,1.404,16.135,4.075,21.615,9.787,1.409,1.363,2.586,2.956,3.705,4.583.894,1.253,1.258,3.006,1.498,4.924.421,3.848.088,8.042-.37,12.175-.963,8.318-2.593,16.683-4.14,25.103-.775,4.213-1.542,8.448-2.168,12.755-.316,2.152-.579,4.333-.758,6.558-.178,2.059-.327,4.847.47,7.403,1.556,5.083,4.992,8.644,8.288,11.635,3.371,2.999,6.917,5.536,10.406,8.037,6.946,4.979,13.942,9.762,19.18,15.813,2.552,2.956,4.784,6.452,5.718,9.788.915,3.207.234,7.107-.913,10.84-2.504,7.56-6.948,14.81-11.568,21.821-4.669,7.032-9.738,13.878-14.707,20.888-4.846,7.141-10.042,13.979-13.466,22.789-.783,2.223-1.408,4.894-1.185,7.583.188,2.668,1.043,5.155,2.148,7.331,2.287,4.325,5.352,7.712,8.419,10.855,6.156,6.25,12.767,11.642,17.805,17.984,2.502,3.143,4.533,6.539,5.449,10.087.892,3.449.676,7.486-.909,10.203-1.502,2.735-4.876,4.36-8.768,5.514-3.882,1.177-8.154,2.022-12.418,3.431-4.253,1.366-8.586,3.378-12.227,6.442-3.662,3.03-6.454,7.047-8.264,11.28-3.425,8.467-4.674,17.705-2.92,26.685,1.574,8.973,6.429,16.722,8.619,24.315,1.053,3.8,1.04,7.57-.564,11.047-1.508,3.42-4.232,6.785-7.113,9.311-6.009,5.149-14.554,6.631-22.861,7.243-8.393.699-17.07.175-25.773,2.325-4.266,1.091-8.755,3.395-11.202,7.491-1.184,1.962-1.988,4.309-1.993,6.659-.029,2.354.592,4.584,1.373,6.645,3.449,8.064,8.148,15.155,9.912,23.475,1.955,8.191,1.363,16.853-.919,25.001-4.683,16.389-14.387,30.912-24.758,44.404,10.671-13.254,20.838-27.495,25.91-44.077,2.472-8.238,3.264-17.16,1.392-25.692-1.661-8.607-6.439-16.183-9.541-23.859-1.505-3.858-1.658-7.976.653-11.272,2.158-3.298,5.906-5.096,9.865-5.969,8.054-1.644,16.679-.977,25.31-1.487,8.517-.464,17.931-1.646,25.339-7.609,3.579-3.022,6.424-6.444,8.495-10.782,2.118-4.309,2.203-9.617.993-14.023-2.501-8.844-6.93-16.007-8.165-24.063-1.44-7.859-.193-16.282,2.973-23.546,3.173-7.304,9.399-12.214,17.239-14.469,3.868-1.255,8.016-2.04,12.331-3.299,4.151-1.217,9.337-3.221,12.21-8.094,2.698-4.771,2.75-9.923,1.645-14.702-1.206-4.77-3.721-8.854-6.491-12.399-5.604-7.107-12.339-12.615-18.118-18.594-5.762-5.91-10.872-12.588-7.803-19.208,2.794-7.189,7.972-14.236,12.777-21.14,4.905-6.951,9.961-13.897,14.718-21.137,4.701-7.269,9.334-14.747,12.195-23.477,1.28-4.362,2.314-9.267.916-14.387-1.45-4.902-4.099-8.7-7.086-12.202-6.064-6.881-13.43-11.749-20.357-16.682-3.473-2.455-6.902-4.896-9.936-7.569-3.017-2.649-5.653-5.654-6.602-8.838-.882-2.798-.064-7.484.39-11.496.578-4.159,1.308-8.345,2.054-12.546,1.476-8.408,3.117-16.849,4.014-25.539.388-4.361.702-8.76.119-13.419-.331-2.28-.849-4.872-2.449-7.142-1.322-1.876-2.735-3.716-4.419-5.311-6.641-6.705-15.895-9.517-24.407-10.844-8.582-1.452-17.213-1.698-24.791-4.436-3.75-1.375-7.076-3.513-9.477-6.545-2.672-3.053-3.157-6.148-1.691-10.036,1.317-3.736,3.449-8.339,2.665-13.245-.705-4.841-3.443-8.788-6.381-12.037-6.569-6.664-15.016-9.393-23.034-12.391-8.158-2.771-16.457-4.975-24.798-6.944-16.688-3.912-33.564-6.863-50.515-9.154Z" style="fill: #160606;"/>
      <path d="M512.149,314.341c-17.395.604-34.79,1.835-51.964,4.345-8.545,1.351-17.148,2.945-25.121,5.976-4.03,1.57-7.582,3.461-10.115,6.835-2.667,3.166-4.424,6.925-4.832,10.994-.903,8.14,1.76,16.83,1.472,25.858-.034,2.256-.255,4.507-.551,6.756-.4,2.543-1.614,4.878-3.139,6.757-3.098,3.794-7.126,6.162-11.087,8.227-8.032,4.021-16.42,6.67-24.648,9.475-8.143,2.829-16.624,5.436-23.39,9.826-1.657,1.094-3.084,2.39-3.964,3.755-.977,1.511-1.61,3.214-1.724,4.907-.324,3.412,1.353,7.111,3.455,10.669,4.299,7.135,9.941,14.316,13.246,22.969.823,2.154,1.524,4.374,2.028,6.653.506,2.078.929,5.101.328,7.637-1.093,5.114-3.761,9.07-6.447,12.714-5.527,7.216-11.875,13.281-18.024,19.449-6.167,6.134-12.309,12.214-17.766,18.739-5.393,6.494-10.338,13.548-12.385,21.196-1.007,3.798-1.16,7.68-.241,11.348,1.067,3.623,2.77,7.785,4.609,11.348,3.717,7.481,9.527,12.737,16.53,18.289,3.432,2.869,6.824,6.343,9.381,10.365,2.509,4.049,4.229,8.416,5.503,12.8.697,2.189,1.051,4.408,1.588,6.612.503,2.216.802,4.854.58,7.337-.309,5.08-2.512,9.846-5.294,13.618-2.76,3.837-6.04,6.981-8.88,10.062-2.893,3.075-5.047,6.245-4.13,8.378.87,2.606,4.39,5.229,7.827,7.682,3.455,2.451,7.079,4.724,10.782,7,3.696,2.297,7.49,4.551,11.159,7.395,3.512,2.78,7.584,6.632,8.388,12.347.789,11.281-7.312,18.809-14.378,23.881-7.307,5.225-14.957,9.412-22.187,14.058-7.085,4.613-14.487,9.545-18.304,16.345-1.951,3.343-2.363,7.117-1.443,10.791,1.033,3.666,3.23,7.193,5.886,10.346,5.312,6.322,12.628,10.814,20.504,13.872,7.909,3.099,16.35,4.833,24.892,6.558,4.283.989,8.594,1.539,13.032,3.878,1.077.649,2.294,1.566,2.964,3.14.645,1.616.296,3.283-.216,4.471-1.082,2.37-2.756,4.197-4.603,5.642-7.561,5.539-16.189,7.515-24.097,10.936-3.959,1.655-7.877,3.473-11.168,6.055-3.319,2.508-5.798,6.098-6.082,10.236-.15,8.282,3.807,16.691,9.023,23.37,5.429,6.687,12.423,12.195,20.289,15.911-8.008-3.416-15.261-8.668-21.061-15.274-5.533-6.768-9.868-14.945-10-24.145.17-4.68,2.974-8.965,6.49-11.749,3.499-2.903,7.523-4.888,11.523-6.701,7.915-3.641,16.61-6.089,23.038-11.158,1.537-1.271,2.811-2.799,3.52-4.41.618-1.653.268-2.281-1.38-3.301-3.319-1.719-7.812-2.404-11.991-3.245-8.53-1.572-17.268-3.188-25.658-6.305-8.352-3.075-16.464-7.79-22.529-14.752-2.98-3.437-5.647-7.383-7.067-12.094-1.357-4.711-.774-10.238,1.641-14.463,4.766-8.61,12.583-13.643,19.784-18.61,7.364-4.841,15.009-9.063,21.835-14.028,3.339-2.494,6.63-5.173,8.721-8.267,2.124-3.165,3.709-7.061,3.207-10.166-.381-3.147-3.022-6.005-6.23-8.477-3.227-2.48-6.937-4.681-10.647-6.948-3.725-2.261-7.495-4.591-11.157-7.157-3.418-2.647-7.824-4.96-10.159-10.698-1.054-2.974-.341-6.51,1.001-8.735,1.289-2.351,2.854-4.134,4.364-5.82,3.044-3.321,6.047-6.265,8.353-9.529,2.336-3.228,3.85-6.725,4.055-10.383.348-3.502-1.005-7.661-2-11.691-1.175-3.962-2.713-7.739-4.812-11.093-2.153-3.324-4.91-6.133-8.142-8.85-3.205-2.727-6.811-5.543-9.984-8.948-3.26-3.344-5.805-7.332-7.98-11.369-2.095-4.194-3.734-8.118-5.095-12.844-1.181-4.801-.911-9.886.347-14.477,2.586-9.261,8.097-16.734,13.767-23.541,5.76-6.802,12.053-12.946,18.259-19.051,6.172-6.107,12.472-12.11,17.575-18.711,2.496-3.279,4.719-6.83,5.443-10.296.729-3.042-.716-7.369-2.013-11.126-2.862-7.745-8.116-14.459-12.692-22.253-2.161-3.891-4.46-8.518-3.944-13.926.247-2.654,1.242-5.134,2.659-7.246,1.539-2.265,3.506-3.851,5.48-5.13,8.011-4.95,16.495-7.244,24.773-10.001,8.283-2.657,16.604-5.154,24.225-8.813,3.747-1.847,7.426-4.031,9.895-6.988,1.229-1.469,2.097-3.111,2.418-4.885.304-2.064.548-4.139.617-6.24.494-8.408-2.127-16.933-.958-26.207,1.199-9.297,8.662-17.248,17.268-19.712,8.416-2.921,17.101-4.252,25.757-5.377,17.347-2.094,34.79-2.721,52.202-2.617Z" style="fill: #160606;"/>
      <path d="M539.745,314.341c16.237-.066,32.526.637,48.651,3.197,8.009,1.437,16.179,2.913,23.579,7.224,7.3,4.89,10.978,13.799,10.712,22.246-.143,8.383-1.66,16.289-.925,24.146-.314,8.072,6.175,12.891,13.192,16.443,7.046,3.557,14.737,6.101,22.37,8.98,3.825,1.435,7.665,2.946,11.446,4.806,3.73,1.912,7.617,4.038,10.604,7.958,2.817,3.946,3.668,9.091,2.682,13.639-.945,4.53-2.987,8.33-4.917,11.962-3.974,7.185-8.006,13.965-9.896,21.414-.494,1.817-.86,3.776-1.055,5.541-.172,1.544.111,3.213.572,4.889,1.022,3.377,3.036,6.717,5.24,9.911,4.493,6.406,9.96,12.389,15.306,18.494,5.365,6.11,10.795,12.279,15.636,19.066,4.809,6.75,9.24,14.197,11.177,22.859.948,4.303,1.133,8.909.257,13.361-.443,2.293-1.116,4.273-1.782,6.252-.602,2.011-1.388,3.976-2.217,5.929-3.116,7.868-8.321,15.152-13.937,21.113-5.677,5.922-9.96,11.635-11.308,19.208-.819,3.616-1.198,7.701-1.085,11.209.205,3.623,1.2,7.13,2.844,10.466,1.617,3.36,3.897,6.485,6.251,9.91,1.167,1.727,2.384,3.535,3.359,5.74.975,2.15,1.664,4.936,1.138,7.696-1.101,5.6-5.055,8.74-8.085,11.441-3.207,2.712-6.565,5.177-9.907,7.529-6.421,4.673-14.034,9.114-15.732,15.215-.828,2.974.007,6.46,1.606,9.811,1.41,3.24,3.972,5.955,6.8,8.588,5.788,5.179,12.648,9.561,19.22,14.474,6.5,4.948,13.314,10.22,17.723,18.069,2.101,3.923,3.228,8.683,2.596,13.23-.609,4.547-2.559,8.631-4.907,12.196-4.679,7.212-11.651,12.751-19.255,16.298-7.612,3.64-15.79,5.453-23.702,7.145-3.867.888-8.081,1.633-10.945,3.371-1.388.941-1.678,1.701-1.187,3.3.511,1.543,1.579,3.076,2.876,4.363,5.497,5.19,13.586,7.758,20.753,11.641,3.634,1.912,7.248,4.137,10.191,7.243,2.976,3.078,4.742,7.392,4.74,11.659-1.123,16.895-12.643,31.343-27.077,38.571,14.106-7.794,24.721-22.651,25.328-38.532-.142-3.877-1.766-7.524-4.524-10.232-2.743-2.725-6.2-4.743-9.787-6.486-7.117-3.647-15.183-5.713-21.87-11.534-1.617-1.518-3.026-3.343-3.842-5.646-.406-1.129-.643-2.614-.124-4.058.463-1.467,1.552-2.503,2.544-3.164,4.111-2.521,8.145-3.068,12.102-4.122,7.899-1.837,15.686-3.749,22.706-7.273,7.015-3.446,13.12-8.531,17.191-15.058,2.044-3.226,3.564-6.706,3.97-10.248.408-3.538-.483-7.044-2.238-10.232-3.7-6.388-10.095-11.378-16.535-16.036-6.486-4.722-13.387-9.083-19.772-14.688-3.1-2.842-6.304-6.134-8.215-10.368-1.868-3.88-3.337-8.754-2.046-13.751,1.276-5.001,4.783-8.464,7.968-11.22,3.289-2.773,6.684-5.075,9.959-7.431,3.283-2.34,6.459-4.708,9.438-7.259,2.962-2.513,5.593-5.218,5.957-7.842.537-2.46-1.3-5.632-3.566-8.866-2.253-3.248-4.825-6.688-6.769-10.645-1.977-3.927-3.287-8.367-3.561-12.86-.164-2.24-.037-4.514.204-6.592.154-2.122.457-4.249.935-6.383.895-4.23,2.353-8.561,4.769-12.331,2.348-3.801,5.271-6.981,7.976-9.954,5.52-5.835,9.927-11.959,12.892-19.203,1.501-3.46,2.9-7.481,3.68-10.893.711-3.516.606-7.184-.164-10.802-1.556-7.271-5.484-14.187-10.032-20.616-4.552-6.471-9.827-12.555-15.135-18.672-5.301-6.141-10.8-12.196-15.606-19.123-2.356-3.489-4.635-7.179-5.966-11.6-.606-2.226-1.023-4.625-.74-7.136.268-2.261.678-4.304,1.251-6.401,2.211-8.357,6.618-15.706,10.596-22.617,1.947-3.465,3.8-6.93,4.565-10.376.801-3.373.198-6.88-1.641-9.636-1.893-2.651-5.236-4.79-8.662-6.57-3.474-1.792-7.17-3.333-10.918-4.817-7.493-2.993-15.232-5.692-22.634-9.594-3.676-1.966-7.33-4.268-10.347-7.555-1.511-1.62-2.792-3.598-3.551-5.808-.816-2.301-.837-4.438-1.065-6.49-.597-8.408,1.077-16.625,1.402-24.461.143-3.92-.357-7.768-1.889-11.263-1.594-3.416-3.833-6.826-6.954-8.861-6.581-4.138-14.703-5.969-22.539-7.592-15.892-2.961-32.13-4.271-48.344-4.909Z" style="fill: #160606;"/>
    </g>
    <g id="layer9-Sofia-Ogen-Normaal" style="display: none;">
      <g>
        <g>
          <path d="M492.294,459.28c-.518,3.346-.9,3.492-2.39,10.403-.991,4.558-1.654,8.3-2.069,10.804-2.264-1.619-4.706-3.104-7.348-4.433-27.592-13.939-63.638-4.298-92.6,7.956-1.685.714-3.341,1.429-4.969,2.145.646-4.208,1.995-10.157,5.067-16.841,2.309-5.024,6.026-11.407,9.434-14.897,16.189-16.577,61.498-4.795,61.738-6.159.13-.739-13.544-2.125-13.519-4.219.024-1.957,12.031-6.013,22.667-2.561,14.556,4.723,18.509,20.901,18.645,22.536.008.098.17,2.146.202,2.144.003,0,.005-.034.006-.105.107-7.992.222-15.993.344-24.075.735-.183,1.943-.33,3.01.405,1.752,1.209,2.348,4.289,2.45,7.505.151,4.143-.523,8.519-.668,9.392Z" style="fill: #261717;"/>
          <path d="M492.294,459.28c-.518,3.346-.9,3.492-2.39,10.403-.991,4.558-1.654,8.3-2.069,10.804-2.264-1.619-4.706-3.104-7.348-4.433-27.592-13.939-63.638-4.298-92.6,7.956,1.462-1.518,3.709-3.737,6.658-6.214,5.35-4.492,14.727-12.367,26.696-15.15,12.253-2.849,21.76.909,22.209-.554.647-2.111-20.052-7.032-19.413-10.128.65-3.149,23.031-2.726,33.627.748,6.121,2.007,9.605,3.642,9.605,3.642,4.76,2.234,6.65,3.819,7.221,3.356,1.615-1.307-11.901-15.267-10.388-16.632,1.443-1.302,18.393,7.176,21.687,22.117.57,2.583.626,4.886.519,6.702.943-2.438,2.171-5.81,3.43-9.881,1.714-5.584,2.66-9.842,3.222-12.13.151,4.143-.523,8.519-.668,9.392Z" style="fill: #160606;"/>
        </g>
        <g>
          <path d="M545.841,459.28c.518,3.346.9,3.492,2.39,10.403.991,4.558,1.654,8.3,2.069,10.804,2.264-1.619,4.706-3.104,7.348-4.433,27.592-13.939,63.638-4.298,92.6,7.956,1.685.714,3.341,1.429,4.969,2.145-.646-4.208-1.995-10.157-5.067-16.841-2.309-5.024-6.026-11.407-9.434-14.897-16.189-16.577-61.498-4.795-61.738-6.159-.13-.739,13.544-2.125,13.519-4.219-.024-1.957-12.031-6.013-22.667-2.561-14.556,4.723-18.509,20.901-18.645,22.536-.008.098-.17,2.146-.202,2.144-.003,0-.005-.034-.006-.105-.107-7.992-.222-15.993-.344-24.075-.735-.183-1.943-.33-3.01.405-1.752,1.209-2.348,4.289-2.45,7.505-.151,4.143.523,8.519.668,9.392Z" style="fill: #261717;"/>
          <path d="M545.841,459.28c.518,3.346.9,3.492,2.39,10.403.991,4.558,1.654,8.3,2.069,10.804,2.264-1.619,4.706-3.104,7.348-4.433,27.592-13.939,63.638-4.298,92.6,7.956-1.462-1.518-3.709-3.737-6.658-6.214-5.35-4.492-14.727-12.367-26.696-15.15-12.253-2.849-21.76.909-22.209-.554-.647-2.111,20.052-7.032,19.413-10.128-.65-3.149-23.031-2.726-33.627.748-6.121,2.007-9.605,3.642-9.605,3.642-4.76,2.234-6.649,3.819-7.221,3.356-1.615-1.307,11.901-15.267,10.388-16.632-1.443-1.302-18.393,7.176-21.687,22.117-.57,2.583-.626,4.886-.519,6.702-.943-2.438-2.171-5.81-3.43-9.881-1.714-5.584-2.66-9.842-3.222-12.13-.151,4.143.523,8.519.668,9.392Z" style="fill: #160606;"/>
        </g>
      </g>
      <g>
        <path d="M459.223,582.127c-29.608,7.729-52.139,4.489-54.453-2.283-.331-.968-1.994-7.116-.054-14.274.341-1.258.722-2.283,1.014-3.001,4.872,4.028,11.981,9.004,21.396,12.948,13.007,5.447,24.691,6.525,32.096,6.61Z" style="fill: #bcbcbc; mix-blend-mode: multiply; opacity: .3;"/>
        <g>
          <path d="M479.983,575.999c-1.826,2.187-4.549,3.38-25.262,6.203-14.591,1.983-21.068,2.473-29.37.888-7.459-1.422-10.581-3.376-12.099-4.476-7.147-5.182-8.27-13.098-9.048-18.623-.015-.142-.045-.283-.071-.452-.958-6.211-1.17-24.275,11.156-34.134,10.176-8.139,23.096-6.035,29.904-4.926,4.362.71,14.223,2.452,22.492,10.429,5.738,5.536,8.297,11.777,9.669,15.028,2.635,6.244,3.5,11.783,3.902,15.581.079.735.142,1.424.193,2.036.575,6.614.844,9.675-1.467,12.446Z" style="fill: #fff;"/>
          <path d="M474.695,552.543c0,3.31-.642,6.478-1.806,9.394-4.03,10.098-14.358,17.28-26.463,17.28s-22.463-7.211-26.478-17.35c-1.149-2.901-1.776-6.042-1.776-9.323,0-14.731,12.657-26.659,28.254-26.659s28.269,11.928,28.269,26.659Z" style="fill: #282310;"/>
          <g style="mix-blend-mode: multiply;">
            <ellipse cx="446.433" cy="552.547" rx="14.129" ry="13.331" style="fill: #6d064b;"/>
          </g>
          <path d="M418.903,552.668c-10.294.599-10.055,7.667,1.533,7.049,11.385-.607.797-7.185-1.533-7.049Z" style="fill: #eee7e7;"/>
          <path d="M483.488,552.976c-.892-3.646-2.355-8.182-4.812-13.269-2.182-4.518-4.667-8.48-7.098-11.855,1.255,1.187,3.042,2.925,5.066,5.073.685.727,3.567,3.784,4.664,5.278,1.282,1.745,3.469,5.87,2.18,14.773Z" style="fill: #332115;"/>
          <path d="M405.899,568.187c-1.747-2.067-4.525-5.282-8.112-9.125-3.621-3.879-4.016-4.058-4.412-4.832-3.646-7.138,10.759-29.556,32.351-35.292,23.158-6.152,43.471,9.836,47.696,16.107,4.412,6.547,6.362,14.211,6.362,14.212.097.381.16.653.221.91,2.002,8.415,2.081,15.14,1.843,19.4-.601-4.473-2.527-17.02-6.704-24.023-.374-.626-.757-1.224-.757-1.224-.955-1.522-2.304-3.464-4.128-5.57-.009-.01,0,0,0,0t0,0s-15.3-16.833-36.97-12.247c-2.39.506-21.523,4.88-27.309,22.058-2.867,8.51-1.114,16.174-.081,19.629Z" style="fill: #1a0503;"/>
          <path d="M408.555,573.748c6.045,5.123,11.516,7.22,14.275,8.092,2.636.833,4.905,1.217,6.17,1.427,4.81.797,8.784.744,11.411.566-2.485.52-6.427,1.089-11.311.688-2.978-.244-6.654-.546-10.744-2.443-5.409-2.508-8.446-6.346-9.799-8.33Z" style="fill: #332115;"/>
          <path d="M482.04,569.502c-.021.567-.202,3.905-3.174,6.741-1.581,1.509-3.28,2.237-4.143,2.551,2.493-.398,3.503-.427,3.91-.346.126.025.699.162,1.258-.126,0,0,.035-.019.072-.04,2.094-1.167,2.188-5.894,2.076-8.78Z" style="fill: #332115;"/>
        </g>
      </g>
      <g>
        <path d="M577.052,582.127c29.608,7.729,52.139,4.489,54.453-2.283.331-.968,1.994-7.116.054-14.274-.341-1.258-.722-2.283-1.014-3.001-4.872,4.028-11.981,9.004-21.396,12.948-13.007,5.447-24.691,6.525-32.096,6.61Z" style="fill: #bcbcbc; mix-blend-mode: multiply; opacity: .3;"/>
        <g>
          <path d="M556.292,575.999c1.826,2.187,4.549,3.38,25.262,6.203,14.591,1.983,21.068,2.473,29.37.888,7.459-1.422,10.581-3.376,12.099-4.476,7.147-5.182,8.27-13.098,9.048-18.623.015-.142.045-.283.071-.452.958-6.211,1.17-24.275-11.156-34.134-10.176-8.139-23.096-6.035-29.904-4.926-4.362.71-14.223,2.452-22.492,10.429-5.738,5.536-8.297,11.777-9.669,15.028-2.635,6.244-3.5,11.783-3.902,15.581-.079.735-.142,1.424-.193,2.036-.575,6.614-.844,9.675,1.467,12.446Z" style="fill: #fff;"/>
          <path d="M561.58,552.543c0,3.31.642,6.478,1.806,9.394,4.03,10.098,14.358,17.28,26.463,17.28s22.463-7.211,26.478-17.35c1.149-2.901,1.776-6.042,1.776-9.323,0-14.731-12.657-26.659-28.254-26.659s-28.269,11.928-28.269,26.659Z" style="fill: #282310;"/>
          <g style="mix-blend-mode: multiply;">
            <ellipse cx="589.842" cy="552.547" rx="14.129" ry="13.331" style="fill: #6d064b; mix-blend-mode: multiply;"/>
          </g>
          <path d="M617.372,552.668c10.294.599,10.055,7.667-1.533,7.049-11.385-.607-.797-7.185,1.533-7.049Z" style="fill: #d1c9c9;"/>
          <path d="M552.787,552.976c.892-3.646,2.355-8.182,4.812-13.269,2.182-4.518,4.667-8.48,7.098-11.855-1.255,1.187-3.042,2.925-5.066,5.073-.685.727-3.567,3.784-4.664,5.278-1.282,1.745-3.469,5.87-2.18,14.773Z" style="fill: #332115;"/>
          <path d="M630.376,568.187c1.747-2.067,4.525-5.282,8.112-9.125,3.621-3.879,4.016-4.058,4.412-4.832,3.646-7.138-10.759-29.556-32.351-35.292-23.158-6.152-43.471,9.836-47.696,16.107-4.412,6.547-6.362,14.211-6.362,14.212-.097.381-.16.653-.221.91-2.002,8.415-2.081,15.14-1.843,19.4.601-4.473,2.527-17.02,6.704-24.023.374-.626.757-1.224.757-1.224.955-1.522,2.304-3.464,4.128-5.57.009-.01,0,0,0,0h0s15.3-16.833,36.97-12.248c2.39.506,21.523,4.88,27.31,22.058,2.867,8.51,1.114,16.174.081,19.629Z" style="fill: #1a0503;"/>
          <path d="M627.72,573.748c-6.045,5.123-11.516,7.22-14.275,8.092-2.636.833-4.905,1.217-6.17,1.427-4.81.797-8.784.744-11.411.566,2.485.52,6.427,1.089,11.311.688,2.978-.244,6.654-.546,10.744-2.443,5.409-2.508,8.446-6.346,9.799-8.33Z" style="fill: #332115;"/>
          <path d="M554.235,569.502c.021.567.202,3.905,3.174,6.741,1.581,1.509,3.28,2.237,4.143,2.551-2.493-.398-3.503-.427-3.91-.346-.126.025-.699.162-1.258-.126,0,0-.036-.019-.073-.04-2.094-1.167-2.188-5.894-2.076-8.78Z" style="fill: #332115;"/>
        </g>
      </g>
    </g>
    <g id="layer8-Sofia-Ogen-Wijd" style="display: none;">
      <g>
        <g>
          <path d="M493.668,440.772c-.015,3.386-.37,3.587-.816,10.642-.302,4.655-.401,8.453-.439,10.992-2.479-1.265-5.115-2.37-7.925-3.291-29.359-9.681-63.569,5.214-90.386,21.64-1.56.956-3.092,1.91-4.595,2.86.013-4.257.462-10.341,2.506-17.407,1.536-5.311,4.262-12.177,7.113-16.134,13.544-18.801,60.101-13.888,60.135-15.273.018-.75-13.71-.087-13.996-2.162-.268-1.939,11.003-7.735,22.034-5.904,15.096,2.506,21.411,17.916,21.79,19.513.023.096.487,2.097.519,2.09.003,0,0-.035-.01-.104-1.082-7.919-2.159-15.848-3.241-23.858.7-.29,1.872-.616,3.037-.047,1.912.935,2.96,3.892,3.539,7.058.766,4.074.749,8.503.737,9.387Z" style="fill: #261717;"/>
          <path d="M493.668,440.772c-.015,3.386-.37,3.587-.816,10.642-.302,4.655-.401,8.453-.439,10.992-2.479-1.265-5.115-2.37-7.925-3.291-29.359-9.681-63.569,5.214-90.386,21.64,1.22-1.718,3.112-4.247,5.66-7.135,4.622-5.238,12.724-14.42,24.146-18.952,11.693-4.639,21.653-2.337,21.879-3.851.326-2.184-20.874-3.971-20.703-7.128.174-3.211,22.369-6.121,33.364-4.262,6.351,1.074,10.04,2.173,10.04,2.173,5.039,1.502,7.144,2.787,7.64,2.245,1.403-1.533-14.04-13.327-12.746-14.902,1.233-1.502,19.256,4.36,24.735,18.645.947,2.47,1.346,4.738,1.51,6.55.57-2.551,1.283-6.068,1.922-10.281.865-5.777,1.166-10.128,1.383-12.474.766,4.074.749,8.503.737,9.387Z" style="fill: #160606;"/>
        </g>
        <g>
          <path d="M549.667,440.359c-.011,3.386.342,3.589.733,10.648.266,4.657.335,8.456.353,10.995,2.489-1.245,5.133-2.33,7.951-3.229,29.433-9.452,63.527,5.709,90.215,22.343,1.553.969,3.077,1.934,4.572,2.895.02-4.257-.381-10.344-2.37-17.426-1.495-5.323-4.168-12.21-6.987-16.189-13.397-18.906-59.991-14.356-60.014-15.74-.013-.75,13.71.02,14.013-2.053.283-1.937-10.943-7.821-21.987-6.075-15.115,2.389-21.55,17.748-21.941,19.342-.023.096-.503,2.093-.535,2.086-.003,0,0-.035.011-.104,1.144-7.91,2.282-15.83,3.427-23.832-.698-.296-1.868-.63-3.036-.071-1.92.92-2.99,3.869-3.594,7.03-.797,4.068-.816,8.496-.81,9.381Z" style="fill: #261717;"/>
          <path d="M549.667,440.359c-.011,3.386.342,3.589.733,10.648.266,4.657.335,8.456.353,10.995,2.489-1.245,5.133-2.33,7.951-3.229,29.433-9.452,63.527,5.709,90.215,22.343-1.207-1.728-3.079-4.271-5.604-7.179-4.581-5.274-12.611-14.519-23.998-19.139-11.657-4.73-21.635-2.506-21.849-4.021-.309-2.187,20.905-3.809,20.758-6.967-.149-3.212-22.321-6.295-33.33-4.521-6.359,1.024-10.057,2.095-10.057,2.095-5.051,1.462-7.165,2.732-7.657,2.186-1.391-1.544,14.143-13.217,12.862-14.802-1.221-1.511-19.289,4.21-24.88,18.452-.967,2.462-1.383,4.728-1.561,6.538-.55-2.555-1.236-6.078-1.842-10.296-.82-5.783-1.087-10.137-1.285-12.484-.797,4.068-.816,8.496-.81,9.381Z" style="fill: #160606;"/>
        </g>
      </g>
      <g>
        <path d="M454.805,592.225c-37.755,9.856-66.486,5.724-69.437-2.911-.422-1.234-2.543-9.074-.068-18.202.435-1.605.92-14.939,1.294-15.854,6.212,5.136,15.277,23.51,27.284,28.538,16.586,6.946,31.485,8.321,40.928,8.429Z" style="fill: #bcbcbc; mix-blend-mode: multiply; opacity: .3;"/>
        <g>
          <path d="M481.278,584.41c-2.328,2.789-5.8,4.31-32.214,7.91-18.605,2.529-26.865,3.154-37.452,1.132-9.511-1.813-13.493-4.304-15.428-5.708-9.114-6.608-10.546-28.73-11.538-35.775-.019-.181-.057-.361-.09-.576-1.221-7.92-1.492-30.955,14.226-43.527,12.976-10.379,29.452-7.696,38.133-6.282,5.562.906,18.137,3.127,28.681,13.299,7.317,7.059,10.58,15.018,12.33,19.163,3.36,7.962,4.464,15.025,4.976,19.868.101.937.181,1.815.247,2.597.733,8.433,1.077,24.365-1.871,27.899Z" style="fill: #fff;"/>
          <path d="M474.535,554.5c0,4.22-.818,8.261-2.303,11.978-5.139,12.876-18.309,22.035-33.745,22.035s-28.644-9.195-33.764-22.125c-1.465-3.699-2.265-7.704-2.265-11.889,0-18.784,16.14-33.995,36.029-33.995s36.048,15.211,36.048,33.995Z" style="fill: #282310;"/>
          <g style="mix-blend-mode: multiply;">
            <ellipse cx="438.496" cy="554.505" rx="18.017" ry="17" style="fill: #6d064b;"/>
          </g>
          <g style="mix-blend-mode: multiply; opacity: .7;">
            <path d="M472.232,566.478c-5.139,12.876-18.309,22.035-33.745,22.035s-28.644-9.195-33.764-22.125c7.309,11.152,20.099,18.264,33.878,18.228,13.589-.036,26.284-7.022,33.631-18.138Z" style="fill: #6f2976;"/>
          </g>
          <path d="M416.73,567.286c-6.076.213-5.499,3.481,1.357,3.298,6.86-.184.032-3.347-1.357-3.298Z" style="fill: #d1c9c9;"/>
          <path d="M403.391,554.659c-13.127.763-12.822,9.776,1.954,8.989,14.517-.774,1.016-9.162-1.954-8.989Z" style="fill: #eee7e7;"/>
          <path d="M487.918,548.989c-1.138-4.649-3.003-10.434-6.136-16.92-2.783-5.761-5.951-10.814-9.052-15.117,1.6,1.514,3.879,3.73,6.46,6.469.873.926,4.549,4.826,5.948,6.73,1.635,2.225,4.424,7.485,2.78,18.838Z" style="fill: #332115;"/>
          <path d="M386.808,574.448c-2.228-2.636-5.77-18.764-10.344-23.664-4.617-4.946-5.122-5.175-5.625-6.161-4.65-9.102,13.72-37.689,41.253-45.003,29.53-7.845,55.432,12.543,60.821,20.539,5.626,8.349,8.113,18.122,8.113,18.122.124.486.204.833.282,1.16,2.552,10.73,2.653,31.333,2.35,36.766-.766-5.703-3.223-33.731-8.549-42.661-.477-.799-.965-1.561-.965-1.561-1.218-1.941-2.937-4.417-5.264-7.102-.011-.013,0,0,0,0t0,0s-19.51-21.465-47.144-15.618c-3.048.645-27.445,6.222-34.824,28.127-3.655,10.851-1.421,32.652-.103,37.058Z" style="fill: #1a0503;"/>
          <path d="M390.195,581.54c7.709,6.532,14.684,9.206,18.203,10.318,3.361,1.062,6.255,1.552,7.867,1.819,6.134,1.017,11.201.948,14.55.722-3.168.663-8.195,1.389-14.424.878-3.797-.312-8.485-.696-13.701-3.115-6.898-3.199-10.77-8.093-12.495-10.622Z" style="fill: #332115;"/>
          <path d="M483.901,576.125c-.026.723-.258,4.98-4.047,8.596-2.017,1.924-4.183,2.852-5.283,3.253,3.179-.508,4.467-.545,4.986-.441.161.032.891.206,1.605-.16,0,0,.045-.024.092-.051,2.67-1.488,2.79-7.516,2.647-11.197Z" style="fill: #332115;"/>
          <path d="M483.149,556.511c-1.487-1.435-3.597-3.401-6.225-5.62-11.924-10.068-30.313-25.595-50.546-25.02-22.807.648-38.431,21.487-41.732,26.097-2.633-2.433-5.063-5.631-5.772-9.667-2.616-14.91,19.451-34.524,42.146-38.039,17.713-2.743,35.522,4.364,45.986,15.448,6.348,6.724,10.016,14.938,10.983,17.144,3.418,7.799,4.67,14.816,5.159,19.657Z" style="fill: #ccc; mix-blend-mode: multiply;"/>
          <g style="mix-blend-mode: soft-light; opacity: .69;">
            <path d="M459.38,561.134c3.523,1.1,6.084,3.105,6.748,5.233.177.568.59,1.893.019,3.171-.296.663-.743,1.065-.962,1.252-2.46,2.093-4.92,4.185-7.381,6.278-.89-.374-1.866-.544-2.83-.49-.096,1.105-.847,2.072-1.773,2.682s-2.016.917-3.094,1.176c-6.471,1.558-13.268,1.747-19.816.551-.93-.17-1.878-.376-2.672-.889-1.061-.685-1.751-1.912-1.786-3.174-1.625-.077-3.269.324-4.676,1.14-.266.154-.548.329-.855.305-.227-.018-.43-.144-.62-.269-1.719-1.138-3.393-3.111-2.691-5.05-.647-.993-2.237.493-3.336.048-.291-.118-.508-.363-.705-.608-1.104-1.373-1.916-2.98-2.368-4.683-.061-.23-.115-.476-.046-.704.098-.32.349-.503.412-.552.741-.571,1.651-2.881,2.298-3.903.543-.858,1.596-1.909,3.856-2.616.841,1.655,2.288,4.035,4.682,6.335.279.268,5.855,5.489,13.633,6.472,8.797,1.112,18.024-3.499,23.962-11.705Z" style="fill: #c673a2;"/>
          </g>
        </g>
      </g>
      <g>
        <path d="M589.86,592.225c37.755,9.856,66.486,5.724,69.437-2.911.422-1.234,2.543-9.074.068-18.202-.435-1.605-.92-14.939-1.294-15.854-6.212,5.136-15.277,23.51-27.284,28.538-16.586,6.946-31.485,8.321-40.928,8.429Z" style="fill: #bcbcbc; mix-blend-mode: multiply; opacity: .3;"/>
        <g>
          <path d="M563.387,584.41c2.328,2.789,5.8,4.31,32.214,7.91,18.605,2.529,26.865,3.154,37.452,1.132,9.511-1.813,13.493-4.304,15.428-5.708,9.114-6.608,10.546-28.73,11.538-35.775.019-.181.057-.361.09-.576,1.221-7.92,1.492-30.955-14.226-43.527-12.976-10.379-29.452-7.696-38.133-6.282-5.562.906-18.137,3.127-28.681,13.299-7.317,7.059-10.58,15.018-12.33,19.163-3.36,7.962-4.464,15.025-4.976,19.868-.101.937-.181,1.815-.247,2.597-.733,8.433-1.077,24.365,1.871,27.899Z" style="fill: #fff;"/>
          <path d="M570.131,554.5c0,4.22.818,8.261,2.303,11.978,5.139,12.876,18.309,22.035,33.745,22.035,15.455,0,28.644-9.195,33.764-22.125,1.465-3.699,2.265-7.704,2.265-11.889,0-18.784-16.14-33.995-36.029-33.995-19.908,0-36.048,15.211-36.048,33.995Z" style="fill: #282310;"/>
          <g style="mix-blend-mode: multiply;">
            <ellipse cx="606.169" cy="554.505" rx="18.017" ry="17" style="fill: #6d064b;"/>
          </g>
          <g style="mix-blend-mode: multiply; opacity: .7;">
            <path d="M572.434,566.478c5.139,12.876,18.309,22.035,33.745,22.035,15.455,0,28.644-9.195,33.764-22.125-7.309,11.152-20.099,18.264-33.878,18.228-13.589-.036-26.284-7.022-33.631-18.138Z" style="fill: #6f2976;"/>
          </g>
          <path d="M627.936,567.286c6.076.213,5.499,3.481-1.357,3.298-6.86-.184-.032-3.347,1.357-3.298Z" style="fill: #d1c9c9;"/>
          <path d="M641.274,554.659c13.127.763,12.822,9.776-1.954,8.989-14.517-.774-1.016-9.162,1.954-8.989Z" style="fill: #eee7e7;"/>
          <path d="M556.748,548.989c1.138-4.649,3.003-10.434,6.136-16.92,2.783-5.761,5.951-10.814,9.052-15.117-1.6,1.514-3.879,3.73-6.46,6.469-.873.926-4.549,4.826-5.948,6.73-1.635,2.225-4.424,7.485-2.78,18.838Z" style="fill: #332115;"/>
          <path d="M657.857,574.448c2.228-2.636,5.77-18.764,10.344-23.664,4.617-4.946,5.122-5.175,5.625-6.161,4.65-9.102-13.72-37.689-41.253-45.003-29.53-7.845-55.432,12.543-60.821,20.539-5.626,8.349-8.113,18.122-8.113,18.122-.124.486-.204.833-.282,1.16-2.552,10.73-2.653,31.333-2.35,36.766.766-5.703,3.223-33.731,8.549-42.661.477-.799.965-1.561.965-1.561,1.218-1.941,2.937-4.417,5.264-7.102.011-.013,0,0,0,0t0,0s19.51-21.465,47.144-15.618c3.048.645,27.445,6.222,34.824,28.127,3.655,10.851,1.421,32.652.103,37.058Z" style="fill: #1a0503;"/>
          <path d="M654.47,581.54c-7.709,6.532-14.684,9.206-18.203,10.318-3.361,1.062-6.255,1.552-7.867,1.819-6.134,1.017-11.201.948-14.55.722,3.168.663,8.195,1.389,14.424.878,3.797-.312,8.485-.696,13.701-3.115,6.898-3.199,10.77-8.093,12.495-10.622Z" style="fill: #332115;"/>
          <path d="M560.765,576.125c.026.723.258,4.98,4.047,8.596,2.017,1.924,4.183,2.852,5.283,3.253-3.179-.508-4.467-.545-4.986-.441-.161.032-.891.206-1.605-.16,0,0-.045-.024-.092-.051-2.67-1.488-2.79-7.516-2.647-11.197Z" style="fill: #332115;"/>
          <path d="M561.517,556.511c1.487-1.435,3.597-3.401,6.225-5.62,11.924-10.068,30.313-25.595,50.546-25.02,22.807.648,38.431,21.487,41.732,26.097,2.633-2.433,5.063-5.631,5.772-9.667,2.616-14.91-19.451-34.524-42.146-38.039-17.713-2.743-35.522,4.364-45.986,15.448-6.348,6.724-10.016,14.938-10.983,17.144-3.418,7.799-4.67,14.816-5.159,19.657Z" style="fill: #ccc; mix-blend-mode: multiply;"/>
          <g style="mix-blend-mode: soft-light; opacity: .69;">
            <path d="M585.285,561.134c-3.523,1.1-6.084,3.105-6.748,5.233-.177.568-.59,1.893-.019,3.171.296.663.743,1.065.962,1.252,2.46,2.093,4.92,4.185,7.381,6.278.89-.374,1.866-.544,2.83-.49.096,1.105.847,2.072,1.773,2.682s2.016.917,3.094,1.176c6.471,1.558,13.268,1.747,19.816.551.93-.17,1.878-.376,2.672-.889,1.061-.685,1.751-1.912,1.786-3.174,1.625-.077,3.269.324,4.676,1.14.266.154.548.329.855.305.227-.018.43-.144.62-.269,1.719-1.138,3.393-3.111,2.691-5.05.647-.993,2.237.493,3.336.048.291-.118.508-.363.705-.608,1.104-1.373,1.916-2.98,2.368-4.683.061-.23.115-.476.046-.704-.098-.32-.349-.503-.412-.552-.741-.571-1.651-2.881-2.298-3.903-.543-.858-1.596-1.909-3.856-2.616-.841,1.655-2.288,4.035-4.682,6.335-.279.268-5.855,5.489-13.633,6.472-8.797,1.112-18.024-3.499-23.962-11.705Z" style="fill: #c673a2;"/>
          </g>
        </g>
      </g>
    </g>
    <g id="layer7-Sofia-Ogen-Dicht" style="display: none;">
      <path d="M478.122,574.891s-18.282-27.488-53.164-27.488c-13.183,0-24.749,2.035-46.055,21.707,0,0,13.348-7.052,44.249-7.052,32.781,0,54.97,12.833,54.97,12.833Z" style="fill: #1a0503;"/>
      <path d="M566.089,577.413s18.282-27.488,53.164-27.488c13.183,0,24.749,2.035,46.055,21.707,0,0-13.348-7.052-44.249-7.052-32.781,0-54.97,12.833-54.97,12.833Z" style="fill: #1a0503;"/>
      <g>
        <g>
          <path d="M492.294,459.28c-.518,3.346-.9,3.492-2.39,10.403-.991,4.558-1.654,8.3-2.069,10.804-2.264-1.619-4.706-3.104-7.348-4.433-27.592-13.939-63.638-4.298-92.6,7.956-1.685.714-3.341,1.429-4.969,2.145.646-4.208,1.995-10.157,5.067-16.841,2.309-5.024,6.026-11.407,9.434-14.897,16.189-16.577,61.498-4.795,61.738-6.159.13-.739-13.544-2.125-13.519-4.219.024-1.957,12.031-6.013,22.667-2.561,14.556,4.723,18.509,20.901,18.645,22.536.008.098.17,2.146.202,2.144.003,0,.005-.034.006-.105.107-7.992.222-15.993.344-24.075.735-.183,1.943-.33,3.01.405,1.752,1.209,2.348,4.289,2.45,7.505.151,4.143-.523,8.519-.668,9.392Z" style="fill: #261717;"/>
          <path d="M492.294,459.28c-.518,3.346-.9,3.492-2.39,10.403-.991,4.558-1.654,8.3-2.069,10.804-2.264-1.619-4.706-3.104-7.348-4.433-27.592-13.939-63.638-4.298-92.6,7.956,1.462-1.518,3.709-3.737,6.658-6.214,5.35-4.492,14.727-12.367,26.696-15.15,12.253-2.849,21.76.909,22.209-.554.647-2.111-20.052-7.032-19.413-10.128.65-3.149,23.031-2.726,33.627.748,6.121,2.007,9.605,3.642,9.605,3.642,4.76,2.234,6.65,3.819,7.221,3.356,1.615-1.307-11.901-15.267-10.388-16.632,1.443-1.302,18.393,7.176,21.687,22.117.57,2.583.626,4.886.519,6.702.943-2.438,2.171-5.81,3.43-9.881,1.714-5.584,2.66-9.842,3.222-12.13.151,4.143-.523,8.519-.668,9.392Z" style="fill: #160606;"/>
        </g>
        <g>
          <path d="M545.841,459.28c.518,3.346.9,3.492,2.39,10.403.991,4.558,1.654,8.3,2.069,10.804,2.264-1.619,4.706-3.104,7.348-4.433,27.592-13.939,63.638-4.298,92.6,7.956,1.685.714,3.341,1.429,4.969,2.145-.646-4.208-1.995-10.157-5.067-16.841-2.309-5.024-6.026-11.407-9.434-14.897-16.189-16.577-61.498-4.795-61.738-6.159-.13-.739,13.544-2.125,13.519-4.219-.024-1.957-12.031-6.013-22.667-2.561-14.556,4.723-18.509,20.901-18.645,22.536-.008.098-.17,2.146-.202,2.144-.003,0-.005-.034-.006-.105-.107-7.992-.222-15.993-.344-24.075-.735-.183-1.943-.33-3.01.405-1.752,1.209-2.348,4.289-2.45,7.505-.151,4.143.523,8.519.668,9.392Z" style="fill: #261717;"/>
          <path d="M545.841,459.28c.518,3.346.9,3.492,2.39,10.403.991,4.558,1.654,8.3,2.069,10.804,2.264-1.619,4.706-3.104,7.348-4.433,27.592-13.939,63.638-4.298,92.6,7.956-1.462-1.518-3.709-3.737-6.658-6.214-5.35-4.492-14.727-12.367-26.696-15.15-12.253-2.849-21.76.909-22.209-.554-.647-2.111,20.052-7.032,19.413-10.128-.65-3.149-23.031-2.726-33.627.748-6.121,2.007-9.605,3.642-9.605,3.642-4.76,2.234-6.649,3.819-7.221,3.356-1.615-1.307,11.901-15.267,10.388-16.632-1.443-1.302-18.393,7.176-21.687,22.117-.57,2.583-.626,4.886-.519,6.702-.943-2.438-2.171-5.81-3.43-9.881-1.714-5.584-2.66-9.842-3.222-12.13-.151,4.143.523,8.519.668,9.392Z" style="fill: #160606;"/>
        </g>
      </g>
    </g>
    <g id="layer6-Sofia-Mond-SmalOpen" style="display: none;">
      <g>
        <g style="mix-blend-mode: multiply; opacity: .3;">
          <path d="M490.271,724.222c5.575,2.658,14.672,12.43,26.432,13.357,18.578,1.464,32.837-10.613,38.992-13.546-6.968,12.166-20.974,25.725-35.477,24.759-19.839-1.322-29.394-23.603-29.947-24.57Z" style="fill: #bcbcbc; mix-blend-mode: multiply; opacity: .8;"/>
        </g>
        <path d="M576.46,699.96c-.681,1.253-1.475,1.846-2.652,2.607-1.066.706-2.132,1.212-3.165,1.498-1.808.521-2.717.996-3.254,1.161-.536.164-1.22.589-2.043,1.247-4.997,3.962-13.906,15.152-17.653,19.32-1.096,1.221-6.874,7.504-14.152,10.541-6.469,2.693-11.657,1.769-16.235.954-5.226-.931-11.826-2.114-18.86-8.594-2.575-2.374-8.821-8.788-14.967-17.055-.708-.951-1.637-2.238-2.686-3.565-2.552-3.205-5.806-6.674-7.965-6.097-.505.138-2.22.758-3.785-.885-.516-.545-.943-1.33-1.367-2.096-.553-1.014-1.166-2.21-1.152-3.294.01-.82.386-1.27.779-1.597.587-.454,1.239-.758,1.94-.859.189-.026.398-.026.588.203.156.203.251.506.326.783.29,1.002.412,2.61.797,3.491.471,1.091,1.53,1.719,2.164,2.152,1.248.861,2.505,1.739,3.724,2.19.247.095.489.166.718.167h.014c.403.072.776.051,1.139-.018.512-.068,1.012-.206,1.566-.274,2.51-.342-.511.746,7.981-1.174,13.996-3.168,16.37-5.981,23.469-4.932,1.689.256,3.769.739,7.113.745,4.385.033,7.513-.802,9.093-1.133,7.987-1.705,15.606.713,30.522,5.448,1.803.576,3.698.831,5.533,1.282.811.2,1.586.424,2.383.551.971.2,2.004.205,3.201-.206.758-.243,1.621-.708,2.248-1.75.571-.927.812-2.144.783-3.144-.016-.232-.032-.464-.07-.671-.065-.52-.183-1.015-.33-1.461-.03-.184-.082-.342-.134-.5,1.482-.316,3.008-.66,4.293-.208.28.106.683.159.899.661.43.997-.014,3.064-.8,4.511Z" style="fill: #290000;"/>
        <g>
          <path d="M488.548,702.559c1.514-.456,16.855-14.135,33.224-14.135s33.83,14.135,33.83,14.135c0,0-15.425,28.307-32.823,28.307s-34.231-28.307-34.231-28.307Z" style="fill: #490202;"/>
          <path d="M495.182,697.413c4.987,2.619,14.771,6.823,27.474,6.22,11.836-.562,20.779-5.041,25.56-7.932-2.322-1.148-5.684-2.785-9.763-4.681-8.989-4.178-13.498-6.223-16.377-6.884-3.699-.849-12.936-1.496-26.894,13.277Z" style="fill: #fff;"/>
          <path d="M525.018,722.322c9.095-1.117,24.468-10.152,20.696-12.495-8.797-5.461-27.183-4.324-36.933,4.89-2.187,2.067,7.142,8.721,16.237,7.604Z" style="fill: #ffbdb4; mix-blend-mode: overlay; opacity: .3;"/>
        </g>
        <path d="M476.528,702.082c2.06,5.987,8.614,22.963,23.149,32.836,2.815,1.912,10.964,6.977,22.118,7.04,2.324.013,11.631-.152,22.201-6.807,14.863-9.358,22.542-25.452,25.442-32.396-2.806-.266-6.873-.297-11.363,1.104-7.712,2.406-9.857,6.91-15.212,10.7-14.548,10.296-39.559,5.962-44.597-2.231-.635-1.033-2.193-4.144-5.702-6.388-1.915-1.225-3.67-1.718-16.036-3.858Z" style="fill: #332115;"/>
        <path d="M570.942,702.469c-1.734.403-4.388.932-7.649,1.224-19.154,1.715-23.472-7.974-39.02-8.418-15.521-.444-19.627,8.97-40.693,7.553-3.519-.237-6.391-.7-8.262-1.054.897.024,2.085-.029,3.437-.362,1.8-.443,3.065-1.178,3.666-1.54,5.647-3.402,8.47-5.103,11.796-8.221,4.416-4.139,18.671-13.894,32.189-12.577,7.732.753,15.031,5.76,29.63,15.774,2.685,1.842,5.679,3.255,8.184,5.335.37.307,1.293,1.092,6.723,2.286Z" style="fill: #7f451d;"/>
        <path d="M572.825,696.722c1.423-.678,2.503.105,2.627,1.718.125,1.632-.785,3.405-.902,3.626.249-.089,1.983-.747,3.48-3.329,1.115-1.923,1.86-4.493,1.622-5.908-.422-2.505-4.044-2.246-8.867,1.953.684.65,1.364,1.297,2.04,1.94Z" style="fill: #84185f; mix-blend-mode: multiply; opacity: .8;"/>
        <path d="M470.541,695.738c-1.267-.651-2.255.094-2.403,1.63-.149,1.554.629,3.25.728,3.461-.222-.086-1.762-.726-3.044-3.191-.952-1.831-1.558-4.272-1.314-5.615.432-2.379,3.666-2.144,7.921,1.863-.634.621-1.264,1.238-1.889,1.852Z" style="fill: #84185f; mix-blend-mode: multiply; opacity: .8;"/>
      </g>
      <path d="M530.797,724.121c-3.781.292,1.559,9.166,7.922,8.379s13.312-8.869,10.65-11.439c-2.662-2.57-14.791,2.768-18.572,3.06Z" style="fill: #ffccb8; mix-blend-mode: soft-light;"/>
    </g>
    <g id="layer5-Sofia-Mond-BreedOpen" style="display: none;">
      <g>
        <g style="mix-blend-mode: multiply; opacity: .3;">
          <path d="M479.07,723.102c5.575,2.658,14.672,12.43,26.432,13.357,18.578,1.464,56.733-10.613,62.888-13.546-6.968,12.166-34.759,27.053-49.262,26.087-19.839-1.322-39.504-24.931-40.058-25.898Z" style="fill: #bcbcbc; mix-blend-mode: multiply; opacity: .8;"/>
        </g>
        <path d="M589.154,693.079c-.681,1.253-1.475,1.846-2.652,2.607-1.066.706-2.132,1.212-3.165,1.498-1.808.521-2.717.996-3.254,1.161-.536.164-1.22.589-2.043,1.247-4.997,3.962-13.906,20.914-17.653,25.082-1.096,1.221-6.874,7.504-14.152,10.541-6.469,2.693-35.552,1.769-40.13.954-5.226-.931-11.826-2.114-18.86-8.594-2.575-2.374-8.821-8.788-14.967-17.055-.708-.951-1.637-2.238-2.686-3.565-2.552-3.205-5.806-12.436-7.965-11.859-.505.138-2.22.758-3.785-.885-.516-.545-.943-1.33-1.367-2.096-.553-1.014-1.166-2.21-1.152-3.294.01-.82.386-1.27.779-1.597.587-.454,1.239-.758,1.94-.859.189-.026.398-.026.588.203.156.203.251.506.326.783.29,1.002.412,2.61.797,3.491.471,1.091,1.53,1.719,2.164,2.152,1.248.861,2.505,1.739,3.724,2.19.247.095.489.166.718.167h.014c.403.072.776.051,1.139-.018.512-.068,1.012-.206,1.566-.274,2.51-.342-.511.746,7.981-1.174,13.996-3.168,16.37-5.981,23.469-4.932,1.689.256,3.769.739,7.113.745,4.385.033,31.408-.802,32.988-1.133,7.987-1.705,15.606.713,30.522,5.448,1.803.576,3.698.831,5.533,1.282.811.2,1.586.424,2.383.551.971.2,2.004.205,3.201-.206.758-.243,1.621-.708,2.248-1.75.571-.927.812-2.144.783-3.144-.016-.232-.032-.464-.07-.671-.065-.52-.183-1.015-.33-1.461-.03-.184-.082-.342-.134-.5,1.482-.316,3.008-.66,4.293-.208.28.106.683.159.899.661.43.997-.014,3.064-.8,4.511Z" style="fill: #290000;"/>
        <g>
          <path d="M466,695.468c1.514-.456,43.184-14.553,59.553-14.553s47.191,13.362,47.191,13.362c0,0-12.255,33.787-49.015,34.809-37.879-.255-57.73-33.617-57.73-33.617Z" style="fill: #490202;"/>
          <path d="M483.98,690.532c4.987,2.619,14.771,6.823,27.474,6.22,11.836-.562,44.675-5.041,49.456-7.932-2.322-1.148-5.684-2.785-9.763-4.681-8.989-4.178-36.636-4.883-40.019-4.564-3.779.357-13.19-3.816-27.147,10.957Z" style="fill: #fff;"/>
          <path d="M537.712,721.202c9.095-1.117,24.468-10.152,20.696-12.495-8.797-5.461-51.078-4.324-60.828,4.89-2.187,2.067,31.037,8.721,40.133,7.604Z" style="fill: #ffbdb4; mix-blend-mode: overlay; opacity: .3;"/>
        </g>
        <path d="M465.327,695.2c2.06,5.987,8.614,28.725,23.149,38.598,2.815,1.912,10.964,6.977,22.118,7.04,2.324.013,35.526-.152,46.097-6.807,14.863-9.358,22.542-31.214,25.442-38.158-2.806-.266-6.873-.297-11.363,1.104-7.712,2.406-9.857,12.672-15.212,16.462-14.548,10.296-63.454,5.962-68.493-2.231-.635-1.033-2.193-9.906-5.702-12.15-1.915-1.225-3.67-1.718-16.036-3.858Z" style="fill: #332115;"/>
        <path d="M583.636,695.587c-1.734.403-4.388.932-7.649,1.224-19.154,1.715-23.472-7.974-39.02-8.418-15.521-.444-43.523,8.97-64.589,7.553-3.519-.237-6.391-.7-8.262-1.054.897.024,2.085-.029,3.437-.362,1.8-.443,3.065-1.178,3.666-1.54,5.647-3.402,8.47-5.103,11.796-8.221,4.416-4.139,42.566-13.894,56.084-12.577,7.732.753,15.031,5.76,29.63,15.774,2.685,1.842,5.679,3.255,8.184,5.335.37.307,1.293,1.092,6.723,2.286Z" style="fill: #7f451d;"/>
        <path d="M585.519,689.841c1.423-.678,2.503.105,2.627,1.718.125,1.632-.785,3.405-.902,3.626.249-.089,1.983-.747,3.48-3.329,1.115-1.923,1.86-4.493,1.622-5.908-.422-2.505-4.044-2.246-8.867,1.953.684.65,1.364,1.297,2.04,1.94Z" style="fill: #84185f; mix-blend-mode: multiply; opacity: .8;"/>
        <path d="M459.339,688.856c-1.267-.651-2.255.094-2.403,1.63-.149,1.554.629,3.25.728,3.461-.222-.086-1.762-.726-3.044-3.191-.952-1.831-1.558-4.272-1.314-5.615.432-2.379,3.666-2.144,7.921,1.863-.634.621-1.264,1.238-1.889,1.852Z" style="fill: #84185f; mix-blend-mode: multiply; opacity: .8;"/>
      </g>
      <path d="M536.204,725.085c-3.781.292,1.559,9.166,7.922,8.379s13.312-8.869,10.65-11.439c-2.662-2.57-14.791,2.768-18.572,3.06Z" style="fill: #ffccb8; mix-blend-mode: soft-light;"/>
    </g>
    <g id="layer4-Sofia-Mond-Sip" style="display: none;">
      <g>
        <g style="mix-blend-mode: multiply; opacity: .3;">
          <path d="M486.998,722.033c5.806,2.767,15.279,6.401,27.525,7.367,19.347,1.525,34.196-4.509,40.606-7.563-7.256,12.67-21.842,20.247-36.945,19.24-20.66-1.377-30.61-18.037-31.186-19.043Z" style="fill: #bcbcbc; mix-blend-mode: multiply; opacity: .8;"/>
        </g>
        <path d="M456.399,712.511c.826-.999,1.788-1.473,3.216-2.08,1.293-.563,2.585-.967,3.838-1.195,2.193-.416,3.294-.795,3.946-.926.65-.131,1.479-.47,2.477-.994,6.058-3.161,16.862-12.087,21.405-15.412,1.329-.974,8.334-5.986,17.16-8.409,7.844-2.148,14.134-1.411,19.685-.761,6.337.743,14.339,1.686,22.868,6.856,3.122,1.894,10.696,7.01,18.148,13.605.858.758,1.985,1.785,3.257,2.844,3.094,2.557,7.04,5.324,9.658,4.863.612-.11,2.691-.604,4.589.706.626.435,1.143,1.061,1.658,1.672.67.809,1.413,1.763,1.397,2.628-.013.654-.468,1.013-.945,1.274-.712.362-1.503.604-2.352.685-.229.02-.483.02-.713-.162-.189-.162-.304-.404-.395-.625-.352-.799-.499-2.082-.967-2.785-.571-.87-1.855-1.371-2.623-1.717-1.513-.687-3.037-1.387-4.515-1.747-.299-.076-.593-.132-.87-.133h-.016c-.489-.057-.94-.04-1.381.014-.621.054-1.227.164-1.899.219-3.043.273.619-.596-9.677.936-16.971,2.528-19.849,4.772-28.456,3.934-2.048-.204-4.57-.589-8.624-.594-5.316-.026-9.109.64-11.025.904-9.685,1.36-18.923-.569-37.008-4.346-2.186-.46-4.483-.663-6.709-1.023-.983-.16-1.923-.339-2.89-.439-1.177-.16-2.429-.164-3.881.164-.92.193-1.966.565-2.726,1.396-.693.74-.985,1.711-.95,2.508.019.185.039.371.085.536.079.414.221.81.4,1.165.036.147.099.273.163.399-1.797.252-3.647.526-5.205.166-.34-.085-.828-.127-1.09-.527-.521-.795.017-2.444.97-3.598Z" style="fill: #290000;"/>
        <path d="M578.656,710.233c-2.696.114-6.417.226-10.849.216,0,0-7.382.495-13.764-.414-11.892-1.695-18.133-6.49-31.872-6.777-13.448-.281-19.569,4.06-31.857,5.836-2.009.29-7.67.113-15.736.616-4.158.259-7.568.549-9.825.756,1.038-.478,2.544-1.209,4.272-2.196,5.422-3.097,8.685-6.228,10.211-7.648,0,0,6.265-5.829,14.125-11.199,12.502-8.54,29.407-8.346,30.123-8.331,19.419.429,34.296,12.148,38.292,15.979.99.949,4.698,4.661,10.623,8.966,2.623,1.906,4.871,3.34,6.257,4.196Z" style="fill: #7f451d;"/>
        <path d="M486.919,712.173c23.279.994,46.558,1.988,69.836,2.982-2.63-2.299-7.104-5.595-13.513-7.559-.063-.019-.231-.069-.661-.192-4.442-1.269-12.94-3.479-17.763-4.08-5.105-.636-10.105.63-20.104,3.162-4.93,1.248-10.996,3.047-17.794,5.686Z" style="fill: #ffe3f1;"/>
        <path d="M463.09,710.509c6.344-1.262,15.722-3.039,27.208-4.88,15.809-2.533,23.875-3.796,31.768-3.642,5.071.099,8.143.538,30.179,4.37,9.455,1.644,18.401,3.217,26.791,4.706-1.999-.035-5.186.138-8.613,1.517-5.088,2.048-7.902,5.627-8.754,6.619-6.49,7.547-26.413,12.929-43.877,12.242-21.9-.862-39.057-11.232-42.462-15.527-.355-.448-1.659-2.215-4.089-3.583-2.869-1.615-5.906-1.883-8.152-1.823Z" style="fill: #332115;"/>
        <path d="M460.807,715.093c-1.725.541-3.035-.084-3.185-1.371-.152-1.302.952-2.716,1.093-2.892-.302.071-2.405.595-4.22,2.656-1.352,1.534-2.256,3.584-1.966,4.713.512,1.998,4.903,1.791,10.752-1.558-.829-.518-1.654-1.034-2.474-1.547Z" style="fill: #84185f; mix-blend-mode: multiply; opacity: .8;"/>
        <path d="M584.827,715.879c1.536.519,2.734-.075,2.913-1.3.181-1.24-.762-2.593-.883-2.761.269.069,2.137.579,3.691,2.545,1.154,1.461,1.889,3.408,1.593,4.479-.524,1.898-4.445,1.71-9.605-1.486.768-.496,1.532-.988,2.29-1.477Z" style="fill: #84185f; mix-blend-mode: multiply; opacity: .8;"/>
      </g>
      <path d="M533.087,715.538c-3.781.292,1.559,9.166,7.922,8.379s13.312-8.869,10.65-11.439c-2.662-2.57-14.791,2.768-18.572,3.06Z" style="fill: #ffccb8; mix-blend-mode: soft-light;"/>
    </g>
    <g id="layer3-Sofia-Mond-Neutraal" style="display: none;">
      <g>
        <g style="mix-blend-mode: multiply; opacity: .3;">
          <path d="M486.279,718.042c5.575,2.658,14.672,6.147,26.432,7.074,18.578,1.464,32.837-4.33,38.992-7.263-6.968,12.166-20.974,19.442-35.477,18.476-19.839-1.322-29.394-17.32-29.947-18.287Z" style="fill: #bcbcbc; mix-blend-mode: multiply; opacity: .8;"/>
        </g>
        <path d="M479.535,714.781c18.118,20.039,58.914,17.972,78.341,1.284,11.334-9.736,29.62-20.531,29.62-20.531,0,0-48.017-3.657-71.281,1.818-25.915,6.098-59.305-3.426-59.305-3.426,0,0,13.28,10.519,22.625,20.856Z" style="fill: #332115;"/>
        <path d="M456.91,693.925s12.023,10.071,37.324,8.327c25.301-1.743,30.722,5.011,61.894-.469,13.108-2.304,31.368-6.25,31.368-6.25,0,0-15.932,1.338-35.709-9.241-19.052-10.192-47.56-8.124-64.23.881-13.31,7.19-30.647,6.751-30.647,6.751Z" style="fill: #7f451d;"/>
        <path d="M585.906,687.525c1.653,10.262,1.259,11.906-1.149,16.762,0,0,5.226-2.894,5.467-8.052s-4.318-8.71-4.318-8.71Z" style="fill: #84185f; mix-blend-mode: multiply; opacity: .8;"/>
        <path d="M458.499,702.596c-1.653-10.262-1.259-11.906,1.149-16.762,0,0-5.226,2.894-5.467,8.052s4.318,8.71,4.318,8.71Z" style="fill: #84185f; mix-blend-mode: multiply; opacity: .8;"/>
      </g>
      <path d="M536.204,709.226c-3.781.292,1.559,9.166,7.922,8.379s13.312-8.869,10.65-11.439c-2.662-2.57-14.791,2.768-18.572,3.06Z" style="fill: #ffccb8; mix-blend-mode: soft-light;"/>
    </g>
    <g id="layer2-Sofia-Mond-Lach">
      <g>
        <path d="M593.662,688.697c-.701,1.091-1.599,1.666-2.941,2.421-1.214.698-2.447,1.235-3.66,1.591-2.122.64-3.168,1.133-3.798,1.33-.628.197-1.41.622-2.337,1.252-5,3.373-9.255,7.827-13.5,11.977-1.873,1.831-3.707,3.705-5.637,5.483-2.402,2.212-6.296.852-8.682-1.007-2.267-1.766-3.759-4.251-4.942-6.782-.49-1.05-.928-2.296-.334-3.297.477-.803,1.471-1.181,2.393-1.495,8.306-2.832,16.794-5.196,25.401-7.075,3.235-.706,6.908-.442,10.005-1.497.888-.287,1.88-.767,2.536-1.682.599-.816.775-1.825.648-2.626-.041-.185-.082-.37-.147-.532-.126-.41-.314-.795-.532-1.135-.053-.144-.13-.265-.208-.386,1.749-.435,3.549-.897,5.133-.69.346.051.834.045,1.14.422.608.75.267,2.467-.541,3.728Z" style="fill: #290000;"/>
        <path d="M588.998,686.534c1.645-.719,3.014-.22,3.312,1.063.302,1.298-.627,2.836-.745,3.028.291-.102,2.311-.842,3.868-3.103,1.16-1.683,1.815-3.843,1.398-4.952-.739-1.964-5.062-1.315-10.461,2.652.881.44,1.757.877,2.629,1.313Z" style="fill: #84185f; mix-blend-mode: multiply; opacity: .8;"/>
        <path d="M495.846,703.09c-.034,1.558-.868,3.122-2.083,4.229-1.619,1.476-3.802,2.273-5.974,2.851-2.378.633-4.855,1.049-7.318.859-5.825-.449-9.144-4.418-12.543-8.38-.744-.865-1.715-2.032-2.826-3.248-2.705-2.94-6.222-6.193-8.87-6.04-.62.038-2.741.29-4.435-1.254-.558-.512-.983-1.203-1.407-1.88-.551-.894-1.154-1.942-1.019-2.81.102-.657.602-.965,1.108-1.17.753-.28,1.567-.43,2.417-.411.229.007.48.037.682.247.165.185.245.442.304.676.238.846.207,2.155.572,2.918.445.944,1.643,1.6,2.355,2.039,1.399.87,2.809,1.756,4.219,2.294.285.112.568.204.857.239.475.116.923.152,1.366.149,2.115-.013,3.731,1.336,5.773,1.918,2.299.656,4.72.886,7.115.937,4.071.087,8.164-.311,12.206.15,2.969.339,6.292,1.491,7.255,4.146.182.501.259,1.02.248,1.54Z" style="fill: #290000;"/>
        <path d="M454.179,688.022c-1.446-.705-2.711-.249-3.056.964-.349,1.226.397,2.7.493,2.884-.256-.101-2.031-.836-3.295-3-.939-1.607-1.398-3.654-.959-4.697.778-1.848,4.625-1.195,9.282,2.634-.827.408-1.649.813-2.465,1.215Z" style="fill: #84185f; mix-blend-mode: multiply; opacity: .8;"/>
        <path d="M462.411,695.337c1.159,4.178,8.19,27.96,31.793,38.913,11.054,5.129,21.94,5.68,26.701,5.699,2.26.009,14.298-.059,26.802-5.51,25.94-11.309,34.334-37.267,35.678-41.664-9.015,2.03-18.03,4.059-27.045,6.089-14.336-.323-28.672-.647-43.007-.97-4.981.429-10.314.688-15.961.693-13.226.011-25.002-1.379-34.961-3.25Z" style="fill: #332115;"/>
        <path d="M576.588,697.894c-35.223.693-70.447,1.386-105.67,2.079,9.37,6.125,26.266,15.012,47.861,15.3,9.77.131,17.699-1.536,21.748-2.411,16.487-3.562,28.687-10.2,36.061-14.968Z" style="fill: #ffe3f1;"/>
        <path d="M584.831,691.829c-14.33,9.584-25.534,11.219-33.353,10.77-6.539-.375-22.107-2.781-33.122-2.533-9.213.207-12.384,1.307-19.009,2.024,0,0-3.28.348-7.043.504-8.829.366-14.744.611-20.795-1.651-2.596-.97-6.51-2.885-10.482-6.934,1.723.299,4.404.647,7.674.559,5.96-.161,10.368-1.678,11.897-2.195,23.063-7.8,34.594-11.699,42.786-11.248,14.516.8,21.594,9.658,37.276,11.078,6.58.596,13.268.425,13.268.425,4.286-.11,7.982-.444,10.903-.799Z" style="fill: #7f451d;"/>
        <g style="mix-blend-mode: multiply; opacity: .3;">
          <path d="M488.314,731.159c5.575,2.658,14.672,6.147,26.432,7.074,18.578,1.464,32.837-4.33,38.992-7.263-6.968,12.166-20.974,19.442-35.477,18.476-19.839-1.322-29.394-17.32-29.947-18.287Z" style="fill: #bcbcbc; mix-blend-mode: multiply; opacity: .8;"/>
        </g>
      </g>
      <path d="M538.597,720.12c-3.781.292,1.559,9.166,7.922,8.379s13.312-8.869,10.65-11.439c-2.662-2.57-14.791,2.768-18.572,3.06Z" style="fill: #ffccb8; mix-blend-mode: soft-light;"/>
    </g>
    <g id="layer1-Sofia-Shirt" style="display: none;">
      <g>
        <path d="M786.617,927.381s-12.763,44.962-26.68,96.619h61.713c-8.624-87.036-35.033-96.619-35.033-96.619Z" style="fill: #8b558e;"/>
        <path d="M262.379,927.38s-26.408,9.586-35.031,96.62h61.712c-13.917-51.658-26.682-96.62-26.682-96.62Z" style="fill: #8b558e;"/>
        <path d="M784.732,927.38s-140.078-75.029-265.988-75.029-256.365,75.029-256.365,75.029c0,0,9.34,40.22,22.014,96.62h482.289c10.455-49.746,18.05-96.62,18.05-96.62Z" style="fill: #eaeaea;"/>
        <path d="M441.016,860.695s-.031,0-.084.01c-.251-3.287.084-.01.084-.01Z" style="fill: none; stroke: #fffbf3; stroke-miterlimit: 10; stroke-width: 3.152px;"/>
        <path d="M452.177,987.081c-8.628-95.467-10.806-120.711-11.245-126.376-1.277.095-16.909,1.477-43.252,8.544-2.063.555-4.188,1.141-6.387,1.77-31.505,9.004-76.192,25.683-128.91,56.361,0,0,8.696,40.339,20.566,96.619h173.859c-1.935-12.192-3.508-24.505-4.631-36.919Z" style="fill: #8b558e;"/>
        <path d="M440.016,865.36l1.003-47.762s35.22,9.624,86.011,9.624,81.267-9.624,81.267-9.624v47.762l-84.141,39.119-84.141-39.119Z" style="fill: #f6f6f6;"/>
        <path d="M452.177,987.081c-8.628-95.467-10.806-120.711-11.245-126.376.084-3.475,1.445-14.595.084-43.106-10.156,18.533-26.416,36.353-43.336,51.65-24.763,22.375-50.938,39.327-61.523,45.116l41.703,25.663s-39.023,5.35-60.413-2.671c0,0,4.222,34.542,20.422,86.642h118.94c-1.935-12.192-3.508-24.505-4.631-36.919Z" style="fill: #764277;"/>
        <g>
          <path d="M786.833,927.381c-52.718-30.679-97.404-47.357-128.91-56.361-30.196-8.617-48.257-10.208-49.639-10.314-.44,5.665-2.618,30.909-11.245,126.376-1.122,12.414-2.694,24.727-4.627,36.919h179.977c11.87-56.28,14.444-96.619,14.444-96.619Z" style="fill: #8b558e;"/>
          <path d="M731.771,937.358c-21.391,8.02-60.413,2.671-60.413,2.671l41.703-25.663c-17.831-9.747-79.845-51.144-104.863-96.767-1.359,28.515.087,40.032.087,43.108-.44,5.665-2.618,30.909-11.245,126.376-1.122,12.414-2.694,24.727-4.627,36.919h118.937c16.2-52.099,20.422-86.642,20.422-86.642Z" style="fill: #764277;"/>
        </g>
      </g>
    </g>
  </g>
</svg>