<?xml version="1.0" encoding="UTF-8"?>
<svg xmlns="http://www.w3.org/2000/svg" version="1.1" xmlns:xlink="http://www.w3.org/1999/xlink" viewBox="0 0 1024 1024">
  <!-- Generator: Adobe Illustrator 29.6.1, SVG Export Plug-In . SVG Version: 2.1.1 Build 9)  -->
  <defs>
    <linearGradient id="GradientFill_15" data-name="GradientFill 15" x1="431.539" y1="529.235" x2="431.497" y2="502.791" gradientUnits="userSpaceOnUse">
      <stop offset="0" stop-color="#230037"/>
      <stop offset="1" stop-color="#000"/>
    </linearGradient>
    <linearGradient id="GradientFill_151" data-name="GradientFill 15" x1="613.979" y1="531.198" x2="613.937" y2="504.754" xlink:href="#GradientFill_15"/>
  </defs>
  <g style="isolation: isolate;">
    <g id="Luca_x5F_Hoofd_x5F_Zonder_mond" style="display: none;">
      <g>
        <path d="M640.918,867.727s-47.627,69.046-120.734,69.046-120.912-69.046-120.912-69.046c0,0,36.177-9.169,53.044-21.35,6.4-4.62,10.002-24.757,12.058-48.999v-.011c3.627-42.827,2.509-99.811,2.509-99.811l52.969-2.948,52.99,2.948s-1.622,96.344,7.736,133.731c1.902,7.547,4.26,12.953,7.226,15.091,16.912,12.182,53.114,21.35,53.114,21.35Z" style="fill: #f3b980;"/>
        <path d="M580.578,831.286c-23.027,32.322-89.516,25.327-116.204-33.908v-.011c3.627-42.827,2.509-99.811,2.509-99.811l52.969-2.948,52.99,2.948s-1.622,96.344,7.736,133.731Z" style="fill: #db9d6a;"/>
      </g>
      <g>
        <g>
          <path d="M656.292,695.824c34.519-53.366,40.092-119.005,40.424-123.295.011-.145.018-.233.018-.233,0,0-.006.086-.018.233-.229,3.012-2.806,36.578-6.375,67.736,9.365-32.021,20.721-79.613,20.246-147.599-.679-97.293,3.347-251.146-185.484-255.538v-.111c-.858.011-1.683.041-2.533.056-.849-.015-1.674-.045-2.532-.056v.111c-188.82,4.393-184.373,158.245-184.786,255.538-.238,56.047,7.527,98.239,15.558,129.27-3.134-27.948-5.328-55.734-5.544-58.503-.012-.149-.018-.237-.018-.237,0,0,.007.087.018.237.345,4.317,6.099,69.937,40.752,123.291,30.327,46.693,67.429,76.513,85.12,89.137,19.084,11.288,37.551,18.747,52.195,18.747,16.608,0,36.17-5.645,55.901-15.453,19.364-14.875,50.791-42.718,77.06-83.331Z" style="fill: #f3b980;"/>
          <g>
            <path d="M689.955,532.781s30.08-23.465,44.594-23.465,24.403,55.358,21.369,76.25c-2.957,20.358-38.272,70.508-58.518,70.508-4.693,0-18.58-12.468-18.58-12.468l11.135-110.824Z" style="fill: #f3b980;"/>
            <path d="M695.804,600.823s19.768-49.836,35.37-49.79c15.601.047,12.243,33.603,12.243,33.603,0,0-1.914-12.994-12.614-16.082,0,0,11.675,40.459-8.034,58.076-15.156,13.546-8.511-34.097-13.756-30.468-5.222,3.612-18.96,21.77-18.96,21.77l5.751-17.109Z" style="fill: #db9d6a;"/>
            <path d="M690.053,617.933s12.733-37.664,22.223-49.772c0,0,16.85-5.876,19.542,17.91,2.613,23.095-4.677,45.569-15.788,42.38-11.158-3.202,3.131-32.183-5.242-33.238-8.384-1.057-20.734,22.72-20.734,22.72Z" style="fill: #cc8550;"/>
            <path d="M354.877,532.781s-30.144-23.465-44.658-23.465-24.252,55.358-21.161,76.25c3.012,20.358,38.465,70.508,58.711,70.508,4.693,0,18.546-12.468,18.546-12.468l-11.438-110.824Z" style="fill: #f3b980;"/>
            <path d="M349.215,600.823s-19.904-49.836-35.506-49.79c-15.601.047-12.151,33.603-12.151,33.603,0,0,1.879-12.994,12.57-16.082,0,0-11.565,40.459,8.193,58.076,15.193,13.546,8.418-34.097,13.673-30.468,5.231,3.612,19.019,21.77,19.019,21.77l-5.798-17.109Z" style="fill: #db9d6a;"/>
            <path d="M355.013,617.933s-12.836-37.664-22.36-49.772c0,0-16.866-5.876-19.492,17.91-2.55,23.095,4.801,45.569,15.904,42.38,11.149-3.202-3.219-32.183,5.151-33.238,8.382-1.057,20.797,22.72,20.797,22.72Z" style="fill: #cc8550;"/>
          </g>
          <path d="M565.556,595.5s.908,3.245,2.444,8.667c1.538,5.426-.551,8.379-6.889,9.749-5.143,1.111-16.539,6.989-18.553,9.197-5.558,5.11-14.784,6.965-20.15,6.965-5.682-.491-15.835-1.015-21.279-6.965-2.02-2.208-13.564-8.651-19.629-11.057-4.966-1.97-6.469-2.074-4.944-7.5-.098-3.034,2.291-7.255,2.291-7.255-12.11,13.552-4.34,15.764-2.898,16.481,1.443.718,20.27,11.738,27.719,14.829,4.268,1.771,14.186,2.806,18.742,2.806,4.556,0,13.305-1.035,17.568-2.806,7.44-3.091,26.291-14.111,27.732-14.829,1.441-.718,5.401-7.449-2.155-18.282Z" style="fill: #ffc9a1;"/>
          <path d="M562.775,590.71s1.833,4.514,3.369,9.935c1.538,5.426,1.856,8.345-4.482,9.715-5.143,1.111-16.539,6.989-18.553,9.197-5.427,5.95-15.337,9.18-20.702,9.18s-15.282-3.23-20.726-9.18c-2.02-2.208-13.269-6.792-19.335-9.197-4.966-1.97-5.277-4.288-3.753-9.715,1.522-5.421,3.342-9.935,3.342-9.935-12.11,13.552-6.878,18.799-5.435,19.517,1.443.718,20.299,13.291,27.748,16.382,4.268,1.771,13.604,3.469,18.16,3.469,4.556,0,13.887-1.697,18.15-3.469,7.44-3.091,26.262-15.664,27.703-16.382,1.441-.718,6.659-5.964-5.487-19.517Z" style="fill: #db9d6a;"/>
        </g>
        <g>
          <path d="M722.022,516.433s-9.435,10.289-13.29,23.252c-.285.946-.564,2.123-.824,3.517,0,0,0,.013,0,.026-3.533,17.755-6.654,68.645-6.654,68.645l-5.075-25.227c3.244-25.444,4.349-62.444,4.683-77.415q0-.013,0-.025c.087-4.204.119-6.683.119-6.683-2.883-26.228-16.099-103.899-29.521-154.813-6.76-25.652-13.376-33.48-19.127-36.159-16.995-7.928-49.063-7.797-49.063-7.797l11.056-10.431c-1.063.381-38.697,13.748-65.177,11.218-8.409-.799-22.132-10.647-22.132-10.647l-4.277,11.9c-30.92,4.884-68.563-3.816-68.563-3.816l-15.178-3.586c-10.876,4.659-20.209-15.443-50.826,18.734-6.46,7.204-11.789,5.388-16.595,16.247-1.245,2.817-2.433,5.72-3.576,8.722-.026.06-.039.096-.051.121-.013.024-.013.036-.013.036-24.151,63.248-26.728,163.94-26.728,163.94l.48,4.484,8.064,75.97-7.884,33.485s-.892-58.544-4.646-76.493c-1.615-7.747-3.85-13.985-5.853-18.545-2.62-5.965-7.918-8.778-7.918-8.778,0,0,7.257-126.671,18.676-190.742,3.033-17.05,6.311-18.657,10.491-23.751.05-.06.099-.119.161-.179,9.516-11.161,65.021-50.241,66.75-51.004.012,0,.012-.012.024-.012l.012-.012s30.945-27.049,89.615-29.214c84.255-3.105,114.519,24.569,114.519,24.569,0,0,23.59,27.438,45.152,43.371,17.338,12.825,33.529,27.508,35.406,38.673.013.024.013.036.013.036,4.193,25.286,17.749,188.382,17.749,188.382Z" style="fill: #93641f;"/>
          <path d="M713.904,422.604c-19.106-21.681-40.031-65.865-40.031-65.865,0,0,17.026,77.324,44.39,115.437l-4.359-49.572Z" style="fill: #93641f;"/>
          <path d="M331.893,406.798c26.639-41.457,34.516-81.231,34.516-81.231,0,0-19.344,94.029-39.536,140.286l5.021-59.054Z" style="fill: #93641f;"/>
          <path d="M704.259,328.015c-.295-.637,16.681,121.693,3.286,117.673-13.59-4.09-36.059-99.502-36.085-97.98-6.76-25.652-13.376-33.48-19.127-36.159-16.995-7.928-49.063-7.797-49.063-7.797l11.056-10.431c-1.063.381-38.697,13.748-65.177,11.218-8.409-.799-22.132-10.647-22.132-10.647l-4.277,11.9c-30.92,4.884-68.563-3.816-68.563-3.816l-15.178-3.586c-10.876,4.659-20.209-15.443-50.826,18.734-6.46,7.204-11.789,5.388-16.595,16.247,3.088-8.892-33.187,103.688-33.187,103.688-14.679,0,3.739-111.487,3.739-111.487,3.033-17.05,6.311-18.657,10.491-23.751.05-.06.099-.119.161-.179l3.703,5.463c21.264,8.965,50.22-15.341,50.22-15.341,0,0-5.22-29.627,12.827-41.126.012,0,.012-.012.024-.012-.269.434-6.913,25.394-.481,33.399,6.59,8.19,37.768,9.938,49.184,8.785,11.412-1.153,33.809-8.946,33.809-8.946,0,0-13.999-25.48-14.969-37.892-.461-5.914,1.361-16.639,1.361-16.639,0,0,.426,5.929,2.832,11.413,9.475,21.626,43.612,51.469,52.024,53.847,8.418,2.379,38.828,5.356,52.378-2.378,13.53-7.716-.633-54.031-.633-54.031,0,0,20.992,28.104,18.968,46.908,0,0,9.648-17.604,14.571-28.569-.132.706-2.082,26.743-7.823,38.463-2.33,4.761,53.908,13.707,48.077-5.645,17.338,12.825,33.529,27.508,35.406,38.673Z" style="fill: #ad7634;"/>
          <path d="M493.7,233.446c1.532,14.157,15.835,25.004,15.835,25.004,0,0,5.18-9.399,25.071-3.919,19.925,5.488,66.319,3.839,66.319,3.839l-3.99-15.354s-1.125,5.645-10.264,6.036c-9.14.391-63.614-6.756-77.117-7.031-13.502-.276-15.855-8.574-15.855-8.574Z" style="fill: #d8bb82;"/>
          <path d="M482.576,236.95s-3.316,10.374,4.284,17.58c0,0-50.044,1.567-66.302,7.451,0,0-2.849-12.778,8.325-15.981,0,0-4.795,1.878-.046,3.442,4.751,1.565,43.956-4.299,47.055-7.032,3.096-2.731,6.684-5.459,6.684-5.459Z" style="fill: #d8bb82;"/>
          <path d="M608.097,245.973s6.661,6.438,6.144,12.629l9.721,3.379s7.137-6.29,5.786-9.8l-21.652-6.208Z" style="fill: #d8bb82;"/>
        </g>
      </g>
      <path d="M616.882,675.009c0,23.313-44.793,73.447-96.787,73.447s-91.501-50.133-91.501-73.447,40.816-17.872,92.81-17.872,95.478-5.441,95.478,17.872Z" style="fill: #f3b980;"/>
      <path d="M522.85,777.435c91.422-13.74,154.298-93.297,176.361-186.725,0,0-13.174,25.795-24.433,48.216-38.9,77.462-134.273,131.9-147.747,131.555-13.474-.346-38.813-.716-93.973-52.169-55.16-51.454-80.502-116.719-86.417-161.006h0c2.511,18.921,2.425,45.017,9.026,64.583,30.272,89.733,114.917,153.338,167.184,155.546Z" style="fill: #dd9f68; fill-rule: evenodd;"/>
      <path d="M402.511,693.602c-20.178,5.547-54.872-109.949-54.723-109.389-31.918,117.009,62.286,208.657,183.737,231.477,100.795-21.683,183.519-78.605,168.936-230.77-19.898,38.839-9.777,53.486-47.419,105.398l-.701,1.408c-30.956-28.313-9.787-89.769-112.511-52.407-51.978,18.905-117.872-69.021-137.319,54.283Z" style="fill: #93641f; fill-rule: evenodd;"/>
      <path d="M441.097,638.01c19.028-10.499,45.989,30.185,132.525,2.24,57.139-18.451,97,99.216-7.324,90.729-11.602-.944-15.898-2.51-37.447-2.241-11.433.143-31.019,1.385-43.234,2.921-49.356,6.207-97.021-64.681-44.52-93.649Z" style="fill: #f3b980; fill-rule: evenodd;"/>
      <g>
        <path d="M640.918,867.727s-47.627,69.046-120.734,69.046-120.912-69.046-120.912-69.046c0,0,36.177-9.169,53.044-21.35,6.4-4.62,10.002-24.757,12.058-48.999v-.011c3.627-42.827,2.509-99.811,2.509-99.811l52.969-2.948,52.99,2.948s-1.622,96.344,7.736,133.731c1.902,7.547,4.26,12.953,7.226,15.091,16.912,12.182,53.114,21.35,53.114,21.35Z" style="fill: #f3b980;"/>
        <path d="M580.578,831.286c-23.027,32.322-89.516,25.327-116.204-33.908v-.011c3.627-42.827,2.509-99.811,2.509-99.811l52.969-2.948,52.99,2.948s-1.622,96.344,7.736,133.731Z" style="fill: #db9d6a;"/>
      </g>
      <g>
        <g>
          <path d="M656.292,695.824c34.519-53.366,40.092-119.005,40.424-123.295.011-.145.018-.233.018-.233,0,0-.006.086-.018.233-.229,3.012-2.806,36.578-6.375,67.736,9.365-32.021,20.721-79.613,20.246-147.599-.679-97.293,3.347-251.146-185.484-255.538v-.111c-.858.011-1.683.041-2.533.056-.849-.015-1.674-.045-2.532-.056v.111c-188.82,4.393-184.373,158.245-184.786,255.538-.238,56.047,7.527,98.239,15.558,129.27-3.134-27.948-5.328-55.734-5.544-58.503-.012-.149-.018-.237-.018-.237,0,0,.007.087.018.237.345,4.317,6.099,69.937,40.752,123.291,30.327,46.693,67.429,76.513,85.12,89.137,19.084,11.288,37.551,18.747,52.195,18.747,16.608,0,36.17-5.645,55.901-15.453,19.364-14.875,50.791-42.718,77.06-83.331Z" style="fill: #f3b980;"/>
          <g>
            <path d="M689.955,532.781s30.08-23.465,44.594-23.465,24.403,55.358,21.369,76.25c-2.957,20.358-38.272,70.508-58.518,70.508-4.693,0-18.58-12.468-18.58-12.468l11.135-110.824Z" style="fill: #f3b980;"/>
            <path d="M695.804,600.823s19.768-49.836,35.37-49.79c15.601.047,12.243,33.603,12.243,33.603,0,0-1.914-12.994-12.614-16.082,0,0,11.675,40.459-8.034,58.076-15.156,13.546-8.511-34.097-13.756-30.468-5.222,3.612-18.96,21.77-18.96,21.77l5.751-17.109Z" style="fill: #db9d6a;"/>
            <path d="M690.053,617.933s12.733-37.664,22.223-49.772c0,0,16.85-5.876,19.542,17.91,2.613,23.095-4.677,45.569-15.788,42.38-11.158-3.202,3.131-32.183-5.242-33.238-8.384-1.057-20.734,22.72-20.734,22.72Z" style="fill: #cc8550;"/>
            <path d="M354.877,532.781s-30.144-23.465-44.658-23.465-24.252,55.358-21.161,76.25c3.012,20.358,38.465,70.508,58.711,70.508,4.693,0,18.546-12.468,18.546-12.468l-11.438-110.824Z" style="fill: #f3b980;"/>
            <path d="M349.215,600.823s-19.904-49.836-35.506-49.79c-15.601.047-12.151,33.603-12.151,33.603,0,0,1.879-12.994,12.57-16.082,0,0-11.565,40.459,8.193,58.076,15.193,13.546,8.418-34.097,13.673-30.468,5.231,3.612,19.019,21.77,19.019,21.77l-5.798-17.109Z" style="fill: #db9d6a;"/>
            <path d="M355.013,617.933s-12.836-37.664-22.36-49.772c0,0-16.866-5.876-19.492,17.91-2.55,23.095,4.801,45.569,15.904,42.38,11.149-3.202-3.219-32.183,5.151-33.238,8.382-1.057,20.797,22.72,20.797,22.72Z" style="fill: #cc8550;"/>
          </g>
          <path d="M565.556,595.5s.908,3.245,2.444,8.667c1.538,5.426-.551,8.379-6.889,9.749-5.143,1.111-16.539,6.989-18.553,9.197-5.558,5.11-14.784,6.965-20.15,6.965-5.682-.491-15.835-1.015-21.279-6.965-2.02-2.208-13.564-8.651-19.629-11.057-4.966-1.97-6.469-2.074-4.944-7.5-.098-3.034,2.291-7.255,2.291-7.255-12.11,13.552-4.34,15.764-2.898,16.481,1.443.718,20.27,11.738,27.719,14.829,4.268,1.771,14.186,2.806,18.742,2.806,4.556,0,13.305-1.035,17.568-2.806,7.44-3.091,26.291-14.111,27.732-14.829,1.441-.718,5.401-7.449-2.155-18.282Z" style="fill: #ffc9a1;"/>
          <path d="M562.775,590.71s1.833,4.514,3.369,9.935c1.538,5.426,1.856,8.345-4.482,9.715-5.143,1.111-16.539,6.989-18.553,9.197-5.427,5.95-15.337,9.18-20.702,9.18s-15.282-3.23-20.726-9.18c-2.02-2.208-13.269-6.792-19.335-9.197-4.966-1.97-5.277-4.288-3.753-9.715,1.522-5.421,3.342-9.935,3.342-9.935-12.11,13.552-6.878,18.799-5.435,19.517,1.443.718,20.299,13.291,27.748,16.382,4.268,1.771,13.604,3.469,18.16,3.469,4.556,0,13.887-1.697,18.15-3.469,7.44-3.091,26.262-15.664,27.703-16.382,1.441-.718,6.659-5.964-5.487-19.517Z" style="fill: #db9d6a;"/>
        </g>
        <g>
          <path d="M722.022,516.433s-9.435,10.289-13.29,23.252c-.285.946-.564,2.123-.824,3.517,0,0,0,.013,0,.026-3.533,17.755-6.654,68.645-6.654,68.645l-5.075-25.227c3.244-25.444,4.349-62.444,4.683-77.415q0-.013,0-.025c.087-4.204.119-6.683.119-6.683-2.883-26.228-16.099-103.899-29.521-154.813-6.76-25.652-13.376-33.48-19.127-36.159-16.995-7.928-49.063-7.797-49.063-7.797l11.056-10.431c-1.063.381-38.697,13.748-65.177,11.218-8.409-.799-22.132-10.647-22.132-10.647l-4.277,11.9c-30.92,4.884-68.563-3.816-68.563-3.816l-15.178-3.586c-10.876,4.659-20.209-15.443-50.826,18.734-6.46,7.204-11.789,5.388-16.595,16.247-1.245,2.817-2.433,5.72-3.576,8.722-.026.06-.039.096-.051.121-.013.024-.013.036-.013.036-24.151,63.248-26.728,163.94-26.728,163.94l.48,4.484,8.064,75.97-7.884,33.485s-.892-58.544-4.646-76.493c-1.615-7.747-3.85-13.985-5.853-18.545-2.62-5.965-7.918-8.778-7.918-8.778,0,0,7.257-126.671,18.676-190.742,3.033-17.05,6.311-18.657,10.491-23.751.05-.06.099-.119.161-.179,9.516-11.161,65.021-50.241,66.75-51.004.012,0,.012-.012.024-.012l.012-.012s30.945-27.049,89.615-29.214c84.255-3.105,114.519,24.569,114.519,24.569,0,0,23.59,27.438,45.152,43.371,17.338,12.825,33.529,27.508,35.406,38.673.013.024.013.036.013.036,4.193,25.286,17.749,188.382,17.749,188.382Z" style="fill: #93641f;"/>
          <path d="M713.904,422.604c-19.106-21.681-40.031-65.865-40.031-65.865,0,0,17.026,77.324,44.39,115.437l-4.359-49.572Z" style="fill: #93641f;"/>
          <path d="M331.893,406.798c26.639-41.457,34.516-81.231,34.516-81.231,0,0-19.344,94.029-39.536,140.286l5.021-59.054Z" style="fill: #93641f;"/>
          <path d="M704.259,328.015c-.295-.637,16.681,121.693,3.286,117.673-13.59-4.09-36.059-99.502-36.085-97.98-6.76-25.652-13.376-33.48-19.127-36.159-16.995-7.928-49.063-7.797-49.063-7.797l11.056-10.431c-1.063.381-38.697,13.748-65.177,11.218-8.409-.799-22.132-10.647-22.132-10.647l-4.277,11.9c-30.92,4.884-68.563-3.816-68.563-3.816l-15.178-3.586c-10.876,4.659-20.209-15.443-50.826,18.734-6.46,7.204-11.789,5.388-16.595,16.247,3.088-8.892-33.187,103.688-33.187,103.688-14.679,0,3.739-111.487,3.739-111.487,3.033-17.05,6.311-18.657,10.491-23.751.05-.06.099-.119.161-.179l3.703,5.463c21.264,8.965,50.22-15.341,50.22-15.341,0,0-5.22-29.627,12.827-41.126.012,0,.012-.012.024-.012-.269.434-6.913,25.394-.481,33.399,6.59,8.19,37.768,9.938,49.184,8.785,11.412-1.153,33.809-8.946,33.809-8.946,0,0-13.999-25.48-14.969-37.892-.461-5.914,1.361-16.639,1.361-16.639,0,0,.426,5.929,2.832,11.413,9.475,21.626,43.612,51.469,52.024,53.847,8.418,2.379,38.828,5.356,52.378-2.378,13.53-7.716-.633-54.031-.633-54.031,0,0,20.992,28.104,18.968,46.908,0,0,9.648-17.604,14.571-28.569-.132.706-2.082,26.743-7.823,38.463-2.33,4.761,53.908,13.707,48.077-5.645,17.338,12.825,33.529,27.508,35.406,38.673Z" style="fill: #ad7634;"/>
          <path d="M493.7,233.446c1.532,14.157,15.835,25.004,15.835,25.004,0,0,5.18-9.399,25.071-3.919,19.925,5.488,66.319,3.839,66.319,3.839l-3.99-15.354s-1.125,5.645-10.264,6.036c-9.14.391-63.614-6.756-77.117-7.031-13.502-.276-15.855-8.574-15.855-8.574Z" style="fill: #d8bb82;"/>
          <path d="M482.576,236.95s-3.316,10.374,4.284,17.58c0,0-50.044,1.567-66.302,7.451,0,0-2.849-12.778,8.325-15.981,0,0-4.795,1.878-.046,3.442,4.751,1.565,43.956-4.299,47.055-7.032,3.096-2.731,6.684-5.459,6.684-5.459Z" style="fill: #d8bb82;"/>
          <path d="M608.097,245.973s6.661,6.438,6.144,12.629l9.721,3.379s7.137-6.29,5.786-9.8l-21.652-6.208Z" style="fill: #d8bb82;"/>
        </g>
      </g>
      <path d="M616.882,675.009c0,23.313-44.793,73.447-96.787,73.447s-91.501-50.133-91.501-73.447,40.816-17.872,92.81-17.872,95.478-5.441,95.478,17.872Z" style="fill: #f3b980;"/>
      <path d="M522.85,777.435c91.422-13.74,154.298-93.297,176.361-186.725,0,0-13.174,25.795-24.433,48.216-38.9,77.462-134.273,131.9-147.747,131.555-13.474-.346-38.813-.716-93.973-52.169-55.16-51.454-80.502-116.719-86.417-161.006h0c2.511,18.921,2.425,45.017,9.026,64.583,30.272,89.733,114.917,153.338,167.184,155.546Z" style="fill: #dd9f68; fill-rule: evenodd;"/>
      <path d="M402.511,693.602c-20.178,5.547-54.872-109.949-54.723-109.389-31.918,117.009,62.286,208.657,183.737,231.477,100.795-21.683,183.519-78.605,168.936-230.77-19.898,38.839-9.777,53.486-47.419,105.398l-.701,1.408c-30.956-28.313-9.787-89.769-112.511-52.407-51.978,18.905-117.872-69.021-137.319,54.283Z" style="fill: #93641f; fill-rule: evenodd;"/>
      <path d="M441.097,638.01c19.028-10.499,45.989,30.185,132.525,2.24,57.139-18.451,97,99.216-7.324,90.729-11.602-.944-15.898-2.51-37.447-2.241-11.433.143-31.019,1.385-43.234,2.921-49.356,6.207-97.021-64.681-44.52-93.649Z" style="fill: #f3b980; fill-rule: evenodd;"/>
    </g>
    <g id="Luca_x5F_Ogen_x5F_01_-_Normaal" style="display: none;">
      <g>
        <g>
          <path d="M656.672,537.595c-14.74,7.826-40.041-4.824-59.539-.26,0,0,7.647-2.49,30.19-3.92,22.539-1.43,38.905-15.309,38.905-15.309,0,0-3.666,16.362-9.556,19.489Z" style="fill: #db9d6a;"/>
          <path d="M666.226,518.104c-.298,6.496-15.347,15.485-29.91,17.938-3.091.507-6.164.737-9.067.588-1.244-.069-2.459-.207-3.633-.426-5.668-1.037-13.077-.599-20.516.311-2.668.334-5.326.714-7.913,1.118-11.554,1.798-21.591,3.919-23.102,2.316-2.798-2.962,3.754-26.693,6.372-33.065,6.41-15.592,19.373-26.121,38.359-27.367,18.982-1.258,50.621,12.532,49.41,38.588Z" style="fill: #f9f9f9;"/>
          <path d="M653.763,486.36c-17.362-12.879-39.234-23.156-53.635-17.449-14.412,5.712-21.672,37.975-21.672,37.975,0,0,8.632-27,36.482-27.452,27.848-.451,38.825,6.925,38.825,6.925Z" style="fill: #db9d6a;"/>
          <path d="M574.817,516.441s6.389-21.114,14.23-32.473c7.829-11.343,35.942-13.602,51.078-5.964,13.246,6.685,24.737,24.422,25.42,32.259,0,0-13.319-22.113-28.168-25.376-14.842-3.262-34.766-.721-43.54,6.516-8.782,7.244-19.02,25.039-19.02,25.039Z" style="fill: #855c32;"/>
          <path d="M644.859,517.311c.243,6.566-1.501,12.741-4.676,17.877-3.614.649-7.215,1.002-10.629.942-1.463-.031-2.894-.137-4.28-.33-6.689-.913-15.377-.188-24.083,1.043-3.123.45-6.232.949-9.258,1.469-4.275-5.214-6.956-11.9-7.199-19.23-.569-17.191,12.406-31.496,28.978-31.984,16.56-.488,30.511,13.023,31.147,30.212Z" style="fill: #557999;"/>
          <path d="M644.882,492.772s-10.564-.195-16.317,14.115c0,0,11.853.057,16.317-14.115Z" style="fill: #fff;"/>
        </g>
        <g>
          <path d="M388.804,537.595c14.74,7.826,40.041-4.824,59.539-.26,0,0-7.647-2.49-30.19-3.92-22.539-1.43-38.905-15.309-38.905-15.309,0,0,3.666,16.362,9.556,19.489Z" style="fill: #db9d6a;"/>
          <path d="M379.25,518.104c.298,6.496,15.347,15.485,29.91,17.938,3.091.507,6.164.737,9.067.588,1.244-.069,2.459-.207,3.633-.426,5.668-1.037,13.077-.599,20.516.311,2.668.334,5.326.714,7.913,1.118,11.553,1.798,21.591,3.919,23.102,2.316,2.798-2.962-3.754-26.693-6.372-33.065-6.409-15.592-19.373-26.121-38.358-27.367-18.982-1.258-50.621,12.532-49.41,38.588Z" style="fill: #f9f9f9;"/>
          <path d="M391.713,486.36c17.362-12.879,39.234-23.156,53.635-17.449,14.412,5.712,21.672,37.975,21.672,37.975,0,0-8.632-27-36.482-27.452-27.848-.451-38.825,6.925-38.825,6.925Z" style="fill: #db9d6a;"/>
          <path d="M470.659,516.441s-6.389-21.114-14.23-32.473c-7.829-11.343-35.942-13.602-51.078-5.964-13.246,6.685-24.737,24.422-25.42,32.259,0,0,13.319-22.113,28.168-25.376,14.842-3.262,34.766-.721,43.54,6.516,8.782,7.244,19.02,25.039,19.02,25.039Z" style="fill: #855c32;"/>
          <path d="M400.617,517.311c-.243,6.566,1.501,12.741,4.676,17.877,3.614.649,7.215,1.002,10.629.942,1.463-.031,2.894-.137,4.28-.33,6.689-.913,15.377-.188,24.083,1.043,3.123.45,6.232.949,9.258,1.469,4.275-5.214,6.956-11.9,7.199-19.23.569-17.191-12.406-31.496-28.978-31.984-16.56-.488-30.511,13.023-31.147,30.212Z" style="fill: #557999;"/>
          <path d="M400.595,492.772s10.564-.195,16.317,14.115c0,0-11.853.057-16.317-14.115Z" style="fill: #fff;"/>
        </g>
        <path d="M665.825,465.288s-8.661-25.995-26.607-37.755c-34.467-22.587-77.126-16.941-77.126-16.941,0,0,.024,13.838,4.73,32.657,0,0,39.205-9.937,99.003,22.04Z" style="fill: #93641f;"/>
        <path d="M379.651,465.288s8.661-25.995,26.607-37.755c34.467-22.587,77.126-16.941,77.126-16.941,0,0-.024,13.838-4.73,32.657,0,0-39.205-9.937-99.004,22.04Z" style="fill: #93641f;"/>
      </g>
      <path d="M431.518,529.601c7.413,0,13.457-6.044,13.457-13.457s-6.044-13.458-13.457-13.458-13.458,6.045-13.458,13.458,6.045,13.457,13.458,13.457Z" style="fill: url(#GradientFill_15); fill-rule: evenodd;"/>
      <path d="M613.959,531.564c7.413,0,13.457-6.044,13.457-13.457s-6.044-13.458-13.457-13.458-13.458,6.045-13.458,13.458,6.045,13.457,13.458,13.457Z" style="fill: url(#GradientFill_151); fill-rule: evenodd;"/>
    </g>
    <g id="Luca_x5F_Ogen_x5F_03_-_Wijd" style="display: none;">
      <g>
        <g>
          <path d="M660.697,544.293c-15.224,11.968-41.354-7.378-61.492-.397,0,0,7.898-3.808,31.18-5.995,23.278-2.187,40.181-23.411,40.181-23.411,0,0-3.786,25.022-9.869,29.804Z" style="fill: #db9d6a;"/>
          <path d="M670.564,514.484c-.308,9.935-15.851,23.681-30.891,27.433-3.192.775-6.366,1.128-9.364.899-1.285-.106-2.539-.317-3.752-.652-5.854-1.585-13.506-.916-21.188.476-2.755.511-5.501,1.092-8.173,1.709-11.933,2.749-22.3,5.993-23.86,3.542-2.89-4.529,3.877-40.822,6.581-50.566,6.62-23.844,20.008-39.946,39.617-41.853,19.605-1.923,52.281,19.165,51.031,59.012Z" style="fill: #f9f9f9;"/>
          <path d="M657.692,465.939c-17.931-19.696-40.521-35.412-55.394-26.684-14.884,8.735-22.383,58.075-22.383,58.075,0,0,8.915-41.291,37.678-41.982,28.762-.69,40.098,10.59,40.098,10.59Z" style="fill: #db9d6a;"/>
          <path d="M576.157,511.942s6.599-32.289,14.697-49.661c8.086-17.346,37.121-20.801,52.753-9.12,13.681,10.223,25.548,37.349,26.254,49.333,0,0-13.756-33.817-29.091-38.808-15.329-4.989-35.906-1.103-44.968,9.965-9.07,11.079-19.644,38.291-19.644,38.291Z" style="fill: #855c32;"/>
          <path d="M648.496,513.272c.251,10.042-1.55,19.485-4.829,27.34-3.733.993-7.452,1.533-10.978,1.441-1.511-.047-2.989-.209-4.42-.505-6.908-1.396-15.881-.288-24.873,1.595-3.225.688-6.437,1.451-9.562,2.247-4.415-7.973-7.184-18.198-7.435-29.408-.588-26.29,12.812-48.166,29.928-48.913,17.103-.746,31.511,19.916,32.169,46.203Z" style="fill: #557999;"/>
          <path d="M640.815,513.607c.28,11.359-2.915,21.637-8.126,28.446-1.511-.047-2.989-.209-4.42-.505-6.908-1.396-15.881-.288-24.873,1.595-5.436-6.344-9.048-16.249-9.303-27.497-.449-19.798,9.633-36.252,22.513-36.813,12.88-.562,23.72,14.978,24.209,34.775Z" style="fill: #4c3f4b;"/>
          <path d="M648.52,475.745s-10.91-.298-16.852,21.585c0,0,12.242.087,16.852-21.585Z" style="fill: #fff;"/>
        </g>
        <g>
          <path d="M384.043,544.293c15.224,11.968,41.354-7.378,61.492-.397,0,0-7.898-3.808-31.18-5.995-23.278-2.187-40.181-23.411-40.181-23.411,0,0,3.786,25.022,9.869,29.804Z" style="fill: #db9d6a;"/>
          <path d="M374.176,514.484c.308,9.935,15.851,23.681,30.891,27.433,3.192.775,6.366,1.128,9.364.899,1.285-.106,2.539-.317,3.752-.652,5.854-1.585,13.506-.916,21.188.476,2.756.511,5.501,1.092,8.173,1.709,11.932,2.749,22.3,5.993,23.86,3.542,2.89-4.529-3.877-40.822-6.581-50.566-6.62-23.844-20.008-39.946-39.616-41.853-19.605-1.923-52.281,19.165-51.031,59.012Z" style="fill: #f9f9f9;"/>
          <path d="M387.048,465.939c17.931-19.696,40.521-35.412,55.394-26.684,14.884,8.735,22.383,58.075,22.383,58.075,0,0-8.915-41.291-37.678-41.982-28.762-.69-40.098,10.59-40.098,10.59Z" style="fill: #db9d6a;"/>
          <path d="M468.583,511.942s-6.599-32.289-14.697-49.661c-8.086-17.346-37.121-20.801-52.753-9.12-13.681,10.223-25.548,37.349-26.254,49.333,0,0,13.756-33.817,29.092-38.808,15.329-4.989,35.906-1.103,44.968,9.965,9.07,11.079,19.644,38.291,19.644,38.291Z" style="fill: #855c32;"/>
          <path d="M396.244,513.272c-.251,10.042,1.55,19.485,4.829,27.34,3.733.993,7.452,1.533,10.978,1.441,1.511-.047,2.989-.209,4.42-.505,6.908-1.396,15.881-.288,24.873,1.595,3.225.688,6.437,1.451,9.562,2.247,4.415-7.973,7.184-18.198,7.435-29.408.588-26.29-12.812-48.166-29.928-48.913-17.103-.746-31.511,19.916-32.169,46.203Z" style="fill: #557999;"/>
          <path d="M403.925,513.607c-.28,11.359,2.915,21.637,8.126,28.446,1.511-.047,2.989-.209,4.42-.505,6.908-1.396,15.881-.288,24.873,1.595,5.436-6.344,9.048-16.249,9.303-27.497.449-19.798-9.633-36.252-22.513-36.813-12.88-.562-23.721,14.978-24.209,34.775Z" style="fill: #4c3f4b;"/>
          <path d="M396.22,475.745s10.91-.298,16.852,21.585c0,0-12.242.087-16.852-21.585Z" style="fill: #fff;"/>
        </g>
        <path d="M665.825,423.371s-8.661-25.995-26.607-37.755c-34.467-22.587-77.126-16.941-77.126-16.941,0,0,.024,13.838,4.73,32.657,0,0,39.205-9.937,99.003,22.04Z" style="fill: #93641f;"/>
        <path d="M379.651,423.371s8.661-25.995,26.607-37.755c34.467-22.587,77.126-16.941,77.126-16.941,0,0-.024,13.838-4.73,32.657,0,0-39.205-9.937-99.004,22.04Z" style="fill: #93641f;"/>
      </g>
    </g>
    <g id="Luca_x5F_Ogen_x5F_02_-_Dicht">
      <path d="M467.015,519.652s-16.824-16.686-48.924-16.686c-12.132,0-22.776,1.235-42.382,13.176,0,0,12.283-4.28,40.72-4.28,30.167,0,50.586,7.79,50.586,7.79Z" style="fill: #855c32;"/>
      <path d="M577.943,521.183s16.824-16.686,48.924-16.686c12.132,0,22.776,1.235,42.382,13.176,0,0-12.283-4.28-40.72-4.28-30.167,0-50.586,7.79-50.586,7.79Z" style="fill: #855c32;"/>
      <path d="M665.825,465.288s-8.661-25.995-26.607-37.755c-34.467-22.587-77.126-16.941-77.126-16.941,0,0,.024,13.838,4.73,32.657,0,0,39.205-9.937,99.003,22.04Z" style="fill: #93641f;"/>
      <path d="M379.651,465.288s8.661-25.995,26.607-37.755c34.467-22.587,77.126-16.941,77.126-16.941,0,0-.024,13.838-4.73,32.657,0,0-39.205-9.937-99.004,22.04Z" style="fill: #93641f;"/>
    </g>
    <g id="Luca_x5F_Mond_x5F_01_-_SmalOpen" style="display: none;">
      <g>
        <path d="M477.175,698.462c2.184-.503,24.317-32.433,48.095-32.394,23.933.039,49.952,32.989,49.952,32.989,0,0-23.634,9.911-49.186,9.722-25.376-.189-48.861-10.316-48.861-10.316Z" style="fill: #95344d;"/>
        <path d="M575.222,699.057s-1.402-8.161-5.089-5.858c-25.158,15.72-32.245,15.319-44.098,15.58-11.549.254-28.48-2.591-43.235-13.751-3.08-2.33-5.626,3.435-5.626,3.435,0,0,24.234,33.693,48.836,34.385,0,0,.095.011.142.011.049,0,.097.011.144.011v-.02c24.765-.166,48.925-33.793,48.925-33.793Z" style="fill: #ff7966;"/>
        <path d="M497.498,679.834s14.883,2.675,56.781.063c0,0-13.547-11.754-28.557-11.782-13.293-.025-28.223,11.719-28.223,11.719Z" style="fill: #fff;"/>
        <path d="M529.332,708.617c13.337-1.557,35.888-14.819,30.292-18.319-13.003-8.134-39.889-6.563-54.034,6.932-3.17,3.025,10.449,12.939,23.742,11.387Z" style="fill: #ffc7ac;"/>
        <path d="M556.225,668.724c-9.781-10.068-24.564-14.543-30.571-14.543s-18.341,4.985-28.179,14.428c-11.947,11.466-22.52,33.478-22.52,33.478,0,0,11.815-14.759,25.808-24.687,12.465-8.844,24.97-7.218,24.97-7.218,0,0,11.443-2.686,24.098,6.313,12.573,8.94,27.944,26.267,27.944,26.267,0,0-9.847-21.991-21.55-34.037Z" style="fill: #d6895a;"/>
      </g>
    </g>
    <g id="Luca_x5F_Mond_x5F_02_-_BreedOpen" style="display: none;">
      <g>
        <path d="M526.435,721.029c34.399,0,66.819-46.842,66.819-46.842,0,0-60.049-21.113-133.639,0,0,0,27.926,46.842,66.819,46.842Z" style="fill: #95344d;"/>
        <path d="M480.431,686.934c-4.36,8.463,23.472,32.094,42.948,32.737,19.476.644,47.443-17.894,38.953-26.353-8.49-8.459-78.021-13.916-81.901-6.384Z" style="fill: #ffc7ac;"/>
        <path d="M479.079,669.476s3.464,3.888,5.742,5.184c0,0,49.118,5.917,85.636.204l4.669-3.771c-.099-.006-44.474-18.983-96.046-1.618Z" style="fill: #fff;"/>
        <path d="M561.129,709.057c-2.497,1.079-18.103,9.497-35.02,9.497s-32.523-8.419-35.02-9.497c-2.497-1.079,25.029,17.798,35.02,17.798s37.517-18.877,35.02-17.798Z" style="fill: #fff;"/>
        <path d="M599.187,671.727s-15.768-4.599-23.365-6.539c-7.371-1.882-26.893-6.445-49.387-6.445-19.796,0-42.082,4.228-49.382,6.061-8.47,2.127-23.371,6.923-23.371,6.923l5.933,2.46c62.319-11.996,79.012-8.583,133.639,0l5.933-2.46Z" style="fill: #d6895a;"/>
        <path d="M584.309,684.705c-20.854,23.39-38.03,36.324-57.874,36.324s-37.673-11.795-58.528-35.185c-.999-1.121,23.632,49.532,58.53,49.532s58.87-51.791,57.871-50.67Z" style="fill: #ff7966;"/>
        <path d="M457.791,662.191c-7.151,10.503-.333,23.653-.333,23.653,0,0-9.577-6.905-7.99-14.117,1.665-7.564,8.323-9.536,8.323-9.536Z" style="fill: #ee98b4;"/>
        <path d="M594.937,662.191c7.151,10.503.333,23.653.333,23.653,0,0,9.577-6.905,7.99-14.117-1.665-7.564-8.323-9.536-8.323-9.536Z" style="fill: #ee98b4;"/>
      </g>
    </g>
    <g id="Luca_x5F_Mond_x5F_03_-_Sip" style="display: none;">
      <g>
        <path d="M527.531,661.504s-38.037,2.39-63.466,36.778c0,0,31.187-18.375,63.8-18.988,32.613-.613,64.468,16.578,64.468,16.578-26.703-33.409-64.803-34.368-64.803-34.368Z" style="fill: #d6895a;"/>
        <path d="M528.594,707.849c25.12-.629,53.313-16.673,53.313-16.673-25.255-13.865-52.065-12.049-54.042-11.894-1.981-.081-28.84-.889-53.557,13.916,0,0,28.776,14.974,53.902,14.658v.014c.064-.001.129-.009.193-.011.064,0,.128.004.192.003v-.014Z" style="fill: #ff7966;"/>
      </g>
    </g>
    <g id="Luca_x5F_Mond_x5F_03_-_Neutraal_Dicht" style="display: none;">
      <g>
        <path d="M477.068,694.225c20.553,12.605,66.832,11.305,88.87.808,12.858-6.124,33.601-12.914,33.601-12.914,0,0-54.47-2.3-80.861,1.143-29.398,3.836-67.275-2.155-67.275-2.155,0,0,15.065,6.617,25.666,13.118Z" style="fill: #ff7966;"/>
        <path d="M451.402,681.106s13.639,6.335,42.341,5.238c28.701-1.097,34.851,3.152,70.212-.295,14.869-1.449,35.584-3.931,35.584-3.931,0,0-18.074.842-40.509-5.813-21.613-6.411-53.952-5.11-72.862.554-15.099,4.522-34.766,4.247-34.766,4.247Z" style="fill: #d6895a;"/>
        <path d="M596.182,670.124c4.322,14.882,3.292,17.266-3.004,24.307,0,0,13.668-4.196,14.296-11.677.629-7.48-11.293-12.631-11.293-12.631Z" style="fill: #ee98b4;"/>
        <path d="M457.057,696.299c-4.322-14.882-3.292-17.266,3.004-24.307,0,0-13.668,4.196-14.296,11.677-.629,7.48,11.293,12.631,11.293,12.631Z" style="fill: #ee98b4;"/>
      </g>
    </g>
    <g id="Luca_x5F_Mond_x5F_05_-_Lach" style="display: none;">
      <g>
        <path d="M452.486,647.189c-7.685,1.822-14.318,24.973-14.318,24.973,0,0-4.275-17.496.461-23.434,4.731-5.931,13.858-1.539,13.858-1.539Z" style="fill: #d89e68;"/>
        <path d="M522.248,685.104c-27.594-.198-61.585-15.068-63.153-15.583,0,0,7.788,19.138,25.86,32.298,16.377,11.925,34.086,10.005,37.328,9.527,3.243.477,20.957,2.398,37.303-9.527,18.037-13.16,25.775-33.143,25.775-33.143-1.567.514-35.519,16.23-63.112,16.428Z" style="fill: #95344d;"/>
        <path d="M592.96,647.189c7.69,1.822,14.387,24.973,14.387,24.973,0,0,4.227-17.496-.524-23.434-4.747-5.931-13.862-1.539-13.862-1.539Z" style="fill: #d89e68;"/>
        <path d="M582.926,668.676s-7.504,12.021-12.853,15.934c-1.335.969-3.803,2.017-7.063,3.046-9.822,3.077-26.673,5.946-40.292,5.946-14.754,0-33.307-3.369-42.601-6.725h-.012c-2.131-.769-3.774-1.538-4.771-2.267-5.362-3.912-10.959-13.096-10.959-13.096l58.331,13.665,60.222-16.503Z" style="fill: #fbf4fd;"/>
        <path d="M564.192,676.639s-.077,4.059-4.324,7.971c-1.06.969-3.02,2.017-5.609,3.046h-.029s-13.416-.779-29.597-.779h-36.214c-1.692-.769-2.997-1.538-3.789-2.267-4.258-3.912-4.355-7.971-4.355-7.971l41.976,8.541,41.943-8.541Z" style="fill: #fbf4fd;"/>
        <path d="M562.94,693.602c-15.491,20.173-40.656,17.745-40.656,17.745,0,0-25.159,2.428-40.703-17.745,0,0,5.235,2.12,12.932,4.251,7.71,2.122,17.875,4.244,27.759,4.244s20.024-2.112,27.728-4.234c.01,0,.01-.01.01-.01,7.701-2.121,12.931-4.251,12.931-4.251Z" style="fill: #fbf4fd;"/>
        <path d="M562.94,693.602c-15.491,20.173-40.656,17.745-40.656,17.745,0,0-25.159,2.428-40.703-17.745,0,0,5.235,2.12,12.932,4.251,0,0,10.276,12.221,28.206,12.221,17.532,0,26.876-11.7,27.281-12.211.01,0,.01-.01.01-.01,7.701-2.121,12.931-4.251,12.931-4.251Z" style="fill: #fbf4fd;"/>
        <path d="M522.233,676.64c-35.488,0-74.922-17.773-77.663-19.024.967.502,6.421,3.48,12.158,10.366,1.935,2.324,4.268,6.449,7.255,11.456,9.731,16.35,26.308,42.08,57.785,44.972.265.029.796.019,1.062,0,34.123-2.684,50.625-32.89,59.938-48.775,1.935-3.282,3.556-5.956,4.96-7.654,5.519-6.648,10.783-9.654,12.016-10.309-3.471,1.641-40.762,18.968-77.512,18.968ZM578.966,677.304c-8.706,10.081-21.984,23.425-35.441,29.277-10.717,4.657-31.771,4.657-42.497,0-13.287-5.766-26.422-18.835-35.166-28.869-2.732-3.13-5.027-5.965-6.772-8.194,8.194,5.15,19.925,10.641,35.469,13.543,16.217,3.035,25.492,2.352,27.693,2.115,2.2.237,11.466.92,27.673-2.115,15.544-2.902,27.257-8.393,35.432-13.543-1.66,2.134-3.831,4.818-6.392,7.786Z" style="fill: #d86b60;"/>
        <path d="M599.745,657.673c-1.233.655-6.497,3.661-12.016,10.309-1.404,1.697-3.026,4.372-4.96,7.654-1.185.436-2.437.996-3.803,1.669,2.561-2.968,4.733-5.652,6.392-7.786-8.175,5.15-19.888,10.641-35.432,13.543-16.208,3.035-25.473,2.352-27.673,2.115-2.201.237-11.476.92-27.693-2.115-15.544-2.902-27.275-8.393-35.469-13.543,1.745,2.229,4.04,5.064,6.772,8.194-.806.417-1.423,1.062-1.878,1.726-2.987-5.007-5.32-9.133-7.255-11.456-5.738-6.885-11.191-9.863-12.158-10.366,2.74,1.252,42.174,19.024,77.663,19.024,36.75,0,74.041-17.327,77.512-18.968Z" style="fill: #d6895a;"/>
      </g>
    </g>
    <g id="Luca_x5F_Shirt" style="display: none;">
      <g>
        <path d="M763.87,972.376c-19.274-62.012-39.386-70.672-39.386-70.672l-22.35,123.499h70.704c-2.699-23.926-5.739-42.439-8.968-52.827Z" style="fill: #3d5bc4;"/>
        <path d="M305.484,898.632c-20.299,11.882-41.18,65.595-52.626,126.572h81.021l-28.396-126.572Z" style="fill: #3d5bc4;"/>
        <g>
          <path d="M724.484,901.705c-36.872-14.525-99.322-50.001-99.322-50.001l-68.153,12.582-13.533-4.83c2.235,13.757-12.472,62.918-12.472,62.918l-4.64,102.83h204.679c1.798-39.737.07-81.238-6.56-123.499Z" style="fill: #2d42a8;"/>
          <path d="M531.535,923.772s-16.132-41.481-12.361-57.194l-99.257-14.874s-45.717,29.33-114.433,46.928c-1.251,44.1.944,86.505,5.589,126.572h223.411c-.488-57.183-1.739-98.654-2.95-101.432Z" style="fill: #233e9e;"/>
          <path d="M515.892,948.319c0,5.94-2.564,10.754-5.727,10.754s-5.726-4.815-5.726-10.754,2.564-10.754,5.726-10.754,5.727,4.815,5.727,10.754Z" style="fill: #e6e6e6; mix-blend-mode: multiply;"/>
          <path d="M514.425,947.376c0,5.94-2.564,10.754-5.727,10.754s-5.726-4.815-5.726-10.754,2.564-10.754,5.726-10.754,5.727,4.815,5.727,10.754Z" style="fill: #3d5bc4;"/>
          <rect x="596.549" y="989.974" width="99.443" height="20.112" transform="translate(131.107 -73.437) rotate(7.236)" style="fill: #e6e6e6; mix-blend-mode: multiply;"/>
          <rect x="594.873" y="987.181" width="99.443" height="20.112" transform="translate(130.744 -73.25) rotate(7.236)" style="fill: #3d5bc4;"/>
          <path d="M519.174,866.579l-42.341-6.345-69.846-1.066c.733,4.827,51.013,48.682,73.36,54.548,12.57-20.671,27.933-43.017,31.425-35.196,3.491,7.821,18.426,41.669,18.428,41.674-3.781-10.383-14.126-40.698-11.026-53.616Z" style="fill: #e6e6e6; mix-blend-mode: multiply;"/>
          <path d="M519.174,866.579c-14.874,5.447-42.948,40.643-42.948,40.643-18.645-5.028-63.269-40.433-72.068-51.118,10.056-16.551,47.672-34.754,47.672-34.754,5.96,24.698,67.343,45.229,67.343,45.229Z" style="fill: #3d5bc4;"/>
          <path d="M531.803,919.64v5.381c4.759-6.067,9.368-49.224,13.977-47.339,4.609,1.885,23.045,37.5,23.045,37.5,25.978-1.886,59.123-52.596,60.986-60.866-2.435-.789-7.171-1.077-13.204-1.034l-59.599,11.002-13.533-4.83c1.919,11.813-8.646,49.704-11.673,60.184Z" style="fill: #e6e6e6; mix-blend-mode: multiply;"/>
          <path d="M595.827,820.578c3.072,13.129-37.895,39.506-52.351,38.878,10.475,15.293,30.587,47.766,30.587,47.766,22.417-4.818,50.908-42.947,57.403-55.936-6.704-11.941-35.639-30.707-35.639-30.707Z" style="fill: #3d5bc4;"/>
        </g>
        <path d="M305.284,907.233c.281-2.363.491-4.508.665-6.528l-.465-2.072c-20.299,11.882-41.18,65.595-52.626,126.572h9.727c8.781-48.535,23.229-96.19,42.699-117.971Z" style="fill: #e6e6e6; mix-blend-mode: multiply;"/>
      </g>
    </g>
  </g>
</svg>