<?xml version="1.0" encoding="UTF-8"?>
<svg xmlns="http://www.w3.org/2000/svg" viewBox="0 0 1024 1024">
  <g style="isolation: isolate;">
    <g id="Luca_Shirt">
      <g>
        <path d="M763.87,972.376c-19.274-62.012-39.386-70.672-39.386-70.672l-22.35,123.499h70.704c-2.699-23.926-5.739-42.439-8.968-52.827Z" style="fill: #3d5bc4;"/>
        <path d="M305.484,898.632c-20.299,11.882-41.18,65.595-52.626,126.572h81.021l-28.396-126.572Z" style="fill: #3d5bc4;"/>
        <g>
          <path d="M724.484,901.705c-36.872-14.525-99.322-50.001-99.322-50.001l-68.153,12.582-13.533-4.83c2.235,13.757-12.472,62.918-12.472,62.918l-4.64,102.83h204.679c1.798-39.737.07-81.238-6.56-123.499Z" style="fill: #2d42a8;"/>
          <path d="M531.535,923.772s-16.132-41.481-12.361-57.194l-99.257-14.874s-45.717,29.33-114.433,46.928c-1.251,44.1.944,86.505,5.589,126.572h223.411c-.488-57.183-1.739-98.654-2.95-101.432Z" style="fill: #233e9e;"/>
          <path d="M515.892,948.319c0,5.94-2.564,10.754-5.727,10.754s-5.726-4.815-5.726-10.754,2.564-10.754,5.726-10.754,5.727,4.815,5.727,10.754Z" style="fill: #e6e6e6; mix-blend-mode: multiply;"/>
          <path d="M514.425,947.376c0,5.94-2.564,10.754-5.727,10.754s-5.726-4.815-5.726-10.754,2.564-10.754,5.726-10.754,5.727,4.815,5.727,10.754Z" style="fill: #3d5bc4;"/>
          <rect x="596.549" y="989.974" width="99.443" height="20.112" transform="translate(131.107 -73.437) rotate(7.236)" style="fill: #e6e6e6; mix-blend-mode: multiply;"/>
          <rect x="594.873" y="987.181" width="99.443" height="20.112" transform="translate(130.744 -73.25) rotate(7.236)" style="fill: #3d5bc4;"/>
          <path d="M519.174,866.579l-42.341-6.345-69.846-1.066c.733,4.827,51.013,48.682,73.36,54.548,12.57-20.671,27.933-43.017,31.425-35.196,3.491,7.821,18.426,41.669,18.428,41.674-3.781-10.383-14.126-40.698-11.026-53.616Z" style="fill: #e6e6e6; mix-blend-mode: multiply;"/>
          <path d="M519.174,866.579c-14.874,5.447-42.948,40.643-42.948,40.643-18.645-5.028-63.269-40.433-72.068-51.118,10.056-16.551,47.672-34.754,47.672-34.754,5.96,24.698,67.343,45.229,67.343,45.229Z" style="fill: #3d5bc4;"/>
          <path d="M531.803,919.64v5.381c4.759-6.067,9.368-49.224,13.977-47.339,4.609,1.885,23.045,37.5,23.045,37.5,25.978-1.886,59.123-52.596,60.986-60.866-2.435-.789-7.171-1.077-13.204-1.034l-59.599,11.002-13.533-4.83c1.919,11.813-8.646,49.704-11.673,60.184Z" style="fill: #e6e6e6; mix-blend-mode: multiply;"/>
          <path d="M595.827,820.578c3.072,13.129-37.895,39.506-52.351,38.878,10.475,15.293,30.587,47.766,30.587,47.766,22.417-4.818,50.908-42.947,57.403-55.936-6.704-11.941-35.639-30.707-35.639-30.707Z" style="fill: #3d5bc4;"/>
        </g>
        <path d="M305.284,907.233c.281-2.363.491-4.508.665-6.528l-.465-2.072c-20.299,11.882-41.18,65.595-52.626,126.572h9.727c8.781-48.535,23.229-96.19,42.699-117.971Z" style="fill: #e6e6e6; mix-blend-mode: multiply;"/>
      </g>
    </g>
  </g>
</svg>