<?xml version="1.0" encoding="UTF-8"?>
<svg id="Clara_Hoofd_Zonder_mond" data-name="Clara_Hoofd_Zonder mond" xmlns="http://www.w3.org/2000/svg" xmlns:xlink="http://www.w3.org/1999/xlink" viewBox="0 0 1024 1024">
  <defs>
    <radialGradient id="GradientFill_11" data-name="GradientFill 11" cx="624.95" cy="5558.907" fx="624.95" fy="5558.907" r="49.83" gradientTransform="translate(0 -2874.25) scale(1 .626)" gradientUnits="userSpaceOnUse">
      <stop offset="0" stop-color="#f6917d"/>
      <stop offset=".624" stop-color="#f58e7a"/>
      <stop offset=".953" stop-color="#f58772"/>
      <stop offset="1" stop-color="#f58671"/>
    </radialGradient>
  </defs>
  <path d="M392.135,820.161s1.258-17.308.908-33.937c-.35-16.629-1.926-34.832-1.926-34.832,0,0,11.903,41.134,1.018,68.769h0ZM454.275,874.424c2.975,1.4,9.102-4.025,10.852-9.626,1.751-5.602,127.607,9.799,127.607,9.799,0,0,1.424,1.575,3.667,3.289h0s33.168-131.742,84.281-133.842c51.112-2.1,23.106-70.017,23.106-70.017l-157.189-15.054-188.412,41.511s114.39,122.976,96.088,173.939h0ZM363.462,842.588c2.976,6.301,4.04,30.897,10.503,25.556,6.463-5.341,3.15-45.861,2.235-67.653-.916-21.792-17.289-82.009-17.289-82.009,0,0,9.627,22.93,12.253,35.359,2.626,12.428,8.577,37.284,10.503,76.143,1.925,38.86-5.777,53.739-9.452,53.564-3.676-.175-4.551-6.477-5.076-14.529-.524-8.053-3.676-26.431-3.676-26.431Z" style="fill: #442927; fill-rule: evenodd;"/>
  <path d="M314.241,624.288s-8.402,41.659,7.702,135.833c16.104,94.173,15.58,81.571,17.504,103.976,1.926,22.406.526,27.483,2.801,27.657,2.275.175,12.253-16.454,15.579-31.508,3.326-15.054,4.376-32.908,4.376-32.908,0,0-.175,26.957-2.625,42.711-2.451,15.753,0,17.504,5.777,12.953,5.776-4.55,13.653-19.429,19.08-33.082,5.426-13.654,7.702-29.758,7.702-29.758,0,0-1.226,25.907-2.977,43.236-1.75,17.329-1.4,22.58,1.576,22.055,2.975-.524,10.152-6.301,16.453-18.379,6.302-12.079,7.702-16.454,7.702-16.454,0,0-2.276,24.157-.35,28.532,1.925,4.376,11.553-1.225,14.703-7.527,3.151-6.302,5.251-13.653,5.251-13.653,0,0,.176,14.529,5.427,15.754,5.251,1.225,6.826-7.702,9.627-8.403,2.801-.7,1.752,7.702,4.727,9.102,2.975,1.4,9.102-4.025,10.852-9.626,1.751-5.602,127.607,9.799,127.607,9.799,0,0,8.228,9.103,16.279,7.352,8.052-1.751,9.803-11.027,11.378-12.603,1.575-1.576.613,10.852,3.151,11.728,2.538.876,5.601-5.339,6.739-5.777,1.137-.437,1.224,2.015,4.288,1.926,3.064-.088,6.389-8.228,7.002-14.091.613-5.864.613-13.391.613-13.391,0,0-.087,18.467,5.339,26.694,5.426,8.228,9.364.176,9.364-4.463s.087-16.279.087-16.279c0,0,1.576,11.815,8.752,16.542,7.177,4.726,8.927,1.838,12.429,5.689,3.501,3.85,4.813,9.278,10.152,9.452,5.339.175,3.326-10.678,2.538-16.367-.787-5.689-.524-12.341-.524-12.341,0,0-.35,12.428,10.065,23.105,10.415,10.678,18.729,10.765,19.43,6.74.7-4.026-4.895-24.944-5.245-30.02-.35-5.076-.871-65.118-1.571-93.475-.701-28.357,13.654-171.19-12.252-227.904-25.906-56.714-361.287-59.514-386.508,87.174Z" style="fill: #211716; fill-rule: evenodd;"/>
  <g>
    <path d="M464.622,769.256s5.182,89.481-6.91,103.992c-2.402,2.883-5.721,5.793-9.775,8.704,18.186,59.476,78.286,99.698,82.327,95.98,0,0,27.293-9.328,52.342-39.04,18.66-22.135,22.087-45.442,26.234-52.896-14.044-11.718-17.466-26.376-18.806-55.588-1.727-37.659-.345-55.969-.345-55.969,0,0-116.429-18.311-125.066-5.183h0Z" style="fill: #f8a794; fill-rule: evenodd;"/>
    <path d="M464.622,769.256s1.636,28.254.925,55.583c5.823,2.375,12.954,5.974,17.731,10.751,9.327,9.329,25.912,49.06,32.13,61.497,6.218,12.437,13.129,17.274,28.33,1.382,14.365-15.019,27.806-28.504,45.567-89.709-.468-23.046.383-34.322.383-34.322,0,0-116.429-18.311-125.066-5.183Z" style="fill: #ed7464; fill-rule: evenodd;"/>
  </g>
  <g>
    <path d="M529.109,806.039c-52.266-2.208-146.403-61.913-176.675-151.646-30.272-89.734-13.249-178.883,11.779-210.538,25.029-31.654,89.81-77.294,174.466-77.294s170.787,66.253,178.148,150.174c7.36,83.92-60.364,270.164-187.718,289.305Z" style="fill: #f8a794; fill-rule: evenodd;"/>
    <path d="M529.109,806.039c91.422-13.74,152.113-113.592,176.361-199.887-14.494-2.208-27.487,7.649-34.677,40.919-23.148,107.101-124.03,152.36-137.503,152.014-13.474-.346-38.813-.716-93.973-52.169-55.16-51.454-80.153-126.448-70.86-173.822-11.102,6.527-20.882,14.491-29.485,23.275,2.511,18.921,6.862,38.459,13.462,58.025,30.272,89.733,124.408,149.437,176.675,151.646Z" style="fill: url(#GradientFill_11); fill-rule: evenodd;"/>
  </g>
  <g>
    <path d="M485.411,655.789c1.95,5.141,4.309,7.593,9.211,8.346,4.902.755,14.993,3.017,24.327,7.355,9.335,4.338,18.009,3.867,26.496-.66,8.486-4.526,8.581-4.149,16.03-4.997,7.449-.848,10.266-6.701,10.266-6.701,0,0-16.207,1.138-17.903.949-1.697-.189-17.632,5.093-22.442,5.375-4.809.282-11.975-1.697-14.615-3.111-2.64-1.415-26.33-1.521-31.37-6.556Z" style="fill: #de6c73; fill-rule: evenodd;"/>
    <path d="M485.274,648.289s-1.695,7.92,2.452,11.22c4.148,3.301,11.976.661,19.424,3.678,7.449,3.016,13.673,5.939,23.762,5.28,10.089-.66,16.501-4.998,21.875-5.375,5.375-.377,13.766,2.451,18.953-3.96,5.186-6.412-.472-14.239-.472-14.239,0,0,3.206,8.865-3.018,12.164-6.223,3.3-14.803-1.509-21.498,0-6.695,1.509-10.75,6.035-19.425,6.411-8.674.377-11.503-6.033-18.386-6.128-6.884-.095-11.975.187-16.973-.472-4.997-.659-5.94-5.563-6.695-8.58Z" style="fill: #c73957; fill-rule: evenodd;"/>
  </g>
  <g>
    <path d="M709.676,852.014s9.278,17.154,16.105,17.154-1.226-31.683-1.751-50.412c-.525-18.729.7-89.447.7-101.35s-25.728,38.859-15.054,134.608Z" style="fill: #442927; fill-rule: evenodd;"/>
    <path d="M531.061,374.114s-4.483,28.069-35.291,53.275c-30.807,25.206-57.764,40.259-71.067,64.415-13.304,24.157-10.937,18.387-16.384,26.727-4.977,7.621-12.198,12.007-12.891-2.843-.726-15.54,4.403-24.716,5.793-27.966,5.97-13.958,19.105-28.301,19.105-28.301,0,0-26.684,26.859-37.283,59.515-10.6,32.656-25.032,78.244-21.53,126.556,3.501,48.312,17.767,93.474,20.48,102.751,2.714,9.278-2.624,8.053-8.314,3.677-5.689-4.377-24.331-35.881-24.331-35.881,0,0,8.752,40.086,19.255,67.217,10.503,27.132,21.004,50.061,15.579,54.788-5.426,4.727-33.782-28.883-46.036-57.415-12.253-28.531-26.782-86.474-28.357-134.436-1.575-47.962,5.426-71.768,5.426-71.768,0,0,.35-17.153.35-28.707s1.225-18.205,1.225-18.205c0,0,3.151-35.184,10.152-60.39,7.002-25.206,20.832-62.667,48.838-94.875,28.007-32.209,60.565-54.088,90.672-66.691,30.107-12.603,46.736-7.002,56.363-.525,9.628,6.477,12.603,13.303,12.603,13.303,0,0,18.38-18.204,41.485-17.854,23.106.35,69.491,22.58,92.422,48.661,22.931,26.081,43.061,51.462,52.338,99.424,9.276,47.962,9.452,61.965,9.452,61.965,0,0,2.976,18.905,3.676,39.385.701,20.48-2.975,47.962-2.975,47.962,0,0-.525,30.457-1.05,54.438-.526,23.981-.349,75.442-14.352,132.857-14.003,57.415-37.284,91.548-46.386,97.85-9.102,6.302-9.278-4.552-5.076-14.354,4.201-9.802,13.306-37.113,11.38-45.865-1.926-8.752-10.348-42.402-8.053-80.87,2.297-38.468,19.43-89.621,19.43-89.621,0,0-10.852,20.304-19.08,28.531-8.227,8.228-8.402,4.377-7.001-7.001,1.4-11.378,13.656-58.99-2.448-115.354-16.104-56.364-47.262-63.715-74.219-94.173-26.956-30.458-47.502-41.373-53.902-90.207Z" style="fill: #382320; fill-rule: evenodd;"/>
    <path d="M421.127,459.423s24.955-28.36,40.884-40.088c15.929-11.728,25.907-16.279,37.81-25.381,11.903-9.102,19.78-19.78,19.78-19.78,0,0-9.978,18.554-23.806,29.582-13.828,11.028-38.86,23.106-74.667,55.667h0ZM731.918,510.534s-8.906-40.266-24.66-71.074c-15.754-30.807-22.405-40.959-22.405-40.959,0,0,35.465,40.136,47.065,112.033h0ZM728.963,530.834c-9.737-96.53-81.569-157.889-81.569-157.889,0,0,15.053,12.603,46.911,67.566,31.858,54.963,34.658,90.322,34.658,90.322h0ZM732.619,597.882c2.646-95.755-41.516-147.879-63.166-172.466-21.649-24.587-72.122-64.023-72.122-64.023,0,0,6.652,8.053,21.706,23.106,15.054,15.053,56.012,54.963,85.07,99.424,29.057,44.461,28.512,113.96,28.512,113.96h0ZM677.135,822.808s8.941,17.156,15.767,20.306c6.827,3.151,10.678.175,5.252-17.504-5.426-17.679-8.227-42.01-2.276-70.717,5.952-28.707,16.105-68.792,23.107-98.899,7.001-30.107,8.052-85.423-4.55-130.234-12.603-44.811-45.861-84.02-70.017-97.674-24.156-13.653-44.111-26.607-54.613-35.359-10.503-8.752-27.656-29.756-27.656-29.756,0,0,22.404,32.207,41.659,45.16,19.255,12.953,70.131,33.323,93.122,87.872,22.991,54.548,28.357,111.676,13.653,170.14-14.703,58.465-25.906,99.774-23.105,126.731,2.8,26.956,11.568,41.641,7.527,45.336-4.042,3.695-17.87-15.402-17.87-15.402h0ZM688.512,652.317c22.299-46.941,24.869-97.15-6.289-150.364-31.158-53.214-59.865-63.365-84.02-80.519-24.156-17.155-56.014-55.314-56.014-55.314,0,0,21.705,36.759,59.165,65.117,37.459,28.356,72.467,52.863,90.672,115.178,18.204,62.314-3.514,105.903-3.514,105.903h0ZM326.534,494.077s17.855-57.064,40.085-87.522c22.231-30.458,42.011-43.41,42.011-43.41,0,0-70.892,39.733-82.095,130.932h0ZM316.016,574.429s6.492-65.824,33.449-115.535c26.956-49.712,54.263-68.966,54.263-68.966,0,0-82.62,47.962-87.712,184.502,0,0,18.045-82.978,58.655-126.738,40.61-43.761,85.07-66.866,85.07-66.866,0,0-119.028,33.958-143.724,193.604h0ZM350.149,716.041s-17.666-36.769-19.417-93.134c-1.75-56.363,16.454-122.179,55.314-160.338,38.859-38.159,79.615-62.888,95.572-74.918,15.957-12.029,25.207-19.605,25.207-19.605,0,0-32.382,22.58-51.287,34.484-18.905,11.902-60.216,39.909-79.82,64.415-19.605,24.505-37.459,59.34-44.986,97.324-7.527,37.984-9.623,99.074,19.418,151.772Z" style="fill: #281311; fill-rule: evenodd;"/>
    <path d="M445.295,467.834c-3.895,3.544-7.476,7.154-10.69,10.93-4.999,1.777-12.713,6.659-15.726,4.721-3.676-2.363,6.127-26.08,4.065-25.707-2.062.374-8.529,10.304-10.104,7.591-1.575-2.713,2.538-7.352-.7-7.527-3.239-.175-20.393,16.454-25.294,14.179-4.901-2.276,3.387-13.506,3.387-13.506,0,0-5.925,2.916-16.34,9.305-10.415,6.389-12.69,4.901-10.59-3.239,2.101-8.139,1.225-15.666-3.326-14.703-4.551.963-16.366,19.08-18.204,16.629-1.837-2.451,3.32-20.959,3.32-20.959,0,0-12.597,17.546-13.385,14.569-.253-.953-.117-3.556.181-6.655,4.879-14.801,11.884-32.055,22.007-49.395-1.783,7.605-2.069,13.089.654,10.714,3.413-2.976,14.792-15.141,16.98-14.003,2.188,1.138-3.179,21.714-2.014,22.668,1.166.954,6.564-6.302,8.753-5.252,2.188,1.05-9.19,20.656-5.689,22.669,3.501,2.014,23.893-19.168,25.118-18.117,1.226,1.05-2.188,8.051.438,8.84,2.625.788,18.116-10.328,20.393-8.753,2.276,1.576-4.202,9.715.437,11.378,4.639,1.663,18.03-8.752,20.217-6.302,2.189,2.45-9.977,17.243-8.664,19.956,1.312,2.712,13.217-12.34,13.392-10.853.174,1.487-5.339,14.878-5.077,19.693.261,4.814,3.501,3.939,5.601,4.989,1.222.611,1.141,3.68.859,6.141h0ZM699.556,387.526c4.265,7.002,8.183,14.543,11.659,22.897-1.64-1.937-3.608-4.876-4.651-5.968-1.926-2.013,1.576,9.453,2.1,18.205.525,8.752-2.875,10.469-5.726,8.429-2.851-2.04-9.591-9.567-11.428-8.254-1.838,1.313,4.027,18.554,5.689,28.97,1.663,10.415,1.839,10.939-.437,12.952-2.277,2.014-7.148-6.372-9.366-6.826-2.218-.454,4.551,16.279,5.602,22.493,1.05,6.214-5.164,5.778-8.228,1.751-3.062-4.027-10.853-14.792-15.317-14.091-4.463.7-6.301,7.001-6.564,18.992-.262,11.991,1.839,15.492-2.625,16.63-4.465,1.138-18.381-16.104-23.544-17.067-4.381-.817-4.729,11.971-3.719,21.267-7.45-8.173-15.497-14.744-23.655-21.539-3.419-8.405-7.794-21.052-4.833-24.583,4.55-5.426,20.129,8.753,25.73,9.452,5.602.7,1.05-4.552,4.202-6.478,3.151-1.925,12.077,4.727,14.003,1.751,1.926-2.976-9.452-16.979-5.951-20.13,3.5-3.152,7.001,2.101,9.802.526,2.801-1.576-4.796-10.817-1.926-11.904,2.871-1.087,8.227,1.402,7.002-4.2-1.225-5.602-7.002-17.33-7.002-17.33,0,0,13.654,8.752,19.78,8.928,6.126.176,2.625-7.351.175-13.128-2.451-5.776-3.328-12.111-3.328-12.111,0,0,5.925,5.455,9.542,8.959,3.617,3.503,6.126,4.287,6.563,0,.439-4.288-10.239-25.118-8.139-26.781s8.839,9.278,11.553,9.978c2.714.7,1.662-1.313,2.975-2.1,1.313-.788,4.465,5.601,8.14,4.726,1.381-.33,1.859-2.203,1.919-4.414Z" style="fill: #5e4341; fill-rule: evenodd;"/>
  </g>
</svg>